<svg xmlns="http://www.w3.org/2000/svg" xmlns:xlink="http://www.w3.org/1999/xlink" width="118" height="118" viewBox="0 0 118 118">
  <defs>
    <filter id="Trazado_982547" x="0" y="0" width="118" height="118" filterUnits="userSpaceOnUse">
      <feOffset dy="3" input="SourceAlpha"/>
      <feGaussianBlur stdDeviation="3" result="blur"/>
      <feFlood flood-opacity="0.161"/>
      <feComposite operator="in" in2="blur"/>
      <feComposite in="SourceGraphic"/>
    </filter>
  </defs>
  <g id="Grupo_1176845" data-name="Grupo 1176845" transform="translate(-584 -9658.328)">
    <g id="Grupo_1176357" data-name="Grupo 1176357" transform="translate(593 9664.328)">
      <g id="Grupo_1172970" data-name="Grupo 1172970" transform="translate(0)">
        <g id="Grupo_1171971" data-name="Grupo 1171971" transform="translate(0)">
          <g id="Grupo_1167337" data-name="Grupo 1167337">
            <g id="Grupo_1166720" data-name="Grupo 1166720">
              <g id="Grupo_1164305" data-name="Grupo 1164305">
                <g id="Grupo_1163948" data-name="Grupo 1163948">
                  <g id="Grupo_1158168" data-name="Grupo 1158168">
                    <g id="Grupo_1152576" data-name="Grupo 1152576">
                      <g id="Grupo_1148633" data-name="Grupo 1148633">
                        <g id="Grupo_1148525" data-name="Grupo 1148525">
                          <g transform="matrix(1, 0, 0, 1, -9, -6)" filter="url(#Trazado_982547)">
                            <g id="Trazado_982547-2" data-name="Trazado 982547" transform="translate(9 6)" fill="#f2f7e5">
                              <path d="M 50 98.5 C 43.45188522338867 98.5 37.10042953491211 97.21787261962891 31.12207221984863 94.68923950195312 C 25.34691429138184 92.24655914306641 20.15995788574219 88.74932861328125 15.70532894134521 84.29468536376953 C 11.2506856918335 79.84004211425781 7.753442764282227 74.65309906005859 5.310757160186768 68.87794494628906 C 2.782128572463989 62.89958572387695 1.5 56.54813003540039 1.5 50 C 1.5 43.45188522338867 2.782128572463989 37.10042953491211 5.310757160186768 31.12207221984863 C 7.753442764282227 25.34691429138184 11.2506856918335 20.15997123718262 15.70532894134521 15.70532894134521 C 20.15997123718262 11.2506856918335 25.34691429138184 7.753442764282227 31.12207221984863 5.310757160186768 C 37.10042953491211 2.782128572463989 43.45188522338867 1.5 50 1.5 C 56.54813003540039 1.5 62.89958572387695 2.782128572463989 68.87794494628906 5.310757160186768 C 74.65309906005859 7.753442764282227 79.84004211425781 11.2506856918335 84.29468536376953 15.70532894134521 C 88.74932861328125 20.15995788574219 92.24655914306641 25.34691429138184 94.68923950195312 31.12207221984863 C 97.21787261962891 37.10042953491211 98.5 43.45188522338867 98.5 50 C 98.5 56.54813003540039 97.21787261962891 62.89958572387695 94.68923950195312 68.87794494628906 C 92.24655914306641 74.65309906005859 88.74932861328125 79.84004211425781 84.29468536376953 84.29468536376953 C 79.84004211425781 88.74932861328125 74.65309906005859 92.24655914306641 68.87794494628906 94.68923950195312 C 62.89958572387695 97.21787261962891 56.54813003540039 98.5 50 98.5 Z" stroke="none"/>
                              <path d="M 50 3 C 43.65372467041016 3 37.49886322021484 4.242263793945312 31.70639801025391 6.6922607421875 C 26.11003112792969 9.059326171875 21.08335113525391 12.44861602783203 16.76598358154297 16.76598358154297 C 12.44861602783203 21.08335113525391 9.059326171875 26.11003112792969 6.6922607421875 31.70639801025391 C 4.242263793945312 37.49886322021484 3 43.65372467041016 3 50 C 3 56.34629058837891 4.242263793945312 62.50115203857422 6.6922607421875 68.29361724853516 C 9.059326171875 73.88998413085938 12.44861602783203 78.91666412353516 16.76598358154297 83.23403167724609 C 21.08335113525391 87.55138397216797 26.11003112792969 90.940673828125 31.70639801025391 93.3077392578125 C 37.49886322021484 95.75773620605469 43.65372467041016 97 50 97 C 56.34629058837891 97 62.50115203857422 95.75773620605469 68.29361724853516 93.3077392578125 C 73.88998413085938 90.940673828125 78.91666412353516 87.55138397216797 83.23403167724609 83.23403167724609 C 87.55138397216797 78.91666412353516 90.940673828125 73.88998413085938 93.3077392578125 68.29361724853516 C 95.75773620605469 62.50115203857422 97 56.34629058837891 97 50 C 97 43.65372467041016 95.75773620605469 37.49886322021484 93.3077392578125 31.70639801025391 C 90.940673828125 26.11003112792969 87.55138397216797 21.08335113525391 83.23403167724609 16.76598358154297 C 78.91666412353516 12.44861602783203 73.88998413085938 9.059326171875 68.29361724853516 6.6922607421875 C 62.50115203857422 4.242263793945312 56.34629058837891 3 50 3 M 50 0 C 77.6142578125 0 100 22.38577270507812 100 50 C 100 77.6142578125 77.6142578125 100 50 100 C 22.38577270507812 100 0 77.6142578125 0 50 C 0 22.38577270507812 22.38577270507812 0 50 0 Z" stroke="none" fill="#86b60c"/>
                            </g>
                          </g>
                        </g>
                      </g>
                    </g>
                  </g>
                </g>
              </g>
            </g>
          </g>
        </g>
      </g>
    </g>
    <g id="coin_12260012" transform="translate(612.487 9654.584)">
      <g id="Grupo_1176833" data-name="Grupo 1176833" transform="translate(0 61.368)">
        <path id="Trazado_1035374" data-name="Trazado 1035374" d="M7,276.2H36.205v24.208H7Z" transform="translate(-6.138 -275.339)" fill="#fdbf00" fill-rule="evenodd"/>
        <path id="Trazado_1035375" data-name="Trazado 1035375" d="M30.067,295.119H.862A.856.856,0,0,1,0,294.258v-24.2a.856.856,0,0,1,.862-.862H30.067a.856.856,0,0,1,.862.862V294.27A.862.862,0,0,1,30.067,295.119ZM1.723,293.4H29.205V270.923H1.723Z" transform="translate(0 -269.2)"/>
      </g>
      <g id="Grupo_1176834" data-name="Grupo 1176834" transform="translate(0 77.503)">
        <path id="Trazado_1035376" data-name="Trazado 1035376" d="M30.067,402.023H.862a.862.862,0,0,1,0-1.723H30.067a.862.862,0,0,1,0,1.723Z" transform="translate(0 -400.3)"/>
      </g>
      <g id="Grupo_1176835" data-name="Grupo 1176835" transform="translate(0 69.429)">
        <path id="Trazado_1035377" data-name="Trazado 1035377" d="M30.067,336.423H.862a.862.862,0,0,1,0-1.723H30.067a.862.862,0,0,1,0,1.723Z" transform="translate(0 -334.7)"/>
      </g>
      <g id="Grupo_1176836" data-name="Grupo 1176836" transform="translate(0 32.2)">
        <path id="Trazado_1035378" data-name="Trazado 1035378" d="M21.6,68.393A14.6,14.6,0,1,0,7,53.8,14.628,14.628,0,0,0,21.6,68.393Z" transform="translate(-6.138 -38.338)" fill="#ffda2d" fill-rule="evenodd"/>
        <path id="Trazado_1035379" data-name="Trazado 1035379" d="M15.458,63.116A15.458,15.458,0,1,1,30.916,47.658,15.476,15.476,0,0,1,15.458,63.116Zm0-29.193A13.735,13.735,0,1,0,29.205,47.658,13.756,13.756,0,0,0,15.458,33.923Z" transform="translate(0 -32.2)"/>
      </g>
      <g id="Grupo_1176837" data-name="Grupo 1176837" transform="translate(3.704 35.904)">
        <path id="Trazado_1035380" data-name="Trazado 1035380" d="M47.992,91.084A10.892,10.892,0,1,0,37.1,80.192,10.9,10.9,0,0,0,47.992,91.084Z" transform="translate(-36.238 -68.438)" fill="#fdbf00" fill-rule="evenodd"/>
        <path id="Trazado_1035381" data-name="Trazado 1035381" d="M41.853,85.807A11.753,11.753,0,1,1,53.595,74.053,11.768,11.768,0,0,1,41.853,85.807Zm0-21.784a10.03,10.03,0,1,0,10.018,10.03A10.04,10.04,0,0,0,41.853,64.023Z" transform="translate(-30.1 -62.3)"/>
      </g>
      <g id="Grupo_1176838" data-name="Grupo 1176838" transform="translate(35.494 34.412)">
        <path id="Trazado_1035382" data-name="Trazado 1035382" d="M295.3,71.661h13.3V67.895h-5.969l7.31-7.311L306.561,57.2l-7.483,7.483V58.726H295.3Z" transform="translate(-294.451 -56.335)" fill="#559b38" fill-rule="evenodd"/>
        <path id="Trazado_1035383" data-name="Trazado 1035383" d="M302.553,66.362H289.262a.856.856,0,0,1-.862-.862V52.566a.856.856,0,0,1,.862-.862h3.766a.856.856,0,0,1,.862.862v3.877l6.018-6.018a.869.869,0,0,1,1.218,0l3.4,3.384a.876.876,0,0,1,.258.615.847.847,0,0,1-.258.615l-5.834,5.834h3.877a.856.856,0,0,1,.862.862V65.5A.883.883,0,0,1,302.553,66.362Zm-12.443-1.723H301.68V62.6h-5.1a.874.874,0,0,1-.8-.529.852.852,0,0,1,.185-.935l6.7-6.7L300.5,52.27l-6.867,6.867a.852.852,0,0,1-.935.185.861.861,0,0,1-.529-.8v-5.1h-2.043V64.639Z" transform="translate(-288.4 -50.175)"/>
      </g>
      <g id="Grupo_1176839" data-name="Grupo 1176839" transform="translate(32.097 56.359)">
        <path id="Trazado_1035384" data-name="Trazado 1035384" d="M282.4,264.705a14.6,14.6,0,1,0-14.6-14.6A14.631,14.631,0,0,0,282.4,264.705Z" transform="translate(-266.938 -234.638)" fill="#ffda2d" fill-rule="evenodd"/>
        <path id="Trazado_1035385" data-name="Trazado 1035385" d="M276.258,259.428a15.464,15.464,0,1,1,15.47-15.458A15.476,15.476,0,0,1,276.258,259.428Zm0-29.205a13.741,13.741,0,1,0,13.747,13.747A13.751,13.751,0,0,0,276.258,230.223Z" transform="translate(-260.8 -228.5)"/>
      </g>
      <g id="Grupo_1176840" data-name="Grupo 1176840" transform="translate(35.814 60.076)">
        <path id="Trazado_1035386" data-name="Trazado 1035386" d="M308.88,287.472A10.886,10.886,0,1,0,298,276.592,10.909,10.909,0,0,0,308.88,287.472Z" transform="translate(-297.138 -264.839)" fill="#fdbf00" fill-rule="evenodd"/>
        <path id="Trazado_1035387" data-name="Trazado 1035387" d="M302.741,282.195a11.747,11.747,0,1,1,11.753-11.741A11.755,11.755,0,0,1,302.741,282.195Zm0-21.772a10.024,10.024,0,1,0,10.03,10.03A10.03,10.03,0,0,0,302.741,260.423Z" transform="translate(-291 -258.7)"/>
      </g>
      <g id="Grupo_1176841" data-name="Grupo 1176841" transform="translate(43.691 64.962)">
        <path id="Trazado_1035388" data-name="Trazado 1035388" d="M358.864,312.123A3.871,3.871,0,0,1,355,308.258a.862.862,0,0,1,1.723,0,2.135,2.135,0,1,0,4.271,0c0-1.538-.714-1.772-2.338-2.154-1.551-.369-3.655-.874-3.655-3.84a3.864,3.864,0,1,1,7.729,0,.862.862,0,1,1-1.723,0,2.135,2.135,0,0,0-4.271,0c0,1.538.714,1.772,2.338,2.166,1.538.369,3.655.874,3.655,3.84A3.876,3.876,0,0,1,358.864,312.123Z" transform="translate(-355 -298.4)"/>
      </g>
      <g id="Grupo_1176842" data-name="Grupo 1176842" transform="translate(46.694 62.968)">
        <path id="Trazado_1035389" data-name="Trazado 1035389" d="M380.262,299.91a.856.856,0,0,1-.862-.862v-1.711a.861.861,0,1,1,1.723,0v1.711A.864.864,0,0,1,380.262,299.91Zm0-14.3a.856.856,0,0,1-.862-.862v-1.686a.861.861,0,1,1,1.723,0v1.686A.864.864,0,0,1,380.262,285.609Z" transform="translate(-379.4 -282.2)"/>
      </g>
      <g id="Grupo_1176843" data-name="Grupo 1176843" transform="translate(11.593 40.778)">
        <path id="Trazado_1035390" data-name="Trazado 1035390" d="M98.064,115.635A3.871,3.871,0,0,1,94.2,111.77a.862.862,0,0,1,1.723,0,2.135,2.135,0,0,0,4.271,0c0-1.538-.714-1.772-2.338-2.166-1.538-.369-3.655-.874-3.655-3.84a3.864,3.864,0,1,1,7.729,0,.862.862,0,0,1-1.723,0,2.135,2.135,0,1,0-4.271,0c0,1.538.714,1.772,2.338,2.154,1.551.369,3.655.874,3.655,3.84A3.866,3.866,0,0,1,98.064,115.635Z" transform="translate(-94.2 -101.9)"/>
      </g>
      <g id="Grupo_1176844" data-name="Grupo 1176844" transform="translate(14.596 38.809)">
        <path id="Trazado_1035391" data-name="Trazado 1035391" d="M119.462,103.61a.856.856,0,0,1-.862-.862v-1.7a.862.862,0,1,1,1.723,0v1.7A.856.856,0,0,1,119.462,103.61Zm0-14.313a.856.856,0,0,1-.862-.862V86.762a.862.862,0,1,1,1.723,0v1.686A.846.846,0,0,1,119.462,89.3Z" transform="translate(-118.6 -85.9)"/>
      </g>
    </g>
  </g>
</svg>
