<svg xmlns="http://www.w3.org/2000/svg" xmlns:xlink="http://www.w3.org/1999/xlink" width="118" height="118" viewBox="0 0 118 118">
  <defs>
    <filter id="Trazado_982547" x="0" y="0" width="118" height="118" filterUnits="userSpaceOnUse">
      <feOffset dy="3" input="SourceAlpha"/>
      <feGaussianBlur stdDeviation="3" result="blur"/>
      <feFlood flood-opacity="0.161"/>
      <feComposite operator="in" in2="blur"/>
      <feComposite in="SourceGraphic"/>
    </filter>
  </defs>
  <g id="Grupo_1176876" data-name="Grupo 1176876" transform="translate(-1214 -9658.328)">
    <g id="Grupo_1176359" data-name="Grupo 1176359" transform="translate(1223 9664.328)">
      <g id="Grupo_1172970" data-name="Grupo 1172970" transform="translate(0)">
        <g id="Grupo_1171971" data-name="Grupo 1171971" transform="translate(0)">
          <g id="Grupo_1167337" data-name="Grupo 1167337">
            <g id="Grupo_1166720" data-name="Grupo 1166720">
              <g id="Grupo_1164305" data-name="Grupo 1164305">
                <g id="Grupo_1163948" data-name="Grupo 1163948">
                  <g id="Grupo_1158168" data-name="Grupo 1158168">
                    <g id="Grupo_1152576" data-name="Grupo 1152576">
                      <g id="Grupo_1148633" data-name="Grupo 1148633">
                        <g id="Grupo_1148525" data-name="Grupo 1148525">
                          <g transform="matrix(1, 0, 0, 1, -9, -6)" filter="url(#Trazado_982547)">
                            <g id="Trazado_982547-2" data-name="Trazado 982547" transform="translate(9 6)" fill="#f2f7e5">
                              <path d="M 50 98.5 C 43.45188522338867 98.5 37.10042953491211 97.21787261962891 31.12207221984863 94.68923950195312 C 25.34691429138184 92.24655914306641 20.15995788574219 88.74932861328125 15.70532894134521 84.29468536376953 C 11.2506856918335 79.84004211425781 7.753442764282227 74.65309906005859 5.310757160186768 68.87794494628906 C 2.782128572463989 62.89958572387695 1.5 56.54813003540039 1.5 50 C 1.5 43.45188522338867 2.782128572463989 37.10042953491211 5.310757160186768 31.12207221984863 C 7.753442764282227 25.34691429138184 11.2506856918335 20.15997123718262 15.70532894134521 15.70532894134521 C 20.15997123718262 11.2506856918335 25.34691429138184 7.753442764282227 31.12207221984863 5.310757160186768 C 37.10042953491211 2.782128572463989 43.45188522338867 1.5 50 1.5 C 56.54813003540039 1.5 62.89958572387695 2.782128572463989 68.87794494628906 5.310757160186768 C 74.65309906005859 7.753442764282227 79.84004211425781 11.2506856918335 84.29468536376953 15.70532894134521 C 88.74932861328125 20.15995788574219 92.24655914306641 25.34691429138184 94.68923950195312 31.12207221984863 C 97.21787261962891 37.10042953491211 98.5 43.45188522338867 98.5 50 C 98.5 56.54813003540039 97.21787261962891 62.89958572387695 94.68923950195312 68.87794494628906 C 92.24655914306641 74.65309906005859 88.74932861328125 79.84004211425781 84.29468536376953 84.29468536376953 C 79.84004211425781 88.74932861328125 74.65309906005859 92.24655914306641 68.87794494628906 94.68923950195312 C 62.89958572387695 97.21787261962891 56.54813003540039 98.5 50 98.5 Z" stroke="none"/>
                              <path d="M 50 3 C 43.65372467041016 3 37.49886322021484 4.242263793945312 31.70639801025391 6.6922607421875 C 26.11003112792969 9.059326171875 21.08335113525391 12.44861602783203 16.76598358154297 16.76598358154297 C 12.44861602783203 21.08335113525391 9.059326171875 26.11003112792969 6.6922607421875 31.70639801025391 C 4.242263793945312 37.49886322021484 3 43.65372467041016 3 50 C 3 56.34629058837891 4.242263793945312 62.50115203857422 6.6922607421875 68.29361724853516 C 9.059326171875 73.88998413085938 12.44861602783203 78.91666412353516 16.76598358154297 83.23403167724609 C 21.08335113525391 87.55138397216797 26.11003112792969 90.940673828125 31.70639801025391 93.3077392578125 C 37.49886322021484 95.75773620605469 43.65372467041016 97 50 97 C 56.34629058837891 97 62.50115203857422 95.75773620605469 68.29361724853516 93.3077392578125 C 73.88998413085938 90.940673828125 78.91666412353516 87.55138397216797 83.23403167724609 83.23403167724609 C 87.55138397216797 78.91666412353516 90.940673828125 73.88998413085938 93.3077392578125 68.29361724853516 C 95.75773620605469 62.50115203857422 97 56.34629058837891 97 50 C 97 43.65372467041016 95.75773620605469 37.49886322021484 93.3077392578125 31.70639801025391 C 90.940673828125 26.11003112792969 87.55138397216797 21.08335113525391 83.23403167724609 16.76598358154297 C 78.91666412353516 12.44861602783203 73.88998413085938 9.059326171875 68.29361724853516 6.6922607421875 C 62.50115203857422 4.242263793945312 56.34629058837891 3 50 3 M 50 0 C 77.6142578125 0 100 22.38577270507812 100 50 C 100 77.6142578125 77.6142578125 100 50 100 C 22.38577270507812 100 0 77.6142578125 0 50 C 0 22.38577270507812 22.38577270507812 0 50 0 Z" stroke="none" fill="#86b60c"/>
                            </g>
                          </g>
                        </g>
                      </g>
                    </g>
                  </g>
                </g>
              </g>
            </g>
          </g>
        </g>
      </g>
    </g>
    <g id="sale_3052574" transform="translate(1241.191 9682.328)">
      <g id="Grupo_1176874" data-name="Grupo 1176874">
        <g id="Grupo_1176859" data-name="Grupo 1176859">
          <path id="Trazado_1035414" data-name="Trazado 1035414" d="M24.92,3.08A3.672,3.672,0,0,0,22.31,2H5.69A3.687,3.687,0,0,0,2,5.69a4.071,4.071,0,0,0,.05.61l1.44,8.61A3.685,3.685,0,0,0,7.13,18H11l4.59,3.68a1.5,1.5,0,0,0,.93.32A1.477,1.477,0,0,0,18,20.52V18h2.87a3.685,3.685,0,0,0,3.64-3.09L25.95,6.3A4.07,4.07,0,0,0,26,5.69a3.672,3.672,0,0,0-1.08-2.61Z" fill="#e6e9ed"/>
        </g>
        <g id="Grupo_1176860" data-name="Grupo 1176860">
          <path id="Trazado_1035415" data-name="Trazado 1035415" d="M43,20h4l3,18H35.46A3.987,3.987,0,0,0,30,36.54V30a2.006,2.006,0,0,0-2-2H25.67L27,20H43Z" fill="#cf9e76"/>
        </g>
        <g id="Grupo_1176861" data-name="Grupo 1176861">
          <path id="Trazado_1035416" data-name="Trazado 1035416" d="M30,30v6.54A3.934,3.934,0,0,0,28.54,38H14V30a2.006,2.006,0,0,1,2-2H28A2.006,2.006,0,0,1,30,30Z" fill="#d3a06c"/>
        </g>
        <g id="Grupo_1176862" data-name="Grupo 1176862">
          <path id="Trazado_1035417" data-name="Trazado 1035417" d="M56.45,2.89,61,12H58V55H55a2.068,2.068,0,0,0-.03-.35,2,2,0,0,0-.82-1.29l-3.07-2.15L52,42h1a1,1,0,0,0,1-1V39a1,1,0,0,0-1-1H52V12H49l4.55-9.11a1.626,1.626,0,0,1,2.9,0Z" fill="#ffeaa7"/>
        </g>
        <g id="Grupo_1176863" data-name="Grupo 1176863">
          <path id="Trazado_1035418" data-name="Trazado 1035418" d="M52,42l-.92,9.21L37.93,42Z" fill="#e6e9ed"/>
        </g>
        <g id="Grupo_1176864" data-name="Grupo 1176864">
          <path id="Trazado_1035419" data-name="Trazado 1035419" d="M33.41,43.73a3.817,3.817,0,0,1-2.82,0L13.38,55.78l.26,2.62A4,4,0,0,0,17.62,62H46.38a4,4,0,0,0,3.98-3.6l.26-2.62Z" fill="#e6e9ed"/>
        </g>
        <g id="Grupo_1176865" data-name="Grupo 1176865">
          <path id="Trazado_1035420" data-name="Trazado 1035420" d="M26.07,42,12.92,51.21,12,42Z" fill="#e6e9ed"/>
        </g>
        <g id="Grupo_1176866" data-name="Grupo 1176866">
          <path id="Trazado_1035421" data-name="Trazado 1035421" d="M52,38h1a1,1,0,0,1,1,1v2a1,1,0,0,1-1,1H37.92l-1.97-1.38A4.206,4.206,0,0,0,36,40a3.989,3.989,0,0,0-.54-2H52Z" fill="#ccd1d9"/>
        </g>
        <g id="Grupo_1176867" data-name="Grupo 1176867">
          <path id="Trazado_1035422" data-name="Trazado 1035422" d="M28,40a4.206,4.206,0,0,0,.05.62L26.08,42H11a1,1,0,0,1-1-1V39a1,1,0,0,1,1-1H28.54A3.989,3.989,0,0,0,28,40Z" fill="#ccd1d9"/>
        </g>
        <g id="Grupo_1176868" data-name="Grupo 1176868">
          <path id="Trazado_1035423" data-name="Trazado 1035423" d="M42,56v6H38V56a2.006,2.006,0,0,1,2-2,2.015,2.015,0,0,1,2,2Z" fill="#fcd770"/>
        </g>
        <g id="Grupo_1176869" data-name="Grupo 1176869">
          <path id="Trazado_1035424" data-name="Trazado 1035424" d="M34,52V62H30V52a2.006,2.006,0,0,1,2-2,2.015,2.015,0,0,1,2,2Z" fill="#fcd770"/>
        </g>
        <g id="Grupo_1176870" data-name="Grupo 1176870">
          <path id="Trazado_1035425" data-name="Trazado 1035425" d="M26,56v6H22V56a2.006,2.006,0,0,1,2-2,2.015,2.015,0,0,1,2,2Z" fill="#fcd770"/>
        </g>
        <g id="Grupo_1176871" data-name="Grupo 1176871">
          <path id="Trazado_1035426" data-name="Trazado 1035426" d="M37.92,42h.01l13.15,9.21,3.07,2.15a2,2,0,0,1,.82,1.29A2.068,2.068,0,0,1,55,55a1.983,1.983,0,0,1-.36,1.15A2.01,2.01,0,0,1,53,57a1.931,1.931,0,0,1-1.14-.36l-1.24-.86L33.41,43.73a3.953,3.953,0,0,0,2.54-3.11Z" fill="#aab2bd"/>
        </g>
        <g id="Grupo_1176872" data-name="Grupo 1176872">
          <path id="Trazado_1035427" data-name="Trazado 1035427" d="M28.05,40.62a3.953,3.953,0,0,0,2.54,3.11L13.38,55.78l-1.24.86A1.931,1.931,0,0,1,11,57a2,2,0,0,1-1.15-3.64l3.07-2.15L26.07,42h.01Z" fill="#aab2bd"/>
        </g>
        <g id="Grupo_1176873" data-name="Grupo 1176873">
          <path id="Trazado_1035428" data-name="Trazado 1035428" d="M35.46,38A3.989,3.989,0,0,1,36,40a4.206,4.206,0,0,1-.05.62,3.953,3.953,0,0,1-2.54,3.11,3.817,3.817,0,0,1-2.82,0,3.953,3.953,0,0,1-2.54-3.11A4.205,4.205,0,0,1,28,40a3.989,3.989,0,0,1,.54-2A3.934,3.934,0,0,1,30,36.54,3.987,3.987,0,0,1,35.46,38Z" fill="#b4dd7f"/>
        </g>
      </g>
      <g id="Grupo_1176875" data-name="Grupo 1176875">
        <path id="Trazado_1035429" data-name="Trazado 1035429" d="M57.342,2.446a2.619,2.619,0,0,0-4.684,0L47.382,13H51V29h2V11H50.618l3.829-7.657a.64.64,0,0,1,1.1,0L59.382,11H57V55h2V13h3.618Z"/>
        <path id="Trazado_1035430" data-name="Trazado 1035430" d="M54.721,52.542,52.133,50.73,52.9,43H53a2,2,0,0,0,2-2V39a2,2,0,0,0-2-2H50.847l-3-18H44V17a7,7,0,0,0-14,0v2H26.153L24.82,27H16a3,3,0,0,0-3,3v7H11a2,2,0,0,0-2,2v2a2,2,0,0,0,2,2h.1l.773,7.731L9.28,52.542a3,3,0,0,0,3.271,5.016l.094.94A4.985,4.985,0,0,0,17.62,63H46.38a4.987,4.987,0,0,0,4.976-4.5l.094-.941A2.967,2.967,0,0,0,53,58a3,3,0,0,0,1.721-5.458Zm-4.467-3.127L41.09,43H50.9ZM53,41H38.233l-1.246-.872c0-.044.013-.084.013-.128a5,5,0,0,0-.1-1H53ZM32,17a5,5,0,0,1,10,0v2H32Zm-4.153,4H30v4h2V21H42v4h2V21h2.153l2.666,16H35.974A4.957,4.957,0,0,0,31,35.1V30a3,3,0,0,0-3-3H26.847ZM32,43a3,3,0,1,1,3-3A3,3,0,0,1,32,43ZM15,30a1,1,0,0,1,1-1H28a1,1,0,0,1,1,1v6.026a5.02,5.02,0,0,0-.974.974H15Zm-4,9H27.1a5,5,0,0,0-.1,1c0,.044.012.084.013.128L25.767,41H11Zm2.1,4H22.91l-9.164,6.415ZM10.18,55.572a.981.981,0,0,1-.166-.746,1,1,0,0,1,.412-.646L27.535,42.2a5,5,0,0,0,1.234,1.579l-17.2,12.037a1.024,1.024,0,0,1-1.393-.247ZM25,61H23V56a1,1,0,0,1,2,0Zm8,0H31V52a1,1,0,0,1,2,0Zm8,0H39V56a1,1,0,0,1,2,0Zm5.38,0H43V56a3,3,0,0,0-6,0v5H35V52a3,3,0,0,0-6,0v9H27V56a3,3,0,0,0-6,0v5H17.62a2.99,2.99,0,0,1-2.985-2.7l-.2-2.039L30.764,44.827a4.5,4.5,0,0,0,2.472,0L49.569,56.259l-.2,2.04A2.99,2.99,0,0,1,46.38,61Zm7.439-5.426a1.028,1.028,0,0,1-1.391.246l-17.2-12.037A5,5,0,0,0,36.466,42.2l17.11,11.977a.993.993,0,0,1,.41.643.981.981,0,0,1-.167.75Z"/>
        <path id="Trazado_1035431" data-name="Trazado 1035431" d="M14.971,22.457A2.48,2.48,0,0,0,19,20.52V19h1.87A4.679,4.679,0,0,0,25.5,15.077l1.436-8.612A4.7,4.7,0,0,0,22.306,1H5.694A4.7,4.7,0,0,0,1,5.694a4.767,4.767,0,0,0,.063.772L2.5,15.077A4.679,4.679,0,0,0,7.13,19h3.52Zm-10.5-7.708L3.036,6.139A2.773,2.773,0,0,1,3,5.694,2.7,2.7,0,0,1,5.694,3H22.305A2.7,2.7,0,0,1,25,5.694a2.739,2.739,0,0,1-.036.443l-1.436,8.611A2.686,2.686,0,0,1,20.87,17H17v3.52a.5.5,0,0,1-.78.375L11.351,17H7.13a2.686,2.686,0,0,1-2.658-2.251Z"/>
        <path id="Trazado_1035432" data-name="Trazado 1035432" d="M7.6,9H20.4v2H7.6Z" transform="matrix(0.625, -0.781, 0.781, 0.625, -2.554, 14.685)"/>
        <circle id="Elipse_12285" data-name="Elipse 12285" cx="1" cy="1" r="1" transform="translate(16 11)"/>
        <circle id="Elipse_12286" data-name="Elipse 12286" cx="1" cy="1" r="1" transform="translate(10 7)"/>
      </g>
    </g>
  </g>
</svg>
