<svg xmlns="http://www.w3.org/2000/svg" xmlns:xlink="http://www.w3.org/1999/xlink" width="106" height="106" viewBox="0 0 106 106">
  <defs>
    <filter id="Trazado_982547" x="0" y="0" width="106" height="106" filterUnits="userSpaceOnUse">
      <feOffset dy="3" input="SourceAlpha"/>
      <feGaussianBlur stdDeviation="3" result="blur"/>
      <feFlood flood-opacity="0.161"/>
      <feComposite operator="in" in2="blur"/>
      <feComposite in="SourceGraphic"/>
    </filter>
  </defs>
  <g id="Grupo_1176894" data-name="Grupo 1176894" transform="translate(-171 -9988)">
    <g id="Grupo_1176360" data-name="Grupo 1176360" transform="translate(0 7981)">
      <g id="Grupo_1174730" data-name="Grupo 1174730" transform="translate(0 625)">
        <g id="Grupo_1173169" data-name="Grupo 1173169" transform="translate(0 -2329)">
          <g id="Grupo_1172017" data-name="Grupo 1172017" transform="translate(0 2654)">
            <g id="Grupo_1167337" data-name="Grupo 1167337" transform="translate(180 1063)">
              <g id="Grupo_1166720" data-name="Grupo 1166720" transform="translate(0)">
                <g id="Grupo_1164305" data-name="Grupo 1164305">
                  <g id="Grupo_1163948" data-name="Grupo 1163948">
                    <g id="Grupo_1158168" data-name="Grupo 1158168">
                      <g id="Grupo_1152576" data-name="Grupo 1152576">
                        <g id="Grupo_1148633" data-name="Grupo 1148633">
                          <g id="Grupo_1148525" data-name="Grupo 1148525">
                            <g transform="matrix(1, 0, 0, 1, -9, -6)" filter="url(#Trazado_982547)">
                              <g id="Trazado_982547-2" data-name="Trazado 982547" transform="translate(9 6)" fill="#f2f7e5">
                                <path d="M 44 86.5 C 38.26187515258789 86.5 32.69618606567383 85.37651062011719 27.45755004882812 83.16075897216797 C 22.3968505859375 81.020263671875 17.85157585144043 77.95565032958984 13.94796276092529 74.05204010009766 C 10.04434967041016 70.1484375 6.979737281799316 65.6031494140625 4.839250087738037 60.54246139526367 C 2.62348747253418 55.30381393432617 1.5 49.73812484741211 1.5 44 C 1.5 38.26187515258789 2.62348747253418 32.69618606567383 4.839250087738037 27.45755004882812 C 6.979737281799316 22.3968505859375 10.04434967041016 17.85157585144043 13.94796276092529 13.94796276092529 C 17.85157585144043 10.04434967041016 22.3968505859375 6.979737281799316 27.45755004882812 4.839250087738037 C 32.69618606567383 2.62348747253418 38.26187515258789 1.5 44 1.5 C 49.73812484741211 1.5 55.30381393432617 2.62348747253418 60.54246139526367 4.839250087738037 C 65.6031494140625 6.979737281799316 70.1484375 10.04434967041016 74.05204010009766 13.94796276092529 C 77.95565032958984 17.85157585144043 81.020263671875 22.3968505859375 83.16075897216797 27.45755004882812 C 85.37651062011719 32.69618606567383 86.5 38.26187515258789 86.5 44 C 86.5 49.73812484741211 85.37651062011719 55.30381393432617 83.16075897216797 60.54246139526367 C 81.020263671875 65.6031494140625 77.95565032958984 70.1484375 74.05204010009766 74.05204010009766 C 70.1484375 77.95565032958984 65.6031494140625 81.020263671875 60.54246139526367 83.16075897216797 C 55.30381393432617 85.37651062011719 49.73812484741211 86.5 44 86.5 Z" stroke="none"/>
                                <path d="M 44 3 C 38.46371459960938 3 33.09462738037109 4.083610534667969 28.0418701171875 6.220756530761719 C 23.15997314453125 8.285614013671875 18.77495574951172 11.24228668212891 15.00862884521484 15.00862884521484 C 11.24228668212891 18.77495574951172 8.285614013671875 23.15997314453125 6.220756530761719 28.0418701171875 C 4.083610534667969 33.09462738037109 3 38.46371459960938 3 44 C 3 49.53628540039062 4.083610534667969 54.9053840637207 6.220756530761719 59.9581298828125 C 8.285614013671875 64.84002685546875 11.24228668212891 69.22504425048828 15.00862884521484 72.99138641357422 C 18.77495574951172 76.75771331787109 23.15997314453125 79.71438598632812 28.0418701171875 81.77925872802734 C 33.09462738037109 83.9163818359375 38.46371459960938 85 44 85 C 49.53628540039062 85 54.9053840637207 83.9163818359375 59.95814514160156 81.77925872802734 C 64.84002685546875 79.71438598632812 69.22504425048828 76.75771331787109 72.99138641357422 72.99138641357422 C 76.75771331787109 69.22504425048828 79.71438598632812 64.84002685546875 81.77925872802734 59.95814514160156 C 83.9163818359375 54.9053840637207 85 49.53628540039062 85 44 C 85 38.46371459960938 83.9163818359375 33.09462738037109 81.77925872802734 28.0418701171875 C 79.71438598632812 23.15997314453125 76.75771331787109 18.77495574951172 72.99138641357422 15.00862884521484 C 69.22504425048828 11.24228668212891 64.84002685546875 8.285614013671875 59.9581298828125 6.220756530761719 C 54.9053840637207 4.083610534667969 49.53628540039062 3 44 3 M 44 0 C 68.30054473876953 0 88 19.69947052001953 88 44 C 88 68.30054473876953 68.30054473876953 88 44 88 C 19.69947052001953 88 0 68.30054473876953 0 44 C 0 19.69947052001953 19.69947052001953 0 44 0 Z" stroke="none" fill="#86b60c"/>
                              </g>
                            </g>
                          </g>
                        </g>
                      </g>
                    </g>
                  </g>
                </g>
              </g>
            </g>
          </g>
        </g>
      </g>
    </g>
    <g id="logic-process_14781798_2_" data-name="logic-process_14781798 (2)" transform="translate(193.451 10004.045)">
      <g id="Grupo_1176878" data-name="Grupo 1176878" transform="translate(6.499 7.591)">
        <path id="Trazado_1035433" data-name="Trazado 1035433" d="M51.542,439.64a.317.317,0,0,0,.272-.479l-1.315-2.2a10.218,10.218,0,0,0-6.851-4.792l-.93-.185-31.172.029A10.568,10.568,0,0,0,6.6,434.6a.318.318,0,0,0-.1.236v4.488a.317.317,0,0,0,.317.317h8.458l.847-.306,22.345.016.506.29H51.542Z" transform="translate(-6.499 -387.276)" fill="#f79d58"/>
        <path id="Trazado_1035434" data-name="Trazado 1035434" d="M110.2,380.792a28.524,28.524,0,0,0-4.76-1.672l-12.022.056a30.842,30.842,0,0,0-4.747,1.616l-1.344,2.123,1.882,5.968,21.955-1.476v-5.3Z" transform="translate(-78.795 -339.989)" fill="#f79d58"/>
        <path id="Trazado_1035435" data-name="Trazado 1035435" d="M127.407,354.645l-.3-6.613A2.332,2.332,0,0,0,129,345.739v-5.717l12.022-.291v6.008a2.332,2.332,0,0,0,1.892,2.292l1.152,5.952Z" transform="translate(-114.381 -304.757)" fill="#ffb09e"/>
        <path id="Trazado_1035436" data-name="Trazado 1035436" d="M112.715,419.291l-2.493,7.579-1.771.6h-16.8l-1.4-.411-2.245-7.94,4.126-.738a10.792,10.792,0,0,0,15.806,0Z" transform="translate(-79.409 -375.102)" fill="#eaf6ff"/>
        <path id="Trazado_1035437" data-name="Trazado 1035437" d="M91.968,30.689c0,3.782-4.572,5.319-7.1,7.744H67.09V33.38a14.179,14.179,0,0,1,18.4-13.546C89.5,21.908,91.968,27.231,91.968,30.689Z" transform="translate(-60.695 -18.046)" fill="#d78878"/>
        <path id="Trazado_1035438" data-name="Trazado 1035438" d="M246.078,38.836V43.89H235.51a13.325,13.325,0,0,0,.628-18.6,14.2,14.2,0,0,1,9.94,13.546Z" transform="translate(-211.34 -23.502)" fill="#ca6e59"/>
        <path id="Trazado_1035439" data-name="Trazado 1035439" d="M60.634,201.481a6.281,6.281,0,0,1-4.2-5.927h0a2.53,2.53,0,0,1,2.528-2.531H84.5a2.53,2.53,0,0,1,2.528,2.531h0a6.134,6.134,0,0,1-4.2,5.927Z" transform="translate(-51.164 -173.533)" fill="#ffb09e"/>
        <path id="Trazado_1035440" data-name="Trazado 1035440" d="M102.981,147.618a4.669,4.669,0,0,0,3.077,1.157H108.6a4.67,4.67,0,0,0,3.077-1.157l4.354-3.815a7.022,7.022,0,0,0,2.395-5.283v-9.385a1.462,1.462,0,0,1-1.383-.99l-1.757-5.134a2.088,2.088,0,0,0-2.55-1.334l-.573.164a17.573,17.573,0,0,1-9.66,0l-.578-.166a2.089,2.089,0,0,0-2.55,1.335l-1.757,5.134a1.463,1.463,0,0,1-1.383.99v9.385A7.325,7.325,0,0,0,98.6,143.8Z" transform="translate(-86.762 -109.644)" fill="#ffcebf"/>
        <path id="Trazado_1035441" data-name="Trazado 1035441" d="M285.1,406.525l3.746-7.653a13.657,13.657,0,0,0-4.815-3.907l-2.361,11.56Z" transform="translate(-252.633 -354.161)" fill="#e37c2c"/>
        <path id="Trazado_1035442" data-name="Trazado 1035442" d="M58.046,406.525,54.312,398.9a13.7,13.7,0,0,1,4.828-3.937l2.37,11.561Z" transform="translate(-49.266 -354.161)" fill="#e37c2c"/>
        <path id="Trazado_1035443" data-name="Trazado 1035443" d="M263.373,12.088A13.234,13.234,0,0,1,250.022,25.3a4.729,4.729,0,0,1-2.173-.913,5.1,5.1,0,0,1-.4-.721.315.315,0,0,0-.434-.153,4.5,4.5,0,0,1-1.251.45,4.538,4.538,0,0,1-5.126-2.816,4.483,4.483,0,0,1-.3-1.619,4.537,4.537,0,0,1,.093-.917.31.31,0,0,0-.118-.309,3.648,3.648,0,0,1,2.4-6.555,3.678,3.678,0,0,1,.991.192.316.316,0,0,0,.374-.133,5.73,5.73,0,0,1,7.72-2.018.311.311,0,0,0,.361-.039,5.425,5.425,0,0,1,7.6.326.317.317,0,0,0,.293.1,3.666,3.666,0,0,1,2.76.544A4.041,4.041,0,0,1,263.373,12.088Z" transform="translate(-214.334 -8.352)" fill="#eaf6ff"/>
        <path id="Trazado_1035444" data-name="Trazado 1035444" d="M343.095,37a3.651,3.651,0,0,1-3.319,3.633l-.073,0a.317.317,0,0,0-.3.279,4.535,4.535,0,0,1-6.45,3.539.317.317,0,0,0-.4.1,5.162,5.162,0,0,1-8.511-.1A13.363,13.363,0,0,0,339.021,31.2c0-.138,0-.277-.006-.414a3.653,3.653,0,0,1,1.592,2.571.31.31,0,0,0,.191.25A3.648,3.648,0,0,1,343.095,37Z" transform="translate(-290.535 -28.422)" fill="#d8ecfe"/>
        <g id="Grupo_1176877" data-name="Grupo 1176877" transform="translate(37.915 21.016)">
          <path id="Trazado_1035445" data-name="Trazado 1035445" d="M367.718,259.327a1.2,1.2,0,1,1-.035-2.034A1.392,1.392,0,0,1,367.718,259.327Z" transform="translate(-365.742 -251.921)" fill="#eaf6ff"/>
          <path id="Trazado_1035446" data-name="Trazado 1035446" d="M401.107,208.74A2,2,0,0,1,399.3,210.6a1.262,1.262,0,0,1-1.37-1.3,1.816,1.816,0,0,1,2.618-1.625A1.768,1.768,0,0,1,401.107,208.74Z" transform="translate(-394.533 -207.481)" fill="#eaf6ff"/>
          <path id="Trazado_1035447" data-name="Trazado 1035447" d="M401.765,210.875a1.815,1.815,0,0,1-3.605.3,1.62,1.62,0,0,0,2.594-1.921A1.812,1.812,0,0,1,401.765,210.875Z" transform="translate(-394.739 -209.063)" fill="#d8ecfe"/>
          <path id="Trazado_1035448" data-name="Trazado 1035448" d="M368.548,260.574A1.363,1.363,0,0,1,366.28,260a1.265,1.265,0,0,0,1.884-1.622,1.362,1.362,0,0,1,.384,2.194Z" transform="translate(-366.223 -253.008)" fill="#d8ecfe"/>
        </g>
      </g>
      <g id="Grupo_1176893" data-name="Grupo 1176893" transform="translate(6.605 7.501)">
        <path id="Trazado_1035449" data-name="Trazado 1035449" d="M12.5,433.688a10.184,10.184,0,0,0-5,2.528" transform="translate(-7.5 -388.708)" fill="none" stroke="#000" stroke-linecap="round" stroke-linejoin="round" stroke-miterlimit="10" stroke-width="1.5"/>
        <g id="Grupo_1176879" data-name="Grupo 1176879" transform="translate(5.046 36.878)">
          <path id="Trazado_1035450" data-name="Trazado 1035450" d="M105.533,379.652A28.564,28.564,0,0,0,101,381.268" transform="translate(-96.176 -377.253)" fill="none" stroke="#000" stroke-linecap="round" stroke-linejoin="round" stroke-miterlimit="10" stroke-width="1.5"/>
          <path id="Trazado_1035451" data-name="Trazado 1035451" d="M264.7,380.792a28.453,28.453,0,0,0-4.753-1.672" transform="translate(-238.35 -376.777)" fill="none" stroke="#000" stroke-linecap="round" stroke-linejoin="round" stroke-miterlimit="10" stroke-width="1.5"/>
          <path id="Trazado_1035452" data-name="Trazado 1035452" d="M259.947,356.921v4.194a2.332,2.332,0,0,0,1.892,2.292l2.141.409" transform="translate(-238.35 -356.921)" fill="none" stroke="#000" stroke-linecap="round" stroke-linejoin="round" stroke-miterlimit="10" stroke-width="1.5"/>
          <path id="Trazado_1035453" data-name="Trazado 1035453" d="M107.824,366.283l2.141-.409a2.332,2.332,0,0,0,1.892-2.292v-3.9" transform="translate(-102.282 -359.387)" fill="none" stroke="#000" stroke-linecap="round" stroke-linejoin="round" stroke-miterlimit="10" stroke-width="1.5"/>
          <line id="Línea_828" data-name="Línea 828" x1="0.569" y2="2.78" transform="translate(24.002 12.782)" fill="none" stroke="#000" stroke-linecap="round" stroke-linejoin="round" stroke-miterlimit="10" stroke-width="1.5"/>
          <path id="Trazado_1035454" data-name="Trazado 1035454" d="M297.255,406.512l3.74-7.64a13.633,13.633,0,0,0-4.808-3.907l-1.053,5.147" transform="translate(-269.823 -390.95)" fill="none" stroke="#000" stroke-linecap="round" stroke-linejoin="round" stroke-miterlimit="10" stroke-width="1.5"/>
          <path id="Trazado_1035455" data-name="Trazado 1035455" d="M59.042,406.512l-3.73-7.61a13.728,13.728,0,0,1,4.835-3.937l2.362,11.547" transform="translate(-55.312 -390.95)" fill="none" stroke="#000" stroke-linecap="round" stroke-linejoin="round" stroke-miterlimit="10" stroke-width="1.5"/>
          <path id="Trazado_1035456" data-name="Trazado 1035456" d="M128.111,418.377h0a10.793,10.793,0,0,0,15.806,0h0" transform="translate(-120.428 -411.891)" fill="none" stroke="#000" stroke-linecap="round" stroke-linejoin="round" stroke-miterlimit="10" stroke-width="1.5"/>
        </g>
        <g id="Grupo_1176882" data-name="Grupo 1176882" transform="translate(14.396 19.597)">
          <g id="Grupo_1176880" data-name="Grupo 1176880">
            <path id="Trazado_1035457" data-name="Trazado 1035457" d="M143.9,193.63a3.575,3.575,0,0,1,3.452,0" transform="translate(-143.9 -193.186)" fill="none" stroke="#000" stroke-linecap="round" stroke-linejoin="round" stroke-miterlimit="10" stroke-width="1.5"/>
            <path id="Trazado_1035458" data-name="Trazado 1035458" d="M229.375,193.63a3.575,3.575,0,0,1,3.452,0" transform="translate(-220.354 -193.186)" fill="none" stroke="#000" stroke-linecap="round" stroke-linejoin="round" stroke-miterlimit="10" stroke-width="1.5"/>
          </g>
          <g id="Grupo_1176881" data-name="Grupo 1176881" transform="translate(1.724 3.04)">
            <path id="Trazado_1035459" data-name="Trazado 1035459" d="M193.777,271.439a2.709,2.709,0,0,1-2.465,0" transform="translate(-188.032 -266.22)" fill="none" stroke="#000" stroke-linecap="round" stroke-linejoin="round" stroke-miterlimit="10" stroke-width="1.5"/>
            <line id="Línea_829" data-name="Línea 829" y2="1.869" transform="translate(9.026)" fill="none" stroke="#000" stroke-linecap="round" stroke-linejoin="round" stroke-miterlimit="10" stroke-width="1.5"/>
            <line id="Línea_830" data-name="Línea 830" y2="1.869" fill="none" stroke="#000" stroke-linecap="round" stroke-linejoin="round" stroke-miterlimit="10" stroke-width="1.5"/>
            <path id="Trazado_1035460" data-name="Trazado 1035460" d="M182.348,313a4.643,4.643,0,0,0,4.225,0" transform="translate(-180.014 -303.395)" fill="none" stroke="#000" stroke-linecap="round" stroke-linejoin="round" stroke-miterlimit="10" stroke-width="1.5"/>
          </g>
        </g>
        <g id="Grupo_1176883" data-name="Grupo 1176883" transform="translate(5.27 1.234)">
          <line id="Línea_831" data-name="Línea 831" y2="2.542" transform="translate(29.468 16.23)" fill="none" stroke="#000" stroke-linecap="round" stroke-linejoin="round" stroke-miterlimit="10" stroke-width="1.5"/>
          <path id="Trazado_1035461" data-name="Trazado 1035461" d="M102.976,23.84q.229-.252.469-.492a14.163,14.163,0,0,1,17.494-2.024" transform="translate(-98.169 -19.192)" fill="none" stroke="#000" stroke-linecap="round" stroke-linejoin="round" stroke-miterlimit="10" stroke-width="1.5"/>
          <path id="Trazado_1035462" data-name="Trazado 1035462" d="M68.086,103.166V98.584a14.145,14.145,0,0,1,1.569-6.5" transform="translate(-66.962 -84.394)" fill="none" stroke="#000" stroke-linecap="round" stroke-linejoin="round" stroke-miterlimit="10" stroke-width="1.5"/>
          <path id="Trazado_1035463" data-name="Trazado 1035463" d="M307.657,201.481a6.365,6.365,0,0,0,4.039-5.927h0a2.53,2.53,0,0,0-2.528-2.531H307.5" transform="translate(-281.104 -174.677)" fill="none" stroke="#000" stroke-linecap="round" stroke-linejoin="round" stroke-miterlimit="10" stroke-width="1.5"/>
          <path id="Trazado_1035464" data-name="Trazado 1035464" d="M61.634,193.022H59.962a2.53,2.53,0,0,0-2.528,2.531h0a6.365,6.365,0,0,0,4.039,5.927" transform="translate(-57.434 -174.676)" fill="none" stroke="#000" stroke-linecap="round" stroke-linejoin="round" stroke-miterlimit="10" stroke-width="1.5"/>
          <path id="Trazado_1035465" data-name="Trazado 1035465" d="M223.373,122.37l-.573.164a17.574,17.574,0,0,1-2.992.581" transform="translate(-202.671 -111.48)" fill="none" stroke="#000" stroke-linecap="round" stroke-linejoin="round" stroke-miterlimit="10" stroke-width="1.5"/>
          <path id="Trazado_1035466" data-name="Trazado 1035466" d="M97.232,165.172v3.7a7.325,7.325,0,0,0,2.364,5.281l4.384,3.817a4.669,4.669,0,0,0,3.077,1.157H109.6a4.67,4.67,0,0,0,3.077-1.157l4.354-3.815a7.022,7.022,0,0,0,2.395-5.283v-9.385a1.462,1.462,0,0,1-1.383-.99l-1.016-2.968" transform="translate(-93.032 -141.135)" fill="none" stroke="#000" stroke-linecap="round" stroke-linejoin="round" stroke-miterlimit="10" stroke-width="1.5"/>
          <path id="Trazado_1035467" data-name="Trazado 1035467" d="M106.482,122.422a17.577,17.577,0,0,1-2.981-.579l-.578-.166a2.089,2.089,0,0,0-2.55,1.335l-1.757,5.134a1.463,1.463,0,0,1-1.383.99v2" transform="translate(-93.033 -110.788)" fill="none" stroke="#000" stroke-linecap="round" stroke-linejoin="round" stroke-miterlimit="10" stroke-width="1.5"/>
        </g>
        <g id="Grupo_1176892" data-name="Grupo 1176892" transform="translate(24.451 0)">
          <ellipse id="Elipse_12287" data-name="Elipse 12287" cx="1.813" cy="1.815" rx="1.813" ry="1.815" transform="translate(16.768 21.052)" fill="none" stroke="#000" stroke-linecap="round" stroke-linejoin="round" stroke-miterlimit="10" stroke-width="1.5"/>
          <ellipse id="Elipse_12288" data-name="Elipse 12288" cx="1.361" cy="1.362" rx="1.361" ry="1.362" transform="translate(13.375 26.305)" fill="none" stroke="#000" stroke-linecap="round" stroke-linejoin="round" stroke-miterlimit="10" stroke-width="1.5"/>
          <path id="Trazado_1035468" data-name="Trazado 1035468" d="M239.178,14.357a3.651,3.651,0,0,1,5.075-3.167,5.714,5.714,0,0,1,8.037-2.133,5.408,5.408,0,0,1,7.884.31,3.65,3.65,0,0,1,4.535,3.268,3.656,3.656,0,0,1-1.183,7.113h-.009a4.524,4.524,0,0,1-6.711,3.688,5.15,5.15,0,0,1-9.192-.919,4.531,4.531,0,0,1-6.829-4.929A3.653,3.653,0,0,1,239.178,14.357Z" transform="translate(-239.173 -7.501)" fill="none" stroke="#000" stroke-linecap="round" stroke-linejoin="round" stroke-miterlimit="10" stroke-width="1.5"/>
          <g id="Grupo_1176885" data-name="Grupo 1176885" transform="translate(18.646 4.662)">
            <g id="Grupo_1176884" data-name="Grupo 1176884">
              <line id="Línea_832" data-name="Línea 832" y1="4.4" fill="none" stroke="#000" stroke-linecap="round" stroke-linejoin="round" stroke-miterlimit="10" stroke-width="1.5"/>
            </g>
          </g>
          <g id="Grupo_1176887" data-name="Grupo 1176887" transform="translate(18.646 11.665)">
            <g id="Grupo_1176886" data-name="Grupo 1176886">
              <line id="Línea_833" data-name="Línea 833" fill="none" stroke="#000" stroke-linecap="round" stroke-linejoin="round" stroke-miterlimit="10" stroke-width="1.5"/>
            </g>
          </g>
          <g id="Grupo_1176889" data-name="Grupo 1176889" transform="translate(14.002 11.665)">
            <g id="Grupo_1176888" data-name="Grupo 1176888">
              <line id="Línea_834" data-name="Línea 834" fill="none" stroke="#000" stroke-linecap="round" stroke-linejoin="round" stroke-miterlimit="10" stroke-width="1.5"/>
            </g>
          </g>
          <g id="Grupo_1176891" data-name="Grupo 1176891" transform="translate(9.357 11.665)">
            <g id="Grupo_1176890" data-name="Grupo 1176890">
              <line id="Línea_835" data-name="Línea 835" fill="none" stroke="#000" stroke-linecap="round" stroke-linejoin="round" stroke-miterlimit="10" stroke-width="1.5"/>
            </g>
          </g>
        </g>
        <path id="Trazado_1035469" data-name="Trazado 1035469" d="M352.176,432.342l.771.147a10.219,10.219,0,0,1,6.851,4.792l1.6,2.677" transform="translate(-315.798 -387.504)" fill="none" stroke="#000" stroke-linecap="round" stroke-linejoin="round" stroke-miterlimit="10" stroke-width="1.5"/>
      </g>
    </g>
  </g>
</svg>
