<svg xmlns="http://www.w3.org/2000/svg" xmlns:xlink="http://www.w3.org/1999/xlink" width="118" height="118" viewBox="0 0 118 118">
  <defs>
    <filter id="Trazado_982547" x="0" y="0" width="118" height="118" filterUnits="userSpaceOnUse">
      <feOffset dy="3" input="SourceAlpha"/>
      <feGaussianBlur stdDeviation="3" result="blur"/>
      <feFlood flood-opacity="0.161"/>
      <feComposite operator="in" in2="blur"/>
      <feComposite in="SourceGraphic"/>
    </filter>
  </defs>
  <g id="Grupo_1176858" data-name="Grupo 1176858" transform="translate(-899 -9658.328)">
    <g id="Grupo_1176358" data-name="Grupo 1176358" transform="translate(908 9664.328)">
      <g id="Grupo_1172970" data-name="Grupo 1172970" transform="translate(0)">
        <g id="Grupo_1171971" data-name="Grupo 1171971" transform="translate(0)">
          <g id="Grupo_1167337" data-name="Grupo 1167337">
            <g id="Grupo_1166720" data-name="Grupo 1166720">
              <g id="Grupo_1164305" data-name="Grupo 1164305">
                <g id="Grupo_1163948" data-name="Grupo 1163948">
                  <g id="Grupo_1158168" data-name="Grupo 1158168">
                    <g id="Grupo_1152576" data-name="Grupo 1152576">
                      <g id="Grupo_1148633" data-name="Grupo 1148633">
                        <g id="Grupo_1148525" data-name="Grupo 1148525">
                          <g transform="matrix(1, 0, 0, 1, -9, -6)" filter="url(#Trazado_982547)">
                            <g id="Trazado_982547-2" data-name="Trazado 982547" transform="translate(9 6)" fill="#f2f7e5">
                              <path d="M 50 98.5 C 43.45188522338867 98.5 37.10042953491211 97.21787261962891 31.12207221984863 94.68923950195312 C 25.34691429138184 92.24655914306641 20.15995788574219 88.74932861328125 15.70532894134521 84.29468536376953 C 11.2506856918335 79.84004211425781 7.753442764282227 74.65309906005859 5.310757160186768 68.87794494628906 C 2.782128572463989 62.89958572387695 1.5 56.54813003540039 1.5 50 C 1.5 43.45188522338867 2.782128572463989 37.10042953491211 5.310757160186768 31.12207221984863 C 7.753442764282227 25.34691429138184 11.2506856918335 20.15997123718262 15.70532894134521 15.70532894134521 C 20.15997123718262 11.2506856918335 25.34691429138184 7.753442764282227 31.12207221984863 5.310757160186768 C 37.10042953491211 2.782128572463989 43.45188522338867 1.5 50 1.5 C 56.54813003540039 1.5 62.89958572387695 2.782128572463989 68.87794494628906 5.310757160186768 C 74.65309906005859 7.753442764282227 79.84004211425781 11.2506856918335 84.29468536376953 15.70532894134521 C 88.74932861328125 20.15995788574219 92.24655914306641 25.34691429138184 94.68923950195312 31.12207221984863 C 97.21787261962891 37.10042953491211 98.5 43.45188522338867 98.5 50 C 98.5 56.54813003540039 97.21787261962891 62.89958572387695 94.68923950195312 68.87794494628906 C 92.24655914306641 74.65309906005859 88.74932861328125 79.84004211425781 84.29468536376953 84.29468536376953 C 79.84004211425781 88.74932861328125 74.65309906005859 92.24655914306641 68.87794494628906 94.68923950195312 C 62.89958572387695 97.21787261962891 56.54813003540039 98.5 50 98.5 Z" stroke="none"/>
                              <path d="M 50 3 C 43.65372467041016 3 37.49886322021484 4.242263793945312 31.70639801025391 6.6922607421875 C 26.11003112792969 9.059326171875 21.08335113525391 12.44861602783203 16.76598358154297 16.76598358154297 C 12.44861602783203 21.08335113525391 9.059326171875 26.11003112792969 6.6922607421875 31.70639801025391 C 4.242263793945312 37.49886322021484 3 43.65372467041016 3 50 C 3 56.34629058837891 4.242263793945312 62.50115203857422 6.6922607421875 68.29361724853516 C 9.059326171875 73.88998413085938 12.44861602783203 78.91666412353516 16.76598358154297 83.23403167724609 C 21.08335113525391 87.55138397216797 26.11003112792969 90.940673828125 31.70639801025391 93.3077392578125 C 37.49886322021484 95.75773620605469 43.65372467041016 97 50 97 C 56.34629058837891 97 62.50115203857422 95.75773620605469 68.29361724853516 93.3077392578125 C 73.88998413085938 90.940673828125 78.91666412353516 87.55138397216797 83.23403167724609 83.23403167724609 C 87.55138397216797 78.91666412353516 90.940673828125 73.88998413085938 93.3077392578125 68.29361724853516 C 95.75773620605469 62.50115203857422 97 56.34629058837891 97 50 C 97 43.65372467041016 95.75773620605469 37.49886322021484 93.3077392578125 31.70639801025391 C 90.940673828125 26.11003112792969 87.55138397216797 21.08335113525391 83.23403167724609 16.76598358154297 C 78.91666412353516 12.44861602783203 73.88998413085938 9.059326171875 68.29361724853516 6.6922607421875 C 62.50115203857422 4.242263793945312 56.34629058837891 3 50 3 M 50 0 C 77.6142578125 0 100 22.38577270507812 100 50 C 100 77.6142578125 77.6142578125 100 50 100 C 22.38577270507812 100 0 77.6142578125 0 50 C 0 22.38577270507812 22.38577270507812 0 50 0 Z" stroke="none" fill="#86b60c"/>
                            </g>
                          </g>
                        </g>
                      </g>
                    </g>
                  </g>
                </g>
              </g>
            </g>
          </g>
        </g>
      </g>
    </g>
    <g id="reliability_16773511" transform="translate(915.794 9673.061)">
      <g id="Grupo_1176857" data-name="Grupo 1176857" transform="translate(9.145 7.936)">
        <g id="Grupo_1176846" data-name="Grupo 1176846" transform="translate(0 0)">
          <path id="Trazado_1035392" data-name="Trazado 1035392" d="M53.308,18.966a26.715,26.715,0,0,1,7.832,3.246l5.089-2.258,6,6-2.258,5.089a26.716,26.716,0,0,1,3.246,7.832l5.193,2v8.483l-5.193,2a26.735,26.735,0,0,1-3.246,7.828l2.258,5.089-6,6-5.089-2.261a26.723,26.723,0,0,1-7.832,3.25l-2,5.189H42.826l-2-5.193A26.737,26.737,0,0,1,33,68.006l-5.089,2.261-6-6,2.261-5.085a26.8,26.8,0,0,1-3.249-7.832l-5.189-2V40.869l5.189-2a26.721,26.721,0,0,1,3.249-7.832L21.911,25.95l6-6L33,22.212a26.8,26.8,0,0,1,7.832-3.246l2-5.193h8.483Z" transform="translate(-15.734 -13.773)" fill="#ffe177" fill-rule="evenodd"/>
          <path id="Trazado_1035393" data-name="Trazado 1035393" d="M135.734,20.713l1.71-.759,6,6-2.258,5.089a26.716,26.716,0,0,1,3.246,7.832l5.193,2v8.483l-5.193,2a26.734,26.734,0,0,1-3.246,7.828l2.258,5.089-6,6-1.71-.759,5.241-5.241-2.261-5.089a26.735,26.735,0,0,0,3.246-7.828l5.193-2V40.869l-5.193-2a26.716,26.716,0,0,0-3.246-7.832l2.261-5.089Zm-37.366,0,.759-.759,5.085,2.258c-.359.2-.714.407-1.062.626Zm26.156-1.747a26.715,26.715,0,0,1,7.832,3.246l-1.4.626a34.951,34.951,0,0,0-8.9-3.871l-2-5.193h2.469Zm-20.308,49.04-5.089,2.261-.759-.759,4.782-2.124Q103.672,67.706,104.216,68.006Zm28.14,0a26.723,26.723,0,0,1-7.832,3.25l-2,5.189h-2.469l2-5.189a35.03,35.03,0,0,0,8.9-3.871Z" transform="translate(-86.95 -13.773)" fill="#ffd064" fill-rule="evenodd"/>
          <path id="Trazado_1035394" data-name="Trazado 1035394" d="M116.584,94.435A20.19,20.19,0,1,1,96.4,114.627,20.192,20.192,0,0,1,116.584,94.435Z" transform="translate(-85.25 -83.289)" fill="#eceff1" fill-rule="evenodd"/>
          <path id="Trazado_1035395" data-name="Trazado 1035395" d="M116.584,94.435c.459,0,.915.016,1.37.049a20.189,20.189,0,0,0,0,40.286c-.455.029-.911.045-1.37.045a20.19,20.19,0,0,1,0-40.38Z" transform="translate(-85.25 -83.289)" fill="#d1d1d6" fill-rule="evenodd"/>
        </g>
        <g id="Grupo_1176852" data-name="Grupo 1176852" transform="translate(17.534 18.263)">
          <g id="Grupo_1176850" data-name="Grupo 1176850">
            <g id="Grupo_1176847" data-name="Grupo 1176847" transform="translate(10.43 3.768)">
              <path id="Trazado_1035396" data-name="Trazado 1035396" d="M228.028,173.218l2.15,2.139-9.915,9.863-2.15-2.139Z" transform="translate(-218.113 -173.218)" fill="#9facba" fill-rule="evenodd"/>
              <path id="Trazado_1035397" data-name="Trazado 1035397" d="M236.829,173.852l.637-.634,2.15,2.139L229.7,185.22l-.637-.634,9.278-9.229Z" transform="translate(-227.551 -173.218)" fill="#8d9ca8" fill-rule="evenodd"/>
            </g>
            <path id="Trazado_1035398" data-name="Trazado 1035398" d="M242.809,147.747a9.237,9.237,0,0,0-1.36-.941c-2.57-1.3-5.164-1.138-6.889.578a13.639,13.639,0,0,1,5.605,3.377l6.106,6.073,2.837-2.822Z" transform="translate(-221.856 -145.947)" fill="#9facba" fill-rule="evenodd"/>
            <path id="Trazado_1035399" data-name="Trazado 1035399" d="M235.722,150.123a13.8,13.8,0,0,1,4.442,2.97l6.106,6.073,2.2-2.188.637.634-2.837,2.822-6.106-6.073a13.639,13.639,0,0,0-5.605-3.377A4.9,4.9,0,0,1,235.722,150.123Z" transform="translate(-221.856 -149.546)" fill="#8d9ca8" fill-rule="evenodd"/>
            <g id="Grupo_1176848" data-name="Grupo 1176848" transform="translate(0 11.831)">
              <path id="Trazado_1035400" data-name="Trazado 1035400" d="M153.791,231.984a1.43,1.43,0,0,0-2.015,0l-8.658,8.611a1.715,1.715,0,0,0-.489,1.327,2.154,2.154,0,0,0,.643,1.39l1.939,1.928a2.174,2.174,0,0,0,1.4.639,1.735,1.735,0,0,0,1.334-.486l8.657-8.612a1.412,1.412,0,0,0,0-2Z" transform="translate(-142.627 -231.569)" fill="#ecba78" fill-rule="evenodd"/>
              <path id="Trazado_1035401" data-name="Trazado 1035401" d="M142.883,261.228a2.248,2.248,0,0,0,.39.519l1.939,1.928a2.174,2.174,0,0,0,1.4.639,1.735,1.735,0,0,0,1.334-.486l8.657-8.612.049-.052a1.412,1.412,0,0,1-.049,1.953l-8.657,8.612a1.735,1.735,0,0,1-1.334.486,2.174,2.174,0,0,1-1.4-.639l-1.939-1.928a2.153,2.153,0,0,1-.643-1.39A1.758,1.758,0,0,1,142.883,261.228Z" transform="translate(-142.627 -251.905)" fill="#e3a76f" fill-rule="evenodd"/>
            </g>
            <g id="Grupo_1176849" data-name="Grupo 1176849" transform="translate(22.202 5.867)">
              <path id="Trazado_1035402" data-name="Trazado 1035402" d="M307.875,188.5a.306.306,0,0,1,.43,0l1.72,1.711a.3.3,0,0,1,0,.428l-4.484,4.46a.305.305,0,0,1-.43,0l-1.72-1.711a.3.3,0,0,1,0-.428Z" transform="translate(-303.303 -188.409)" fill="#9facba" fill-rule="evenodd"/>
              <path id="Trazado_1035403" data-name="Trazado 1035403" d="M316.106,188.918l.422-.42a.306.306,0,0,1,.43,0l1.72,1.711a.3.3,0,0,1,0,.428L314.2,195.1a.305.305,0,0,1-.43,0l-.422-.42,4.061-4.04a.3.3,0,0,0,0-.428Z" transform="translate(-311.956 -188.409)" fill="#8d9ca8" fill-rule="evenodd"/>
            </g>
          </g>
          <g id="Grupo_1176851" data-name="Grupo 1176851" transform="translate(0.494 1.121)">
            <path id="Trazado_1035404" data-name="Trazado 1035404" d="M164.459,169.443a5.119,5.119,0,0,1,5.533,1.11,5.041,5.041,0,0,1,1.467,4.1.564.564,0,0,1-.963.338l-2.888-2.873-2.571.687-.685,2.552,2.888,2.873a.565.565,0,0,1-.345.963,5.1,5.1,0,0,1-4.117-1.459,5.047,5.047,0,0,1-1.11-5.509l-8.431-8.386a5.125,5.125,0,0,1-5.544-1.11,5.052,5.052,0,0,1-1.467-4.1.572.572,0,0,1,.968-.344l2.888,2.873,2.565-.682.691-2.557-2.888-2.873a.562.562,0,0,1,.34-.958,5.086,5.086,0,0,1,5.238,6.968Z" transform="translate(-146.2 -154.063)" fill="#9facba" fill-rule="evenodd"/>
            <path id="Trazado_1035405" data-name="Trazado 1035405" d="M164.512,169.443a5.119,5.119,0,0,1,5.533,1.11,5.041,5.041,0,0,1,1.467,4.1.565.565,0,0,1-.776.468,5.029,5.029,0,0,0-1.5-3.763,5.119,5.119,0,0,0-5.533-1.11l-8.431-8.386a5.084,5.084,0,0,0-4.9-6.99.564.564,0,0,1,.464-.777,5.086,5.086,0,0,1,5.238,6.968Zm.578,3.357-.685,2.552,2.888,2.873a.565.565,0,0,1-.345.963c-.113.011-.221.017-.328.023a.653.653,0,0,0-.13-.186l-2.888-2.873.855-3.183Zm-18.829-13.839a3.264,3.264,0,0,1,.017-.332.572.572,0,0,1,.968-.344l2.888,2.873,2.565-.682-.17.631-3.2.85-2.888-2.873A.609.609,0,0,0,146.261,158.961Z" transform="translate(-146.253 -154.063)" fill="#8d9ca8" fill-rule="evenodd"/>
          </g>
        </g>
        <g id="Grupo_1176856" data-name="Grupo 1176856" transform="translate(37.942 39.202)">
          <g id="Grupo_1176854" data-name="Grupo 1176854" transform="translate(4.802)">
            <path id="Trazado_1035406" data-name="Trazado 1035406" d="M343.259,319.9a2.174,2.174,0,1,1,0,4.348H333.7c-5.442,0-3.642-2.777-8.626-2.287v-12.87l1.464-.015a2.687,2.687,0,0,0,2.349-1.209c1.361-1.969,1.233-1.938,3.014-3.1,2.841-1.858,2.813-2.576,3.895-7.276,4.337,1.065,2.433,7.782,1.063,9.366h8.228a2.174,2.174,0,1,1,0,4.348h1.189a2.174,2.174,0,1,1,0,4.348h-.747a2.175,2.175,0,0,1,0,4.35Z" transform="translate(-325.079 -297.485)" fill="#f6dccd" fill-rule="evenodd"/>
            <g id="Grupo_1176853" data-name="Grupo 1176853" transform="translate(0 11.475)">
              <path id="Trazado_1035407" data-name="Trazado 1035407" d="M459.906,380.533c-.392.466-.853.446-1.5.46h-1.7a.926.926,0,1,0,0,1.851h.391a2.41,2.41,0,0,0,2.806-2.166C459.906,380.67,459.906,380.542,459.906,380.533Z" transform="translate(-437.717 -380.533)" fill="#f1cbbc" fill-rule="evenodd"/>
              <path id="Trazado_1035408" data-name="Trazado 1035408" d="M466.032,412.078c0,.009,0,.137,0,.146a2.41,2.41,0,0,1-2.806,2.166h-.788a.926.926,0,1,1,0-1.851h2.092C465.178,412.524,465.64,412.544,466.032,412.078Z" transform="translate(-442.654 -407.719)" fill="#f1cbbc" fill-rule="evenodd"/>
              <path id="Trazado_1035409" data-name="Trazado 1035409" d="M458.1,443.583c0,.009,0,.137,0,.146a2.41,2.41,0,0,1-2.806,2.166H454.1a.926.926,0,1,1,0-1.851H456.6C457.246,444.029,457.707,444.049,458.1,443.583Z" transform="translate(-435.473 -434.871)" fill="#f1cbbc" fill-rule="evenodd"/>
              <path id="Trazado_1035410" data-name="Trazado 1035410" d="M344.819,464.482a2.172,2.172,0,0,1-1.56,3.685H333.7c-5.442,0-3.642-2.777-8.626-2.287v-1.13c4.542-.233,2.825,2.33,8.054,2.33h9.554a2.175,2.175,0,0,0,2.132-2.6Z" transform="translate(-325.079 -452.882)" fill="#f1cbbc" fill-rule="evenodd"/>
            </g>
          </g>
          <g id="Grupo_1176855" data-name="Grupo 1176855" transform="translate(0 9.79)">
            <path id="Trazado_1035411" data-name="Trazado 1035411" d="M291.234,368.337h3.672a.908.908,0,0,1,.906.906V385.1a.908.908,0,0,1-.906.906h-3.672a.91.91,0,0,1-.906-.906V369.243A.909.909,0,0,1,291.234,368.337Z" transform="translate(-290.328 -368.337)" fill="#d1d1d6" fill-rule="evenodd"/>
            <path id="Trazado_1035412" data-name="Trazado 1035412" d="M294.961,368.346a.909.909,0,0,1,.859.9V385.11a.908.908,0,0,1-.906.906h-3.672a.91.91,0,0,1-.9-.859h3.719a.908.908,0,0,0,.906-.906V368.393C294.962,368.377,294.961,368.362,294.961,368.346Z" transform="translate(-290.336 -368.345)" fill="#b1b1b5" fill-rule="evenodd"/>
          </g>
        </g>
      </g>
      <path id="Trazado_1035413" data-name="Trazado 1035413" d="M46.675,70.64,46.2,71.871a1.105,1.105,0,0,1-1.032.708H36.6a1.105,1.105,0,0,1-1.032-.708l-1.813-4.712a28.246,28.246,0,0,1-7.177-2.972l-4.622,2.047a1.106,1.106,0,0,1-1.229-.229l-6.061-6.061a1.105,1.105,0,0,1-.228-1.231L16.488,54.1a28.228,28.228,0,0,1-2.977-7.169L8.8,45.112a1.106,1.106,0,0,1-.708-1.032V35.507A1.106,1.106,0,0,1,8.8,34.476l4.714-1.814a28.257,28.257,0,0,1,2.978-7.177l-2.054-4.62a1.106,1.106,0,0,1,.228-1.231l6.061-6.061a1.105,1.105,0,0,1,1.231-.228l4.62,2.054a28.061,28.061,0,0,1,7.169-2.971l1.822-4.722A1.106,1.106,0,0,1,36.6,7h8.573a1.106,1.106,0,0,1,1.032.709l1.814,4.72A28.056,28.056,0,0,1,55.183,15.4l4.62-2.054a1.106,1.106,0,0,1,1.231.228l6.061,6.061a1.106,1.106,0,0,1,.229,1.229l-2.047,4.62a28.011,28.011,0,0,1,2.971,7.178l4.712,1.813a1.105,1.105,0,0,1,.708,1.032V44.08a1.106,1.106,0,0,1-.708,1.032l-4.712,1.814a28.063,28.063,0,0,1-1.636,4.6,11.493,11.493,0,0,1-.832,4.183h6.164a3.232,3.232,0,0,1,3.224,3.222,3.191,3.191,0,0,1-.371,1.5,3.216,3.216,0,0,1,.3,5.261,3.2,3.2,0,0,1,.495,1.711,3.236,3.236,0,0,1-2.416,3.121,3.2,3.2,0,0,1,.2,1.114,3.232,3.232,0,0,1-3.222,3.222h-9.3A17.262,17.262,0,0,1,54.226,73.4v.151a1.993,1.993,0,0,1-1.988,1.988H48.663a2,2,0,0,1-1.988-1.988ZM65.582,48.13q.381-1.125.657-2.285a1.106,1.106,0,0,1,.678-.776l4.541-1.748V36.267l-4.541-1.748a1.106,1.106,0,0,1-.679-.777,25.807,25.807,0,0,0-3.146-7.6,1.105,1.105,0,0,1-.069-1.027l1.972-4.452-4.987-4.987-4.452,1.979a1.105,1.105,0,0,1-1.029-.069,25.857,25.857,0,0,0-7.593-3.146,1.105,1.105,0,0,1-.776-.679L44.41,9.211H37.355L35.6,13.761a1.106,1.106,0,0,1-.776.677,25.856,25.856,0,0,0-7.593,3.146,1.105,1.105,0,0,1-1.029.069L21.75,15.675l-4.987,4.987,1.979,4.452a1.105,1.105,0,0,1-.069,1.029,26.062,26.062,0,0,0-3.156,7.6,1.105,1.105,0,0,1-.678.774L10.3,36.267v7.055l4.541,1.748a1.106,1.106,0,0,1,.678.773,26.008,26.008,0,0,0,3.155,7.594,1.105,1.105,0,0,1,.07,1.031l-1.979,4.452,4.988,4.988L26.2,61.934A1.105,1.105,0,0,1,27.228,62a26.045,26.045,0,0,0,7.6,3.148,1.105,1.105,0,0,1,.777.679l1.748,4.541H44.41l1.748-4.541a1.105,1.105,0,0,1,.517-.581V60.228a21.264,21.264,0,1,1,7-3.489,1.984,1.984,0,0,1,.53,1.1,1.532,1.532,0,0,0,1.052-.673c1.459-2.111,1.33-2.069,3.239-3.317,2.484-1.625,2.374-2.3,3.32-6.408a1.105,1.105,0,0,1,1.341-.826,4.224,4.224,0,0,1,2.422,1.512ZM54.226,71.062c1.883.654,3.625,1.58,6.629,1.58h9.3a1.011,1.011,0,0,0,0-2.023H66.42a1.105,1.105,0,0,1,0-2.211h5.954a1.012,1.012,0,0,0,0-2.024H66.42a1.105,1.105,0,0,1,0-2.211H73.1a1.011,1.011,0,1,0,0-2.023H66.42a1.105,1.105,0,0,1,0-2.211h5.523a1.011,1.011,0,1,0,0-2.023H63.932a1.105,1.105,0,0,1-.836-1.829,7.994,7.994,0,0,0,1.275-5.061,2.792,2.792,0,0,0-.715-1.705c-.884,3.818-1.2,4.584-3.947,6.38h0c-1.559,1.019-1.439,1-2.63,2.723h0a3.6,3.6,0,0,1-2.852,1.64ZM46.684,57.916a2,2,0,0,1,1.979-1.8h1.989a18.938,18.938,0,1,0-3.967,1.8Zm-12.3-19.072-.413-.413a6.5,6.5,0,0,1-7.927-8.284,1.106,1.106,0,0,1,1.832-.438l3.383,3.383,1.486-.4.4-1.486-3.383-3.383A1.105,1.105,0,0,1,30.2,25.99a6.5,6.5,0,0,1,8.282,7.926l1.711,1.711,4.076-4.076a12.045,12.045,0,0,0-4.53-2.59,1.105,1.105,0,0,1-.473-1.843c2-2,4.994-2.282,7.97-.768a10.9,10.9,0,0,1,1.6,1.122l4.071,4.071.225-.225a1.106,1.106,0,0,1,1.563,0L56.785,33.4a1.106,1.106,0,0,1,0,1.563l-4.769,4.769a1.105,1.105,0,0,1-1.563,0L48.366,37.65a1.106,1.106,0,0,1,0-1.563l.227-.227-.665-.665-4.083,4.083,1.864,1.864a6.508,6.508,0,0,1,7.931,8.286,1.105,1.105,0,0,1-1.833.439l-3.384-3.384-1.489.4-.4,1.489,3.384,3.384a1.105,1.105,0,0,1-.438,1.832,6.5,6.5,0,0,1-8.289-7.931l-.566-.566-7.34,7.34a2.777,2.777,0,0,1-2.138.8,3.218,3.218,0,0,1-2.076-.946L27.193,50.4a3.218,3.218,0,0,1-.946-2.076,2.778,2.778,0,0,1,.8-2.138Zm7.375-1.654.524.524,4.083-4.083-.524-.524Zm-2.693,6.335-3.119-3.118-7.34,7.34a.58.58,0,0,0-.152.451.994.994,0,0,0,.3.637l1.882,1.882a.994.994,0,0,0,.637.3.58.58,0,0,0,.45-.152Zm12.282-10.42-4.071-4.071a7.048,7.048,0,0,0-1.04-.715,5.417,5.417,0,0,0-3.681-.606,14.641,14.641,0,0,1,3.729,2.709L50.156,34.3Zm2.57.557-3.206,3.206.524.524,3.206-3.206ZM35.047,36.381l8.2,8.2a1.105,1.105,0,0,1,.242,1.2,4.291,4.291,0,0,0,3.18,5.849l-2.143-2.143a1.105,1.105,0,0,1-.286-1.067l.727-2.723a1.105,1.105,0,0,1,.783-.783l2.723-.727a1.106,1.106,0,0,1,1.067.286l2.136,2.136a4.3,4.3,0,0,0-5.844-3.173,1.105,1.105,0,0,1-1.2-.243l-8.2-8.2a1.105,1.105,0,0,1-.241-1.2,4.291,4.291,0,0,0-3.17-5.837l2.138,2.138a1.105,1.105,0,0,1,.286,1.069l-.732,2.718a1.105,1.105,0,0,1-.78.78l-2.718.732a1.105,1.105,0,0,1-1.069-.286L28,32.963a4.286,4.286,0,0,0,5.842,3.177,1.106,1.106,0,0,1,1.2.241ZM48.886,58.329v15h3.129v-15Z" fill-rule="evenodd"/>
    </g>
  </g>
</svg>
