<svg xmlns="http://www.w3.org/2000/svg" xmlns:xlink="http://www.w3.org/1999/xlink" width="93.934" height="93.934" viewBox="0 0 93.934 93.934">
  <defs>
    <filter id="Trazado_982547" x="0" y="0" width="93.934" height="93.934" filterUnits="userSpaceOnUse">
      <feOffset dy="3" input="SourceAlpha"/>
      <feGaussianBlur stdDeviation="3" result="blur"/>
      <feFlood flood-opacity="0.161"/>
      <feComposite operator="in" in2="blur"/>
      <feComposite in="SourceGraphic"/>
    </filter>
  </defs>
  <g id="Grupo_1176362" data-name="Grupo 1176362" transform="translate(-189.033 -1986)">
    <g id="Grupo_1172970" data-name="Grupo 1172970" transform="translate(-1 -9042)">
      <g id="Grupo_1171971" data-name="Grupo 1171971" transform="translate(199.033 11034)">
        <g id="Grupo_1167337" data-name="Grupo 1167337" transform="translate(0)">
          <g id="Grupo_1166720" data-name="Grupo 1166720">
            <g id="Grupo_1164305" data-name="Grupo 1164305">
              <g id="Grupo_1163948" data-name="Grupo 1163948">
                <g id="Grupo_1158168" data-name="Grupo 1158168">
                  <g id="Grupo_1152576" data-name="Grupo 1152576">
                    <g id="Grupo_1148633" data-name="Grupo 1148633">
                      <g id="Grupo_1148525" data-name="Grupo 1148525">
                        <g transform="matrix(1, 0, 0, 1, -9, -6)" filter="url(#Trazado_982547)">
                          <g id="Trazado_982547-2" data-name="Trazado 982547" transform="translate(9 6)" fill="#e9f9fd">
                            <path d="M 37.966796875 74.43359375 C 33.04315185546875 74.43359375 28.26757431030273 73.46962738037109 23.77274131774902 71.56847381591797 C 19.43047523498535 69.73184967041016 15.53040790557861 67.10224914550781 12.18087482452393 63.75271987915039 C 8.831341743469238 60.4031867980957 6.201741218566895 56.50312042236328 4.365118980407715 52.16086196899414 C 2.463963508605957 47.66601943969727 1.499996900558472 42.89044189453125 1.499996900558472 37.966796875 C 1.499996900558472 33.04315185546875 2.463963508605957 28.26757431030273 4.365118980407715 23.77274131774902 C 6.201741218566895 19.43047523498535 8.831341743469238 15.53040790557861 12.18087482452393 12.18087482452393 C 15.53040790557861 8.831341743469238 19.43047523498535 6.201741218566895 23.77274131774902 4.365118980407715 C 28.26757431030273 2.463963508605957 33.04315185546875 1.499996900558472 37.966796875 1.499996900558472 C 42.89044189453125 1.499996900558472 47.66601943969727 2.463963508605957 52.16086196899414 4.365118980407715 C 56.50312042236328 6.201741218566895 60.4031867980957 8.831341743469238 63.75271987915039 12.18087482452393 C 67.10224914550781 15.53040790557861 69.73184967041016 19.43047523498535 71.56847381591797 23.77274131774902 C 73.46962738037109 28.26757431030273 74.43359375 33.04315185546875 74.43359375 37.966796875 C 74.43359375 42.89044189453125 73.46962738037109 47.66601943969727 71.56847381591797 52.16086196899414 C 69.73184967041016 56.50313186645508 67.10224914550781 60.4031867980957 63.75271987915039 63.75271987915039 C 60.4031867980957 67.10224914550781 56.50313186645508 69.73184967041016 52.16086196899414 71.56847381591797 C 47.66601943969727 73.46962738037109 42.89044189453125 74.43359375 37.966796875 74.43359375 Z" stroke="none"/>
                            <path d="M 37.966796875 3 C 33.2449836730957 3 28.66600799560547 3.924095153808594 24.35705947875977 5.746635437011719 C 20.19359588623047 7.507637023925781 16.45379638671875 10.02928161621094 13.24153518676758 13.24153518676758 C 10.02927398681641 16.45379638671875 7.507621765136719 20.19359588623047 5.746635437011719 24.35705947875977 C 3.924095153808594 28.66600799560547 3 33.2449836730957 3 37.966796875 C 3 42.6886100769043 3.924095153808594 47.26758575439453 5.746635437011719 51.57653427124023 C 7.507621765136719 55.73999786376953 10.02927398681641 59.47979736328125 13.24153518676758 62.69205856323242 C 16.45379638671875 65.90431976318359 20.19359588623047 68.42597198486328 24.35705947875977 70.18695831298828 C 28.66600799560547 72.00949859619141 33.2449836730957 72.93359375 37.966796875 72.93359375 C 42.6886100769043 72.93359375 47.26758575439453 72.00949859619141 51.57653427124023 70.18695831298828 C 55.73999786376953 68.42597198486328 59.47979736328125 65.90431976318359 62.69205856323242 62.69205856323242 C 65.90431976318359 59.47979736328125 68.42597198486328 55.73999786376953 70.18695831298828 51.57653427124023 C 72.00949859619141 47.26758575439453 72.93359375 42.6886100769043 72.93359375 37.966796875 C 72.93359375 33.2449836730957 72.00949859619141 28.66600799560547 70.18695831298828 24.35705947875977 C 68.42597198486328 20.19359588623047 65.90431976318359 16.45379638671875 62.69205856323242 13.24153518676758 C 59.47979736328125 10.02928161621094 55.73999786376953 7.507637023925781 51.57653427124023 5.746635437011719 C 47.26758575439453 3.924095153808594 42.6886100769043 3 37.966796875 3 M 37.966796875 0 C 58.93528366088867 0 75.93359375 16.99832153320312 75.93359375 37.966796875 C 75.93359375 58.93528366088867 58.93528366088867 75.93359375 37.966796875 75.93359375 C 16.99831008911133 75.93359375 0 58.93528366088867 0 37.966796875 C 0 16.99832153320312 16.99831008911133 0 37.966796875 0 Z" stroke="none" fill="#1d7083"/>
                          </g>
                        </g>
                      </g>
                    </g>
                  </g>
                </g>
              </g>
            </g>
          </g>
        </g>
      </g>
    </g>
    <g id="classrom_17314047" transform="translate(211.941 1982.47)">
      <path id="Trazado_1035365" data-name="Trazado 1035365" d="M46.566,41.865c.248-.27.491-.544.745-.809.141-.147.27-.344.527-.242s.255.329.255.556q0,6.968,0,13.936c0,.861.013,1.721.019,2.582,0,.492-.066.559-.568.563-1.967.015-3.942-.072-5.9.069-2.705.195-5.407.046-8.11.116-.089,0-.208-.041-.261.043-.073.115.056.187.114.263,1.384,1.843,2.777,3.679,4.156,5.525.446.6.869,1.21,1.285,1.827.4.6.266.956-.441,1.139a12.692,12.692,0,0,1-2.879.27,5.143,5.143,0,0,1-1.318-.115,1.26,1.26,0,0,1-.753-.514c-1.9-2.549-3.88-5.034-5.861-7.519-.2-.255-.4-.51-.6-.771-.048-.065-.069-.159-.175-.124s-.082.13-.082.208c0,.384,0,.768.006,1.153q.022,3.073.046,6.147c0,.43.053.86.047,1.29a1.276,1.276,0,0,1-1.077,1.415,5.68,5.68,0,0,1-3.4-.028,1.222,1.222,0,0,1-.915-1.069,7.875,7.875,0,0,1,.014-1.322q0-3.685,0-7.37c0-.139.089-.347-.095-.4s-.175.179-.255.279c-.926,1.167-1.855,2.332-2.764,3.512-1.178,1.531-2.349,3.068-3.5,4.622a1.411,1.411,0,0,1-1,.616,12.727,12.727,0,0,1-4.027-.171.943.943,0,0,1-.166-.055c-.5-.2-.62-.534-.311-.987.623-.913,1.247-1.826,1.9-2.717,1.162-1.587,2.347-3.157,3.519-4.736.064-.087.21-.172.137-.29-.064-.1-.215-.048-.327-.047-2.27.017-4.545.149-6.807.027-2.427-.132-4.85-.043-7.274-.1-.33-.008-.445-.163-.445-.481,0-.651.033-1.3-.025-1.954a.338.338,0,0,1,.433-.395,6.732,6.732,0,0,0,.764.045c.282.028.353-.1.352-.364-.009-1.77,0-3.539,0-5.309V30.9c0-.567.051-.606.622-.5a1.579,1.579,0,0,0,.278.012H20.262c.472,0,.465,0,.49-.47.036-.674.052-1.351.13-2.02.2-1.7.624-1.866,1.946-1.985a12.125,12.125,0,0,1,2.44.009c1.2.133,1.517.356,1.742,1.765.115.721.122,1.461.167,2.192.029.474.021.476.489.472q8.136-.064,16.272-.135a9.846,9.846,0,0,0,2.084-.083c.269-.06.357.149.359.393.007.8.02,1.607.026,2.41q.034,4.244.064,8.487c0,.126,0,.253,0,.379Z" transform="translate(0)" fill="#1d4976"/>
      <path id="Trazado_1035366" data-name="Trazado 1035366" d="M329.164,190.546c.634-.758,1.226-1.411,1.755-2.113.683-.906.6-1.138-.542-1.5a3.022,3.022,0,0,0-1.419-.043c-.185.032-.234-.029-.231-.191,0-.081,0-.163,0-.244v-13.55c0-.479,0-.48.469-.48q7.314,0,14.629-.007c.332,0,.449.082.432.425-.028.569-.008,1.14-.006,1.711,0,.066-.023.15.054.186s.132-.035.176-.081c.207-.219.4-.446.611-.666a1.878,1.878,0,0,1,.3-.284.286.286,0,0,1,.464.209,2.329,2.329,0,0,1,.007.349V188c0,.717-.017,1.435.007,2.151.011.326-.093.409-.412.408-3.421-.011-6.843-.008-10.265-.008Z" transform="translate(-297.836 -132.779)" fill="#6ca4f7"/>
      <path id="Trazado_1035367" data-name="Trazado 1035367" d="M70.874,97.377q-4.539,4.742-9.066,9.5a.949.949,0,0,1-.752.312l-31.146,0a.557.557,0,0,1-.424-.123.588.588,0,0,1-.118-.448q.013-10.843,0-21.687c0-.419.139-.56.551-.56,4.387.007,40.679.009,40.679.009.529,0,.579.048.579.583,0,0,0,8.422.006,11.664A1,1,0,0,1,70.874,97.377Zm.111,2.977L64.7,106.947l.058.175.159.057,5.9.005.242-.059.032-.033a.389.389,0,0,0,.088-.29l0-1.535Z" transform="translate(-26.601 -53)" fill="#f7ba3e"/>
      <path id="Trazado_1035368" data-name="Trazado 1035368" d="M61.8,83.135a.62.62,0,0,1-.211.517c-.711.65-1.412,1.311-2.106,1.958v-.338c0-3.5,0-7.009.008-10.513,0-.332-.078-.427-.419-.427q-19.677.013-39.354,0c-.33,0-.395.1-.394.407q.013,9.954,0,19.908c0,.327.093.4.4.4q15.1-.012,30.2-.006h.407c.038.145-.068.187-.126.247-.543.56-1.1,1.11-1.633,1.675a.8.8,0,0,1-.638.275q-15.312-.01-30.623,0c-.3,0-.361-.088-.361-.368q.009-12.364,0-24.727c0-.368.09-.448.432-.352a1.349,1.349,0,0,0,.378.035c5.994,0,11.989.042,17.983-.02,2.207-.023,4.414.013,6.622-.022,3.278-.053,6.558.018,9.835-.042,2.874-.053,5.748-.041,8.622-.054a1.206,1.206,0,0,0,.407-.067c.333-.118.482-.011.483.344.006,1.4-.031,2.8.017,4.19.08,2.329.032,4.657.059,6.984ZM59.479,89.4c.008,1.757,0,3.514.011,5.27,0,.289-.075.374-.367.371-1.721-.013-3.443-.005-5.164-.009a.618.618,0,0,0-.5.183c-.578.606-1.171,1.2-1.756,1.8-.052.053-.144.1-.075.214H51.9c3.013,0,6.025-.006,9.038.008.335,0,.4-.11.4-.415.013-2.466.043-4.932.064-7.4.006-.742,0-1.483,0-2.172-.547.51-1.111,1.044-1.685,1.567a.715.715,0,0,0-.237.584ZM46.191,86.626c-.332.215-.675.415-.991.652a.753.753,0,0,0,.141,1.313.985.985,0,0,0,.612.072,15.93,15.93,0,0,1,2.645-.15c.756.007,1.513.023,2.267-.038.549-.045.854-.373.809-.842-.043-.447-.393-.686-.934-.661q-1.215.056-2.431.017l-.068-.113a2.09,2.09,0,0,0,.281-.2A7.832,7.832,0,0,0,50.3,84.024a3.842,3.842,0,0,0-.215-3.587,2.519,2.519,0,0,0-3.6-.876A4.157,4.157,0,0,0,45.178,80.8a.762.762,0,1,0,1.238.866,2.808,2.808,0,0,1,.882-.831,1,1,0,0,1,1.417.274,1.891,1.891,0,0,1,.381.925,2.879,2.879,0,0,1-.323,1.722A7.16,7.16,0,0,1,46.191,86.626Zm-18.266.559a.677.677,0,0,0-.266.774.659.659,0,0,0,.606.55,4.327,4.327,0,0,0,2.051-.31.758.758,0,0,0,.454-.884.724.724,0,0,0-.814-.556c-.262.03-.257-.068-.231-.265.138-1.04.163-2.088.213-3.134.045-.825.1-1.649.131-2.475a.87.87,0,0,0-1.383-.687c-.251.189-.5.384-.745.577a.727.727,0,0,0-.287.773.69.69,0,0,0,.587.572c.185.03.25.093.237.288-.093,1.44-.1,2.885-.3,4.318a.581.581,0,0,1-.253.46Zm11.663-1.23c.419.011.838.015,1.257,0a.733.733,0,0,0,.722-.747.742.742,0,0,0-.721-.75c-.22-.013-.442,0-.663,0h0c-.2,0-.4-.01-.594,0-.219.014-.319-.052-.305-.292.019-.325.009-.652,0-.978a.759.759,0,1,0-1.512-.009c-.005.337-.008.675,0,1.013.006.192-.056.274-.259.266-.325-.013-.652-.011-.977,0a.752.752,0,1,0,.006,1.5,8.661,8.661,0,0,0,.873,0c.266-.019.381.056.361.344-.024.348-.009.7,0,1.048a.761.761,0,1,0,1.513-.015c0-.361.015-.723,0-1.082-.013-.241.087-.3.3-.294ZM32.092,105.62a13.287,13.287,0,0,1-2.107,2.026,3.294,3.294,0,0,1-2.6.711,13.827,13.827,0,0,0-2.5-.211c-.115,0-.276-.073-.327.1a.388.388,0,0,0,.125.412,1.245,1.245,0,0,0,.555.275,14.548,14.548,0,0,0,3.668.2,1.572,1.572,0,0,0,1.342-.767c.473-.738,1.05-1.408,1.579-2.11.354-.469.7-.941,1.056-1.412l-.053-.056c-.245.275-.487.553-.736.825Zm22.035,2.575a18.65,18.65,0,0,1-2.6.271,2.83,2.83,0,0,1-1.479-.305,12.18,12.18,0,0,1-3.191-2.456c-.093-.094-.157-.226-.35-.277l.371.49c.666.876,1.329,1.754,2,2.626a.924.924,0,0,0,.489.362,4.524,4.524,0,0,0,1.125.179,18.464,18.464,0,0,0,2.7-.158,1.583,1.583,0,0,0,1.1-.438.241.241,0,0,0,.065-.255c-.052-.129-.158-.056-.24-.039ZM41.57,109.332a.54.54,0,0,1-.526.368,19.658,19.658,0,0,1-2.788-.084,1.145,1.145,0,0,1-1.095-.906,7.659,7.659,0,0,1-.227-1.691,1.781,1.781,0,0,0-.127-.724c0,.965-.01,1.871,0,2.776a1.114,1.114,0,0,0,.819,1.123,5.387,5.387,0,0,0,3.722-.025,1.13,1.13,0,0,0,.756-.868,9.725,9.725,0,0,0-.035-1.9A9.636,9.636,0,0,1,41.57,109.332Zm7.508-8.441c-.25-.451-.479-.748-1.062-.732-1.744.049-3.49.017-5.234.02a.688.688,0,0,0-.377.038,1.118,1.118,0,0,0,1.233.689c1.325-.048,2.652-.015,3.978-.015Zm-18.162-.733c-.586-.019-.8.285-1.042.688a.785.785,0,0,0,.4.044c1.721,0,3.442-.028,5.162.018.562.015.8-.27,1.08-.731h-.439c-1.721,0-3.443.035-5.162-.02Zm6.187.739c.768-.017,1.536-.006,2.3-.006s1.56-.012,2.339.006c.28.006.3-.13.283-.34-.013-.188.063-.39-.272-.387q-2.321.022-4.643,0c-.341,0-.3.182-.308.395s.03.339.3.333Z" transform="translate(-15.358 -41.403)"/>
      <path id="Trazado_1035369" data-name="Trazado 1035369" d="M108.289,114.429a5.6,5.6,0,0,0-4.567-1.572.318.318,0,0,1-.3-.12,3.127,3.127,0,0,0-2.132-1,8.227,8.227,0,0,0-5.306,1.371c-.126.083-.249.173-.367.266a.427.427,0,0,0-.12.641.42.42,0,0,0,.644.076c.076-.053.149-.112.225-.165a7.487,7.487,0,0,1,4.475-1.334,2.76,2.76,0,0,1,1.743.563,2.672,2.672,0,0,0-1.339,1.206,1.143,1.143,0,0,0,.087,1.284,1.171,1.171,0,0,0,1.264.379,1.781,1.781,0,0,0,1.419-1.959c-.038-.345.084-.377.364-.375a4.775,4.775,0,0,1,3.063,1.185c.314.259.611.54.922.8a.423.423,0,0,0,.651-.026.419.419,0,0,0-.072-.644C108.723,114.817,108.507,114.622,108.289,114.429Zm-5.945.742c-.3.038-.428-.11-.31-.387a1.494,1.494,0,0,1,.923-.794c.276-.1.094.188.179.228A.949.949,0,0,1,102.344,115.171Zm4.3,10.166a23.241,23.241,0,0,0-3.96.807.943.943,0,0,0-.52.991,8.4,8.4,0,0,0,.692,1.711.415.415,0,0,0,.529.222,1.732,1.732,0,0,0,.53-.253c1.039-.823,2.068-1.66,3.1-2.494a.733.733,0,0,0,.274-.509.515.515,0,0,0-.643-.476Zm-3.007,2.577c-.136.114-.221.1-.28-.066,0-.011-.011-.021-.014-.032-.379-1.092-.47-.808.523-1.071.48-.127.971-.21,1.458-.312l.024.065c-.571.471-1.143.941-1.711,1.416Zm24.006-14.35a.418.418,0,0,1-.418.428c-.566.066-.566.066-.481.631.132.882-.237,1.289-1.142,1.259-.486-.016-.486-.016-.481.452a1.061,1.061,0,0,1-1.07,1.1.419.419,0,0,1-.454-.352.383.383,0,0,1,.28-.493c.306-.07.36-.223.342-.514-.044-.742.4-1.138,1.184-1.094l.07,0c.449.028.448.029.35-.427a4.384,4.384,0,0,1-.1-.513.734.734,0,0,1,.594-.855,2.715,2.715,0,0,1,.9-.076.409.409,0,0,1,.424.454Z" transform="translate(-86.427 -77.772)" fill="#fff"/>
    </g>
  </g>
</svg>
