<svg xmlns="http://www.w3.org/2000/svg" xmlns:xlink="http://www.w3.org/1999/xlink" width="400" height="109" viewBox="0 0 400 109">
  <defs>
    <clipPath id="clip-path">
      <rect id="Rect치ngulo_415860" data-name="Rect치ngulo 415860" width="117" height="105" transform="translate(810 1043.458)" fill="#fff" stroke="#707070" stroke-width="1"/>
    </clipPath>
  </defs>
  <g id="Grupo_1176898" data-name="Grupo 1176898" transform="translate(-1020 -855)">
    <rect id="Fondo" width="400" height="109" rx="7" transform="translate(1020 855)" fill="#1d7083"/>
    <rect id="Fondo-2" data-name="Fondo" width="314" height="49" rx="24.5" transform="translate(1063 885)" fill="#36ceef"/>
    <g id="Enmascarar_grupo_1098801" data-name="Enmascarar grupo 1098801" transform="translate(345 -184.459)" clip-path="url(#clip-path)">
      <g id="Female_teacher" data-name="Female teacher" transform="translate(821.795 1043.024)">
        <path id="Trazado_1035470" data-name="Trazado 1035470" d="M29.27,1h72.165V5.392H29.27Z" transform="translate(2.822 0.098)" fill="#f4a261"/>
        <path id="Trazado_1035471" data-name="Trazado 1035471" d="M80.369,1H47.256a2.2,2.2,0,0,0,0,4.392H80.369a2.2,2.2,0,0,0,0-4.392Z" transform="translate(4.368 0.098)" fill="#f4d49d"/>
        <path id="Trazado_1035472" data-name="Trazado 1035472" d="M37.17,5h63.492V57.074H37.17Z" transform="translate(3.595 0.49)" fill="#264653"/>
        <path id="Trazado_1035473" data-name="Trazado 1035473" d="M44.717,10A2.328,2.328,0,0,0,42.17,12.01v9.881a2.2,2.2,0,0,0,3.81,1.581L55.652,13.8A2.2,2.2,0,0,0,54.06,10Z" transform="translate(4.085 0.978)" fill="#265a67"/>
        <path id="Trazado_1035474" data-name="Trazado 1035474" d="M63.019,14.04,46.21,30.86A13.735,13.735,0,0,0,42.17,40.6v8.487a2.328,2.328,0,0,0,2.547,2.02h30.2a13.757,13.757,0,0,0,9.738-4.04L96.132,35.581a13.757,13.757,0,0,0,4.04-9.738V10H72.725a13.735,13.735,0,0,0-9.705,4.04Z" transform="translate(4.085 0.979)" fill="#265a67"/>
        <path id="Trazado_1035475" data-name="Trazado 1035475" d="M93.239,39.74,87.31,45.669a1.493,1.493,0,0,0,1.1,2.558h5.94A1.493,1.493,0,0,0,95.8,46.733v-5.94a1.493,1.493,0,0,0-2.558-1.054Z" transform="translate(8.461 3.847)" fill="#265a67"/>
        <path id="Trazado_1035476" data-name="Trazado 1035476" d="M100.205,52.43H41.83v4.194h58.375Z" transform="translate(4.052 5.133)" fill="#f4a261"/>
        <path id="Trazado_1035477" data-name="Trazado 1035477" d="M83.76,54.527a2.1,2.1,0,0,0-2.1-2.1H60.517a2.1,2.1,0,1,0,0,4.194H81.663a2.108,2.108,0,0,0,2.1-2.1Z" transform="translate(5.676 5.133)" fill="#f4d49d"/>
        <path id="Trazado_1035478" data-name="Trazado 1035478" d="M100.205,56.25H41.83v5.764h58.375Z" transform="translate(4.052 5.507)" fill="#f4a261"/>
        <path id="Trazado_1035479" data-name="Trazado 1035479" d="M92.382,56.25H36.85v5.764H92.382Z" transform="translate(3.564 5.507)" fill="#f47543"/>
        <path id="Trazado_1035480" data-name="Trazado 1035480" d="M10.962,58.719c-4.655-3.8-2.745-10.134-2.2-12.725l.889-4.315H17.22V58.719Z" transform="translate(0.731 4.081)" fill="#353c60"/>
        <path id="Trazado_1035481" data-name="Trazado 1035481" d="M54.8,30.468v2.1a49.164,49.164,0,0,1-4.139,19.762l-2.382,5.962L15.341,58A45.7,45.7,0,0,1,7.93,32.565V30.479c0-4.468,0-26.69,23.429-26.679C53.954,3.789,54.8,25.978,54.8,30.468Z" transform="translate(0.733 0.372)" fill="#353c60"/>
        <path id="Trazado_1035482" data-name="Trazado 1035482" d="M38.847,9.514a23.451,23.451,0,0,0-17.676,0,1.866,1.866,0,0,0,.736,3.579H38.078a1.877,1.877,0,0,0,.769-3.579Z" transform="translate(1.919 0.762)" fill="#355fa1"/>
        <path id="Trazado_1035483" data-name="Trazado 1035483" d="M45.2,39.81a45.486,45.486,0,0,1-2.679,16.9l-23.89-.263C16.384,50.723,16,45.8,16,39.81c0-3.4,0-20.311,14.624-20.3C44.677,19.455,45.2,36.352,45.2,39.81Z" transform="translate(1.523 1.91)" fill="#352d51"/>
        <path id="Trazado_1035484" data-name="Trazado 1035484" d="M74.272,68.887,61.316,90.56a6.851,6.851,0,0,1-9.343,2.393l.626,6.5H27.808C9.089,89.627,14.107,92.36,6.487,87.98a10.913,10.913,0,0,1-4.117-14.7c2.2-4.062,7.345-13.416,10.518-16.765a24.934,24.934,0,0,1,4.754-4.271,16.644,16.644,0,0,1,9.08-2.712c9.881,0,10.9-.1,12.791.242,6.972,1.153,12.791,7.049,15.151,13.735a101.261,101.261,0,0,1,3.184,12.417l7.685-13.263Z" transform="translate(0.057 4.848)" fill="#f4d493"/>
        <path id="Trazado_1035485" data-name="Trazado 1035485" d="M68.353,65.667,58.318,82.136a2.317,2.317,0,0,1-4.2-.549l-4.457-14.9C47.01,57.905,38.227,52.723,29.509,52.723c-3.513,0-5.237-.132-7.85.615l-1.768.505a4.392,4.392,0,0,1-4.392-1.1,16.578,16.578,0,0,1,9.76-3.184c9.881,0,10.9-.1,12.791.242,6.972,1.153,12.791,7.049,15.151,13.735a101.259,101.259,0,0,1,3.184,12.417l7.685-13.263Z" transform="translate(1.474 4.851)" fill="#f4f7bb"/>
        <path id="Trazado_1035486" data-name="Trazado 1035486" d="M52.6,98.829H27.808C9.089,89,14.107,91.737,6.487,87.356a10.913,10.913,0,0,1-4.117-14.7c2.2-4.062,7.345-13.416,10.518-16.765l5.995,7.279a7.235,7.235,0,0,0,3.952,2.459l13.438,3.184a2.986,2.986,0,0,1,2.262,3.414L36.043,86.994A5.49,5.49,0,0,0,41.4,93.339h2.931A2.339,2.339,0,0,0,46.6,90.452l-1.581-6.587a2.119,2.119,0,0,1,1.9-2.6l3.294,10.979h1.768Z" transform="translate(0.057 5.472)" fill="#f4b675"/>
        <path id="Trazado_1035487" data-name="Trazado 1035487" d="M9.22,93.718l17.786,4.007h2.339c.889-3.963,4.93-21.892,5.863-26.053l-20-4.512C12.645,78.49,11.745,82.52,9.22,93.718Z" transform="translate(0.859 6.575)" fill="#ff4b6e"/>
        <path id="Trazado_1035488" data-name="Trazado 1035488" d="M29.443,98.921a23.06,23.06,0,0,1-2.58,0L9.077,94.892a1.1,1.1,0,0,1-.834-1.317l1.1-4.82,4.9-21.738a1.1,1.1,0,0,1,1.317-.823l20,4.5a1.1,1.1,0,0,1,.834,1.317L30.508,98.065a1.1,1.1,0,0,1-1.065.856Zm-.878-2.2L34,72.571l-17.874-4-5.49,24.406C29.652,97.274,26.643,96.725,28.565,96.725Z" transform="translate(0.761 6.478)" fill="#302d3d"/>
        <path id="Trazado_1035489" data-name="Trazado 1035489" d="M9.22,93.718l17.786,4.007h2.339c.889-3.963,4.93-21.892,5.863-26.053l-20-4.512C12.645,78.49,11.745,82.52,9.22,93.718Z" transform="translate(0.859 6.575)" fill="#ff4b6e"/>
        <rect id="Rect치ngulo_415859" data-name="Rect치ngulo 415859" width="18.434" height="11.726" rx="1.24" transform="translate(15.373 96.986) rotate(-77.297)" fill="#ff8c87"/>
        <path id="Trazado_1035490" data-name="Trazado 1035490" d="M10.308,87.117l-1.1,4.82,17.8,3.963h2.339c.944-4.227.406-1.823,2.262-10.09" transform="translate(0.858 8.401)" fill="#ff4b6e"/>
        <path id="Trazado_1035491" data-name="Trazado 1035491" d="M29.443,97.093a23.06,23.06,0,0,1-2.58,0L9.077,93.063a1.1,1.1,0,0,1-.834-1.317l1.1-4.82a1.1,1.1,0,0,1,2.141.483l-.845,3.744C29.652,95.446,26.643,94.9,28.565,94.9l2.075-9.233a1.1,1.1,0,0,1,2.141.483l-2.273,10.09a1.1,1.1,0,0,1-1.065.856Z" transform="translate(0.761 8.306)" fill="#302d3d"/>
        <path id="Trazado_1035492" data-name="Trazado 1035492" d="M37.467,49.782c0,7.158-2.9,10.342-5.632,13.845a2.712,2.712,0,0,1-4.282,0c-2.942-3.7-5.643-6.774-5.643-13.845a15.689,15.689,0,0,1,2.909-.242v.725a2.613,2.613,0,0,0,1.153,2.2l2.339,1.592a2.591,2.591,0,0,0,2.953,0l2.284-1.581a2.613,2.613,0,0,0,1.1-2.2V49.54a15.371,15.371,0,0,1,2.822.242Z" transform="translate(2.101 4.85)" fill="#497db0"/>
        <path id="Trazado_1035493" data-name="Trazado 1035493" d="M20.768,83.231c1.449.384,2.844.747,2.734.736a2.558,2.558,0,0,0,2.382-1.186l.176-.274a2.514,2.514,0,0,1,1.812-1.186.714.714,0,0,1,.823.769L28.574,83.4a1.021,1.021,0,0,0,.933,1.1l5.237.494A1.57,1.57,0,0,1,36.172,86.7l-.11,1.285a5.49,5.49,0,0,1-1.943,3.689A4.523,4.523,0,0,1,30.5,93.167l-4.216-.4c-1.691-.154-2.448-1.1-3.81-2.481l-3.14-1.1Z" transform="translate(1.849 7.961)" fill="#ffaaa0"/>
        <path id="Trazado_1035494" data-name="Trazado 1035494" d="M33.989,43.215V50.8a2.426,2.426,0,0,1-1.1,2.009l-2.119,1.46a2.426,2.426,0,0,1-2.756,0L25.9,52.865a2.448,2.448,0,0,1-1.1-2.02V43.16a14.712,14.712,0,0,0,9.189.055Z" transform="translate(2.384 4.225)" fill="#ff7d82"/>
        <path id="Trazado_1035495" data-name="Trazado 1035495" d="M15.54,16.39V31.684a14.855,14.855,0,1,0,29.709,0V16.39" transform="translate(1.478 1.605)" fill="#ffaaa0"/>
        <path id="Trazado_1035496" data-name="Trazado 1035496" d="M25.3,16.39c0,5.621-4.15,7.96-9.76,8.564V16.39" transform="translate(1.478 1.605)" fill="#353c60"/>
        <path id="Trazado_1035497" data-name="Trazado 1035497" d="M35.62,16.39c0,4.392,3.294,6.258,7.685,6.73V16.39" transform="translate(3.444 1.605)" fill="#353c60"/>
        <path id="Trazado_1035498" data-name="Trazado 1035498" d="M13.321,31.822h2.7v-5.4h-2.7a2.7,2.7,0,1,0,0,5.4Z" transform="translate(0.996 2.587)" fill="#ffaaa0"/>
        <path id="Trazado_1035499" data-name="Trazado 1035499" d="M45.3,26.42H42.6v5.4h2.7a2.7,2.7,0,1,0,0-5.4Z" transform="translate(4.127 2.587)" fill="#ffaaa0"/>
        <path id="Trazado_1035500" data-name="Trazado 1035500" d="M6.01,85.406l13.768,7.927,2.767-11.561L11.752,75.81Z" transform="translate(0.545 7.422)" fill="#f4d493"/>
        <path id="Trazado_1035501" data-name="Trazado 1035501" d="M0,0H3.584V35.43H0Z" transform="translate(79.48 28.534) rotate(12.653)" fill="#f4a261"/>
        <path id="Trazado_1035502" data-name="Trazado 1035502" d="M62.78,12.029,59.969,14.84A1.1,1.1,0,1,0,61.517,16.4l.944-.944v9.881a1.1,1.1,0,1,0,2.2,0V12.8a1.1,1.1,0,0,0-1.877-.769Z" transform="translate(5.796 1.146)" fill="#fff"/>
        <path id="Trazado_1035503" data-name="Trazado 1035503" d="M80.07,12.029,77.259,14.84A1.1,1.1,0,1,0,78.807,16.4l.944-.944v9.881a1.1,1.1,0,1,0,2.2,0V12.8a1.1,1.1,0,0,0-1.877-.769Z" transform="translate(7.489 1.146)" fill="#fff"/>
        <path id="Trazado_1035504" data-name="Trazado 1035504" d="M75.646,17.76H72.835V14.938a1.1,1.1,0,1,0-2.2,0V17.76H67.818a1.1,1.1,0,0,0,0,2.2H70.64V22.8a1.1,1.1,0,0,0,2.2,0V19.955h2.811a1.1,1.1,0,0,0,0-2.2Z" transform="translate(6.489 1.355)" fill="#fff"/>
        <path id="Trazado_1035505" data-name="Trazado 1035505" d="M61.75,63.95c.626-3.118.823-4.9,2.2-7.136l3.085-5A2.767,2.767,0,0,1,72,52.345l.406,1.186a10.474,10.474,0,0,1-3.744,11.956L66.3,67.2Z" transform="translate(6.002 4.943)" fill="#ffaaa0"/>
        <path id="Trazado_1035506" data-name="Trazado 1035506" d="M10.631,91.66l-.571,3.667H26.924Z" transform="translate(0.941 8.974)" fill="#f4d493"/>
        <g id="Grupo_1176897" data-name="Grupo 1176897" transform="translate(0 0)">
          <path id="Trazado_1035507" data-name="Trazado 1035507" d="M105.395,5.49a1.1,1.1,0,0,0-1.1-1.1H40.849A26.064,26.064,0,0,0,33.23,3.1V2.2H104.3a1.1,1.1,0,0,0,0-2.2H32.132a1.1,1.1,0,0,0-1.1,1.1V3.074C14.906,3.546,7.6,14.679,7.6,30.84A51.865,51.865,0,0,0,9.273,45.848C8.1,51.536,8.549,49.406,8.3,50.5c-.615,2.855-1.9,8.52,1.976,12.439A152.293,152.293,0,0,0,1.489,77.6,12.077,12.077,0,0,0,6.046,93.772l3.909,2.2L9.043,100a1.1,1.1,0,0,0,.834,1.372l.494.11-.406,2.657a1.1,1.1,0,0,0,1.1,1.263H52.7a1.1,1.1,0,0,0,1.1-1.208l-.45-4.666a7.938,7.938,0,0,0,9.014-3.546L75.312,74.3A1.1,1.1,0,0,0,75,72.846l-.889-.637a13.658,13.658,0,0,0,3.9-3.59H104.3a1.1,1.1,0,0,0,0-2.2H79.232a10.979,10.979,0,0,0,.911-3.568H104.3a1.1,1.1,0,0,0,0-2.2H80.066a10.409,10.409,0,0,0-.406-2H104.3a1.1,1.1,0,0,0,0-2.2H78.88a3.93,3.93,0,0,0-.988-1.252l5.819-25.768a1.1,1.1,0,0,0-.823-1.317l-3.48-.78a1.1,1.1,0,0,0-1.317.823L71.7,56.465H51.093C55.319,45.892,56.67,42.28,56.67,30.84c0-9.464-3.195-19.213-11.166-24.253H104.3a1.1,1.1,0,0,0,1.1-1.1ZM10.437,51.031c.1-.417.143-.6.22-.988A52.392,52.392,0,0,0,14.664,58.1a39.921,39.921,0,0,0-3.019,3.1c-2.789-3.085-1.768-7.63-1.208-10.167ZM23.458,92.542a17.708,17.708,0,0,0,1.823.472,3.612,3.612,0,0,0,3.414-1.68,1.921,1.921,0,0,1,.736-.812l-.066.725A2.13,2.13,0,0,0,31.3,93.574c.922.088.615,0,5.237.483a.494.494,0,0,1,.439.527c-.143,1.526-.132,2.942-1.669,4.227l-.725.593a2.822,2.822,0,0,1-2.086.648c-.242,0,.11,0-2.371-.22-1.68-.154-2.646-.077-3.579-.966-1.987-1.943-1.1-1.383-4.029-2.382Zm8.092-1.1c.121-1.35.329-2.064-.439-2.789-1.175-1.1-3.239-.143-4.1,1.219l-.176.274a1.416,1.416,0,0,1-1.274.681L23.974,90.4l.231-.966a1.1,1.1,0,0,0-.538-1.219l-8.64-4.776,1.9-8.421L34.8,79.049,32,91.488ZM11.425,99.459l.516-2.295,6.873,3.963Zm.9,3.744.187-1.241L18,103.2Zm8.706-1.581c.406-.318.351-.428.966-3l1.768.6c2.317,2.251,2.306,2.437,5.874,2.767l-.274,1.208c-1.757,0-.187.253-8.333-1.581Zm39.437-6.774a5.742,5.742,0,0,1-10.463-1.416l-2.92-10.551a1.075,1.075,0,1,0-2.075.56l2.92,10.551a7.872,7.872,0,0,0,3.14,4.392c0,.143,0,0,.461,4.787H31.616l.22-1.01h.45a5.072,5.072,0,0,0,3.7-1.1l.725-.593a6.489,6.489,0,0,0,2.328-4.392l.121-1.3a2.69,2.69,0,0,0-2.415-2.909l-2.536-.209,2.975-13.175a1.1,1.1,0,0,0-.834-1.317l-20-4.5a1.1,1.1,0,0,0-1.317.823l-2,8.849-.165-.088a1.106,1.106,0,1,0-1.1,1.921c4.249,2.35-.758-.406,10.057,5.555-3.6,15-1.581,6.708-2.2,9.31L7.143,91.873A9.881,9.881,0,0,1,3.422,78.7a143.707,143.707,0,0,1,8.86-14.8,25.69,25.69,0,0,1,1.877-2.2c2.569-2.756,5.094-4.787,8.783-5.731a19.674,19.674,0,0,0,.494,3.513c1.1,4.589,3.294,6.983,5.358,9.662a3.81,3.81,0,0,0,6.017,0c3.4-4.337,5.435-6.906,5.852-13.175,5.8,1.405,11.111,7.027,13.021,12.747a98.688,98.688,0,0,1,3.052,11.89l-1.175,2.02a1.1,1.1,0,0,0,1.9,1.1c1.823-3.14.307-.538,8.52-14.613l6.895,4.93ZM35.316,48.879v6.148a1.383,1.383,0,0,1-.571,1.1l-2.119,1.46a1.339,1.339,0,0,1-1.515,0c-3.151-2.1-2.767-1.482-2.767-4.3,0-4.963,0-4.392.077-4.392a15.37,15.37,0,0,0,3.491.4,16.853,16.853,0,0,0,3.4-.406ZM29.826,59.77a3.722,3.722,0,0,0,4.2,0c.362-.263,0,0,2.284-1.581a3.711,3.711,0,0,0,1.57-2.657h.626a16.754,16.754,0,0,1-3.546,9.881l-1.855,2.36a1.68,1.68,0,0,1-2.558,0c-2.2-2.833-3.821-4.6-4.82-8.289a16.468,16.468,0,0,1-.571-3.93h.725c.22,2.108,2.031,2.964,3.941,4.216Zm37.329,6.653H55.166a23.331,23.331,0,0,0-1.932-3.568H68.187a15.2,15.2,0,0,0-1.021,3.568ZM58.372,77.764a93.515,93.515,0,0,0-2.382-9.146H63.74ZM77.365,58.837a9.5,9.5,0,0,1-.516,7.587c-1.164,2.2-2.514,2.953-4.468,4.392l-3.294-2.382c1.1-5.369.725-4.084,5-11.078a1.658,1.658,0,0,1,3,.329c.143.571.34,1.142.34,1.153Zm2.569-29.105,1.339.3-5.49,24.341a3.876,3.876,0,0,0-1.427.11ZM70.6,58.661l-1.23,2H51.6a21.518,21.518,0,0,0-1.526-1.636l.143-.351ZM54.474,30.84c0,11.715-1.636,15.294-5.742,25.625h-1.79a16.657,16.657,0,0,0-1.866-1.1c.4-.922.692-1.559,1.2-2.9a1.1,1.1,0,0,0-2.053-.78c-.3.769-.714,1.823-1.153,2.778a18.061,18.061,0,0,0-5.555-1.1V48.22A15.832,15.832,0,0,0,47.7,35.506h1.768a3.8,3.8,0,1,0,0-7.6h-1.6V18.028a1.1,1.1,0,0,0-2.2,0v5.49c-4.15-.769-5.49-2.844-5.49-5.49a1.1,1.1,0,1,0-2.2,0c0,4.578,3.074,6.95,7.685,7.685v7.608A13.746,13.746,0,0,1,18.177,33.3V27.535c5.731-.856,9.76-3.711,9.76-9.541a1.1,1.1,0,0,0-2.2,0c0,4.073-2.481,6.467-7.565,7.3v-7.3a1.1,1.1,0,0,0-2.2,0v9.881H14.357a3.8,3.8,0,0,0,0,7.6h1.757A15.909,15.909,0,0,0,26.148,48.132V53.27a18.017,18.017,0,0,0-4.809.867,48.9,48.9,0,0,1-2.306-6.181,1.109,1.109,0,0,0-2.2.318,41.589,41.589,0,0,0,2.2,6.181l.209.461a17.863,17.863,0,0,0-2.9,1.724C10.81,47.21,9.8,40.622,9.8,30.84c0-14.91,6.379-25.109,21.233-25.548A26.119,26.119,0,0,1,39.707,6.3v.285h.911l1.328.516C53.409,12.132,54.474,25.976,54.474,30.84ZM47.887,30.1h1.6a1.6,1.6,0,1,1,0,3.206H47.865ZM15.96,33.31h-1.6a1.6,1.6,0,1,1,0-3.206h1.6Z" transform="translate(-0.04 0)" fill="#302d3d"/>
          <path id="Trazado_1035508" data-name="Trazado 1035508" d="M24.528,28.47a1.1,1.1,0,0,0-1.1,1.1v.725a1.1,1.1,0,0,0,2.2,0v-.725A1.1,1.1,0,0,0,24.528,28.47Z" transform="translate(2.25 2.787)" fill="#302d3d"/>
          <path id="Trazado_1035509" data-name="Trazado 1035509" d="M26.49,25.978a1.1,1.1,0,0,0-1.1-1.1H22.1a1.1,1.1,0,1,0,0,2.2h3.294A1.1,1.1,0,0,0,26.49,25.978Z" transform="translate(2.012 2.436)" fill="#302d3d"/>
          <path id="Trazado_1035510" data-name="Trazado 1035510" d="M34.378,28.47a1.1,1.1,0,0,0-1.1,1.1v.725a1.1,1.1,0,0,0,2.2,0v-.725A1.1,1.1,0,0,0,34.378,28.47Z" transform="translate(3.215 2.787)" fill="#302d3d"/>
          <path id="Trazado_1035511" data-name="Trazado 1035511" d="M33,25.978a1.1,1.1,0,0,0,1.1,1.1h3.294a1.1,1.1,0,0,0,0-2.2H34.1A1.1,1.1,0,0,0,33,25.978Z" transform="translate(3.187 2.436)" fill="#302d3d"/>
          <path id="Trazado_1035512" data-name="Trazado 1035512" d="M31.882,37.433a4.93,4.93,0,0,1-4.578.154,1.1,1.1,0,1,0-.977,1.965,6.994,6.994,0,0,0,6.653-.22,1.1,1.1,0,1,0-1.1-1.9Z" transform="translate(2.471 3.65)" fill="#302d3d"/>
          <path id="Trazado_1035513" data-name="Trazado 1035513" d="M33.479,21.285A4.743,4.743,0,0,1,30.306,16.5a1.1,1.1,0,1,0-2.2,0,6.983,6.983,0,0,0,4.5,6.807,1.1,1.1,0,1,0,.867-2.02Z" transform="translate(2.708 1.508)" fill="#302d3d"/>
        </g>
      </g>
    </g>
  </g>
</svg>
