<svg xmlns="http://www.w3.org/2000/svg" xmlns:xlink="http://www.w3.org/1999/xlink" width="106" height="106" viewBox="0 0 106 106">
  <defs>
    <filter id="Trazado_982547" x="0" y="0" width="106" height="106" filterUnits="userSpaceOnUse">
      <feOffset dy="3" input="SourceAlpha"/>
      <feGaussianBlur stdDeviation="3" result="blur"/>
      <feFlood flood-opacity="0.161"/>
      <feComposite operator="in" in2="blur"/>
      <feComposite in="SourceGraphic"/>
    </filter>
  </defs>
  <g id="Grupo_1176350" data-name="Grupo 1176350" transform="translate(-171 -2007)">
    <g id="Grupo_1174730" data-name="Grupo 1174730" transform="translate(0 625)">
      <g id="Grupo_1173169" data-name="Grupo 1173169" transform="translate(0 -2329)">
        <g id="Grupo_1172017" data-name="Grupo 1172017" transform="translate(0 2654)">
          <g id="Grupo_1167337" data-name="Grupo 1167337" transform="translate(180 1063)">
            <g id="Grupo_1166720" data-name="Grupo 1166720" transform="translate(0)">
              <g id="Grupo_1164305" data-name="Grupo 1164305">
                <g id="Grupo_1163948" data-name="Grupo 1163948">
                  <g id="Grupo_1158168" data-name="Grupo 1158168">
                    <g id="Grupo_1152576" data-name="Grupo 1152576">
                      <g id="Grupo_1148633" data-name="Grupo 1148633">
                        <g id="Grupo_1148525" data-name="Grupo 1148525">
                          <g transform="matrix(1, 0, 0, 1, -9, -6)" filter="url(#Trazado_982547)">
                            <g id="Trazado_982547-2" data-name="Trazado 982547" transform="translate(9 6)" fill="#f2f7e5">
                              <path d="M 44 86.5 C 38.26187515258789 86.5 32.69618606567383 85.37651062011719 27.45755004882812 83.16075897216797 C 22.3968505859375 81.020263671875 17.85157585144043 77.95565032958984 13.94796276092529 74.05204010009766 C 10.04434967041016 70.1484375 6.979737281799316 65.6031494140625 4.839250087738037 60.54246139526367 C 2.62348747253418 55.30381393432617 1.5 49.73812484741211 1.5 44 C 1.5 38.26187515258789 2.62348747253418 32.69618606567383 4.839250087738037 27.45755004882812 C 6.979737281799316 22.3968505859375 10.04434967041016 17.85157585144043 13.94796276092529 13.94796276092529 C 17.85157585144043 10.04434967041016 22.3968505859375 6.979737281799316 27.45755004882812 4.839250087738037 C 32.69618606567383 2.62348747253418 38.26187515258789 1.5 44 1.5 C 49.73812484741211 1.5 55.30381393432617 2.62348747253418 60.54246139526367 4.839250087738037 C 65.6031494140625 6.979737281799316 70.1484375 10.04434967041016 74.05204010009766 13.94796276092529 C 77.95565032958984 17.85157585144043 81.020263671875 22.3968505859375 83.16075897216797 27.45755004882812 C 85.37651062011719 32.69618606567383 86.5 38.26187515258789 86.5 44 C 86.5 49.73812484741211 85.37651062011719 55.30381393432617 83.16075897216797 60.54246139526367 C 81.020263671875 65.6031494140625 77.95565032958984 70.1484375 74.05204010009766 74.05204010009766 C 70.1484375 77.95565032958984 65.6031494140625 81.020263671875 60.54246139526367 83.16075897216797 C 55.30381393432617 85.37651062011719 49.73812484741211 86.5 44 86.5 Z" stroke="none"/>
                              <path d="M 44 3 C 38.46371459960938 3 33.09462738037109 4.083610534667969 28.0418701171875 6.220756530761719 C 23.15997314453125 8.285614013671875 18.77495574951172 11.24228668212891 15.00862884521484 15.00862884521484 C 11.24228668212891 18.77495574951172 8.285614013671875 23.15997314453125 6.220756530761719 28.0418701171875 C 4.083610534667969 33.09462738037109 3 38.46371459960938 3 44 C 3 49.53628540039062 4.083610534667969 54.9053840637207 6.220756530761719 59.9581298828125 C 8.285614013671875 64.84002685546875 11.24228668212891 69.22504425048828 15.00862884521484 72.99138641357422 C 18.77495574951172 76.75771331787109 23.15997314453125 79.71438598632812 28.0418701171875 81.77925872802734 C 33.09462738037109 83.9163818359375 38.46371459960938 85 44 85 C 49.53628540039062 85 54.9053840637207 83.9163818359375 59.95814514160156 81.77925872802734 C 64.84002685546875 79.71438598632812 69.22504425048828 76.75771331787109 72.99138641357422 72.99138641357422 C 76.75771331787109 69.22504425048828 79.71438598632812 64.84002685546875 81.77925872802734 59.95814514160156 C 83.9163818359375 54.9053840637207 85 49.53628540039062 85 44 C 85 38.46371459960938 83.9163818359375 33.09462738037109 81.77925872802734 28.0418701171875 C 79.71438598632812 23.15997314453125 76.75771331787109 18.77495574951172 72.99138641357422 15.00862884521484 C 69.22504425048828 11.24228668212891 64.84002685546875 8.285614013671875 59.9581298828125 6.220756530761719 C 54.9053840637207 4.083610534667969 49.53628540039062 3 44 3 M 44 0 C 68.30054473876953 0 88 19.69947052001953 88 44 C 88 68.30054473876953 68.30054473876953 88 44 88 C 19.69947052001953 88 0 68.30054473876953 0 44 C 0 19.69947052001953 19.69947052001953 0 44 0 Z" stroke="none" fill="#86b60c"/>
                            </g>
                          </g>
                        </g>
                      </g>
                    </g>
                  </g>
                </g>
              </g>
            </g>
          </g>
        </g>
      </g>
    </g>
    <g id="classrom_17314047" transform="translate(195.534 2007.542)">
      <path id="Trazado_1035365" data-name="Trazado 1035365" d="M55.1,44.795c.293-.32.581-.644.881-.957.167-.174.319-.407.624-.286s.3.389.3.658q0,8.245,0,16.49c0,1.018.015,2.037.022,3.055,0,.582-.078.662-.672.666-2.328.018-4.664-.085-6.981.082-3.2.23-6.4.054-9.6.137-.106,0-.246-.049-.309.051-.087.137.067.221.134.311,1.638,2.18,3.285,4.353,4.918,6.538.527.706,1.028,1.432,1.52,2.162.475.706.315,1.132-.522,1.347a15.017,15.017,0,0,1-3.406.319,6.085,6.085,0,0,1-1.559-.136,1.491,1.491,0,0,1-.891-.608c-2.247-3.016-4.591-5.957-6.935-8.9-.24-.3-.479-.6-.708-.913-.057-.077-.082-.188-.207-.147s-.1.154-.1.246c0,.455,0,.909.007,1.364q.026,3.637.054,7.273c0,.509.062,1.018.056,1.526a1.509,1.509,0,0,1-1.275,1.674,6.721,6.721,0,0,1-4.02-.033,1.445,1.445,0,0,1-1.083-1.265,9.317,9.317,0,0,1,.016-1.564q.005-4.36,0-8.72c0-.164.106-.41-.112-.476s-.207.212-.3.33c-1.1,1.381-2.2,2.759-3.27,4.156-1.394,1.812-2.779,3.631-4.138,5.468a1.669,1.669,0,0,1-1.182.729,15.06,15.06,0,0,1-4.765-.2,1.116,1.116,0,0,1-.2-.065c-.6-.24-.734-.632-.367-1.167.737-1.08,1.476-2.16,2.249-3.215,1.375-1.877,2.777-3.735,4.164-5.6.076-.1.249-.2.162-.343-.075-.121-.255-.057-.387-.056-2.685.02-5.378.176-8.055.031C6.3,64.6,3.432,64.706.565,64.638c-.391-.009-.526-.193-.527-.569,0-.771.039-1.542-.029-2.312a.4.4,0,0,1,.512-.467,7.965,7.965,0,0,0,.9.054c.334.033.418-.114.416-.43-.011-2.094-.005-4.188-.006-6.281V31.82c0-.671.06-.717.736-.6a1.869,1.869,0,0,0,.33.014H23.974c.559,0,.551,0,.58-.557.042-.8.062-1.6.154-2.39.235-2.01.738-2.208,2.3-2.349a14.346,14.346,0,0,1,2.887.011c1.425.158,1.795.421,2.062,2.089.137.853.145,1.728.2,2.594.035.561.024.563.578.559q9.626-.076,19.254-.159a11.65,11.65,0,0,0,2.466-.1c.318-.071.422.176.425.465.008.951.024,1.9.031,2.851q.04,5.021.076,10.042c0,.15,0,.3,0,.449Z" transform="translate(0 0)" fill="#1d4976"/>
      <path id="Trazado_1035366" data-name="Trazado 1035366" d="M329.245,193.867c.75-.9,1.451-1.67,2.076-2.5.809-1.073.709-1.346-.641-1.771a3.576,3.576,0,0,0-1.679-.051c-.219.038-.277-.035-.274-.226,0-.1,0-.193,0-.289V173c0-.567,0-.568.555-.568q8.655,0,17.309-.008c.393,0,.531.1.511.5-.033.673-.01,1.349-.007,2.024,0,.078-.027.178.064.22s.157-.042.208-.1c.245-.259.479-.528.723-.788a2.22,2.22,0,0,1,.359-.336.339.339,0,0,1,.549.248,2.755,2.755,0,0,1,.008.413v16.239c0,.848-.02,1.7.009,2.545.013.386-.11.484-.487.483-4.048-.013-8.1-.009-12.145-.009Z" transform="translate(-292.176 -130.256)" fill="#6ca4f7"/>
      <path id="Trazado_1035367" data-name="Trazado 1035367" d="M78.48,99.761Q73.109,105.371,67.753,111a1.123,1.123,0,0,1-.89.369l-36.852,0a.66.66,0,0,1-.5-.146.7.7,0,0,1-.14-.53q.015-12.829,0-25.661c0-.5.165-.663.652-.663,5.191.009,48.132.01,48.132.01.626,0,.685.057.685.689,0,0,0,9.965.008,13.8A1.188,1.188,0,0,1,78.48,99.761Zm.132,3.522-7.437,7.8.068.207.188.067,6.979.006.286-.07.038-.039a.461.461,0,0,0,.1-.344l0-1.816Z" transform="translate(-26.096 -51.993)" fill="#f7ba3e"/>
      <path id="Trazado_1035368" data-name="Trazado 1035368" d="M70.016,85.254a.734.734,0,0,1-.249.611c-.841.769-1.671,1.551-2.492,2.316v-.4c0-4.147-.005-8.293.009-12.439,0-.393-.093-.505-.5-.505q-23.282.016-46.565,0c-.39,0-.467.116-.466.482q.015,11.778,0,23.556c0,.387.111.469.478.469q17.87-.014,35.739-.007h.482c.044.171-.08.221-.149.292-.643.662-1.3,1.313-1.932,1.982a.951.951,0,0,1-.755.326q-18.117-.012-36.234,0c-.353,0-.427-.1-.427-.436q.011-14.629,0-29.258c0-.435.107-.53.511-.416a1.6,1.6,0,0,0,.447.041c7.093,0,14.186.049,21.278-.024,2.612-.027,5.223.016,7.835-.027,3.878-.063,7.759.021,11.637-.05,3.4-.062,6.8-.048,10.2-.064a1.427,1.427,0,0,0,.481-.08c.395-.14.57-.013.571.407.007,1.653-.036,3.307.021,4.958.094,2.755.038,5.51.07,8.264ZM67.27,92.669c.009,2.079,0,4.158.013,6.236,0,.342-.089.442-.434.44-2.037-.016-4.074-.006-6.111-.01a.731.731,0,0,0-.591.216c-.684.716-1.385,1.417-2.078,2.126-.061.063-.171.113-.089.254H58.3c3.565,0,7.129-.007,10.694.01.4,0,.474-.13.476-.492.015-2.918.051-5.836.076-8.753.007-.877,0-1.755,0-2.57-.648.6-1.315,1.235-1.994,1.854a.846.846,0,0,0-.281.69ZM51.547,89.384c-.393.254-.8.491-1.172.771a.891.891,0,0,0,.167,1.553,1.166,1.166,0,0,0,.724.085,18.849,18.849,0,0,1,3.13-.178c.894.008,1.79.027,2.683-.045.649-.053,1.011-.441.957-1-.051-.529-.465-.812-1.106-.782q-1.438.067-2.877.02l-.08-.133a2.471,2.471,0,0,0,.332-.242,9.267,9.267,0,0,0,2.107-3.13,4.546,4.546,0,0,0-.254-4.245A2.98,2.98,0,0,0,51.9,81.025a4.919,4.919,0,0,0-1.548,1.464.9.9,0,1,0,1.465,1.025,3.323,3.323,0,0,1,1.044-.983,1.181,1.181,0,0,1,1.677.325,2.237,2.237,0,0,1,.451,1.094,3.406,3.406,0,0,1-.383,2.038A8.472,8.472,0,0,1,51.547,89.384Zm-21.613.662a.8.8,0,0,0-.315.916.78.78,0,0,0,.717.651,5.12,5.12,0,0,0,2.427-.367A.9.9,0,0,0,33.3,90.2a.857.857,0,0,0-.963-.658c-.31.035-.3-.08-.273-.314.163-1.23.193-2.47.252-3.708.053-.976.116-1.952.155-2.928a1.029,1.029,0,0,0-1.636-.813c-.3.223-.589.454-.881.683a.86.86,0,0,0-.339.914.816.816,0,0,0,.7.676c.218.036.3.11.28.341-.11,1.7-.118,3.414-.356,5.109a.687.687,0,0,1-.3.544Zm13.8-1.455c.5.013.992.018,1.487,0a.867.867,0,0,0,.854-.884.878.878,0,0,0-.853-.888c-.261-.015-.523,0-.785,0h0c-.234,0-.469-.012-.7,0-.259.017-.378-.062-.361-.346.022-.385.011-.771,0-1.157a.9.9,0,1,0-1.789-.01c-.006.4-.01.8,0,1.2.007.227-.066.324-.306.315-.385-.015-.771-.013-1.156,0a.89.89,0,1,0,.007,1.779,10.251,10.251,0,0,0,1.033,0c.315-.022.45.066.427.408-.029.411-.011.826-.005,1.239a.9.9,0,1,0,1.79-.018c.005-.427.017-.855-.005-1.281-.016-.285.1-.354.36-.347Zm-8.868,23.268a15.721,15.721,0,0,1-2.493,2.4,3.9,3.9,0,0,1-3.081.841,16.36,16.36,0,0,0-2.956-.25c-.136,0-.326-.086-.387.122a.459.459,0,0,0,.148.488,1.474,1.474,0,0,0,.657.326,17.214,17.214,0,0,0,4.34.239,1.86,1.86,0,0,0,1.588-.908c.559-.873,1.242-1.667,1.869-2.5.419-.555.834-1.114,1.25-1.67l-.063-.066c-.29.326-.576.655-.871.976Zm26.072,3.047a22.069,22.069,0,0,1-3.074.321,3.349,3.349,0,0,1-1.751-.361,14.412,14.412,0,0,1-3.776-2.906c-.11-.111-.186-.267-.414-.328l.439.58c.788,1.037,1.573,2.075,2.367,3.107a1.094,1.094,0,0,0,.579.429,5.353,5.353,0,0,0,1.331.212,21.846,21.846,0,0,0,3.2-.187,1.873,1.873,0,0,0,1.305-.518.285.285,0,0,0,.077-.3c-.062-.152-.187-.066-.284-.047Zm-14.858,1.346a.639.639,0,0,1-.623.435,23.262,23.262,0,0,1-3.3-.1,1.354,1.354,0,0,1-1.3-1.072,9.063,9.063,0,0,1-.269-2,2.107,2.107,0,0,0-.15-.857c0,1.142-.012,2.214,0,3.284a1.319,1.319,0,0,0,.969,1.329,6.375,6.375,0,0,0,4.4-.029,1.337,1.337,0,0,0,.894-1.027,11.507,11.507,0,0,0-.041-2.243A11.4,11.4,0,0,1,46.079,116.252Zm8.884-9.988c-.3-.534-.567-.885-1.256-.866-2.063.058-4.129.02-6.193.023a.814.814,0,0,0-.446.044,1.323,1.323,0,0,0,1.459.815c1.568-.057,3.138-.018,4.707-.018Zm-21.49-.867c-.694-.022-.947.337-1.233.814a.928.928,0,0,0,.473.052c2.036,0,4.073-.033,6.108.022.665.018.948-.319,1.278-.864h-.519c-2.036,0-4.074.041-6.108-.023Zm7.321.874c.908-.02,1.817-.007,2.726-.007s1.845-.014,2.767.007c.331.008.352-.153.335-.4-.016-.222.075-.461-.322-.458q-2.747.026-5.494,0c-.4,0-.351.215-.365.467-.016.267.035.4.352.394Z" transform="translate(-15.066 -40.616)"/>
      <path id="Trazado_1035369" data-name="Trazado 1035369" d="M110.651,114.927a6.623,6.623,0,0,0-5.4-1.86.376.376,0,0,1-.359-.142,3.7,3.7,0,0,0-2.522-1.178,9.734,9.734,0,0,0-6.278,1.622c-.15.1-.294.2-.435.315a.505.505,0,0,0-.141.758.5.5,0,0,0,.761.09c.09-.063.176-.132.267-.195a8.858,8.858,0,0,1,5.3-1.578,3.266,3.266,0,0,1,2.063.666,3.161,3.161,0,0,0-1.585,1.428,1.352,1.352,0,0,0,.1,1.519,1.385,1.385,0,0,0,1.5.448,2.107,2.107,0,0,0,1.679-2.318c-.044-.409.1-.446.431-.444a5.65,5.65,0,0,1,3.624,1.4c.372.306.723.638,1.091.949a.5.5,0,0,0,.77-.031.5.5,0,0,0-.085-.763C111.165,115.386,110.909,115.155,110.651,114.927Zm-7.034.877c-.357.044-.507-.13-.367-.457a1.768,1.768,0,0,1,1.092-.94c.327-.12.111.222.211.269A1.123,1.123,0,0,1,103.617,115.8Zm5.084,12.029a27.5,27.5,0,0,0-4.686.955,1.115,1.115,0,0,0-.616,1.173,9.934,9.934,0,0,0,.818,2.025.491.491,0,0,0,.626.263,2.049,2.049,0,0,0,.627-.3c1.229-.974,2.447-1.964,3.666-2.951a.867.867,0,0,0,.324-.6.609.609,0,0,0-.761-.563Zm-3.558,3.049c-.161.135-.261.12-.331-.078,0-.013-.013-.025-.017-.037-.448-1.292-.557-.956.619-1.267.568-.15,1.149-.248,1.725-.37l.028.076c-.675.557-1.353,1.113-2.024,1.675Zm28.4-16.979a.5.5,0,0,1-.5.506c-.669.078-.669.079-.57.747.156,1.044-.28,1.525-1.351,1.49-.575-.019-.575-.019-.569.534a1.255,1.255,0,0,1-1.266,1.3.5.5,0,0,1-.537-.416.453.453,0,0,1,.331-.583c.362-.082.425-.264.405-.608-.052-.878.476-1.347,1.4-1.294l.082.005c.531.033.53.034.414-.505a5.186,5.186,0,0,1-.115-.607.868.868,0,0,1,.7-1.012,3.212,3.212,0,0,1,1.064-.09.484.484,0,0,1,.5.537Z" transform="translate(-84.785 -76.295)" fill="#fff"/>
    </g>
  </g>
</svg>
