<svg xmlns="http://www.w3.org/2000/svg" width="190" height="102.932" viewBox="0 0 190 102.932">
  <g id="Grupo_1176800" data-name="Grupo 1176800" transform="translate(-1230.051 -383.068)">
    <rect id="Rect치ngulo_404337" data-name="Rect치ngulo 404337" width="190" height="52" rx="5" transform="translate(1230.051 413)" fill="#1d7083"/>
    <rect id="Rect치ngulo_404338" data-name="Rect치ngulo 404338" width="114" height="93" rx="5" transform="translate(1268.051 393)" fill="#36ceef"/>
    <g id="teacher_4202854_6_" data-name="teacher_4202854 (6)" transform="translate(1275.896 383.068)">
      <path id="Trazado_1035514" data-name="Trazado 1035514" d="M59.383,18.691v7.672a4.769,4.769,0,0,0-3.217-1.238c-20.908,0-20.908-8.042-20.908-8.042,0,8.042-8.042,8.042-8.042,8.042A4.769,4.769,0,0,0,24,26.363V18.691a17.691,17.691,0,0,1,35.383,0Z" transform="translate(12.775 0.608)" fill="#555a66"/>
      <path id="Trazado_1035515" data-name="Trazado 1035515" d="M41.691,1A17.682,17.682,0,0,0,24,18.691v6.433a17.691,17.691,0,0,1,35.383,0V18.691A17.682,17.682,0,0,0,41.691,1Z" transform="translate(12.775 0.608)" fill="#414952"/>
      <path id="Trazado_1035516" data-name="Trazado 1035516" d="M38.825,60.825h1.608v6.433H37.217A3.226,3.226,0,0,1,34,64.042V56a4.825,4.825,0,0,0,4.825,4.825Z" transform="translate(18.858 34.066)" fill="#cfa388"/>
      <path id="Trazado_1035517" data-name="Trazado 1035517" d="M38.825,60.825A4.825,4.825,0,0,1,34,56v3.217a4.825,4.825,0,0,0,4.825,4.825h1.608V60.825Z" transform="translate(18.858 34.066)" fill="#b2876d"/>
      <path id="Trazado_1035518" data-name="Trazado 1035518" d="M40.433,47v9.65H38.825A4.825,4.825,0,0,0,34,61.475V50.217A3.226,3.226,0,0,1,37.217,47Z" transform="translate(18.858 28.591)" fill="#cfa388"/>
      <path id="Trazado_1035519" data-name="Trazado 1035519" d="M54.083,59v6.433H38V59H54.083Z" transform="translate(21.291 35.891)" fill="#966857"/>
      <path id="Trazado_1035520" data-name="Trazado 1035520" d="M54.083,59v3.217H38V59H54.083Z" transform="translate(21.291 35.891)" fill="#8d5c4d"/>
      <path id="Trazado_1035521" data-name="Trazado 1035521" d="M54.083,47v9.65H38V47Z" transform="translate(21.291 28.591)" fill="#966857"/>
      <path id="Trazado_1035522" data-name="Trazado 1035522" d="M39.258,37.825,34.433,42.65,28,36.217V34.608L34.433,33Z" transform="translate(15.208 20.074)" fill="#bec3d2"/>
      <path id="Trazado_1035523" data-name="Trazado 1035523" d="M46.258,34.721v1.5L39.825,42.65,35,37.825,39.825,33Z" transform="translate(19.466 20.074)" fill="#bec3d2"/>
      <path id="Trazado_1035524" data-name="Trazado 1035524" d="M41.65,40.825l-3.217,3.217H35.217L32,40.825,36.825,36Z" transform="translate(17.641 21.899)" fill="#4ab8f7"/>
      <path id="Trazado_1035525" data-name="Trazado 1035525" d="M39.042,41l2.219,9.65H39.042a3.226,3.226,0,0,0-3.217,3.217V65.125L31,61.908,35.825,41Z" transform="translate(17.033 24.941)" fill="#19cffc"/>
      <path id="Trazado_1035526" data-name="Trazado 1035526" d="M16.867,51a60.253,60.253,0,0,1-1.608,12.867S4,63.867,4,51a6.433,6.433,0,1,0,12.867,0Z" transform="translate(0.608 31.024)" fill="#bec3d2"/>
      <path id="Trazado_1035527" data-name="Trazado 1035527" d="M53,51H63.309c.1.627.193,1.271.273,1.93a9.59,9.59,0,0,1-2.638,7.977C60.109,54.217,53,54.217,53,54.217Z" transform="translate(30.416 31.024)" fill="#bec3d2"/>
      <path id="Trazado_1035528" data-name="Trazado 1035528" d="M48,59h8.042v6.433H48Z" transform="translate(27.374 35.891)" fill="#f2f6fc"/>
      <path id="Trazado_1035529" data-name="Trazado 1035529" d="M51.208,80.641H25.475V56.516L11,74.208a60.253,60.253,0,0,0,1.608-12.867l3.217-19.3,3.217-3.217L38.341,34v1.608l6.433,6.433,3.217,3.217L43.166,66.166l4.825,3.217v8.042A3.226,3.226,0,0,0,51.208,80.641Z" transform="translate(4.867 20.683)" fill="#dce1eb"/>
      <path id="Trazado_1035530" data-name="Trazado 1035530" d="M63.341,61.3v3.217H55.3v-9.65H38.219L36,45.216,39.217,42l6.433-6.433v-1.5l17.691,4.712S70.949,44.218,73.651,61.3Z" transform="translate(20.074 20.725)" fill="#dce1eb"/>
      <path id="Trazado_1035531" data-name="Trazado 1035531" d="M16.825,26V37.258H12V26Z" transform="translate(5.475 15.816)" fill="#faa68e"/>
      <path id="Trazado_1035532" data-name="Trazado 1035532" d="M6,30h9.65v4.825H6Z" transform="translate(1.825 18.249)" fill="#ffcdbe"/>
      <path id="Trazado_1035533" data-name="Trazado 1035533" d="M18.867,37.825a4.725,4.725,0,0,0-4.825,4.825H9.217L6,39.433V33h8.042a4.725,4.725,0,0,0,4.825,4.825Z" transform="translate(1.825 20.074)" fill="#faa68e"/>
      <path id="Trazado_1035534" data-name="Trazado 1035534" d="M19.042,33v6.433L15.825,42.65H11a4.725,4.725,0,0,1,4.825-4.825A4.725,4.725,0,0,1,11,33Z" transform="translate(4.866 20.074)" fill="#ffbeaa"/>
      <path id="Trazado_1035535" data-name="Trazado 1035535" d="M20.083,39,16.867,58.3A6.433,6.433,0,1,1,4,58.3L10.433,39Z" transform="translate(0.608 23.724)" fill="#ffcdbe"/>
      <path id="Trazado_1035536" data-name="Trazado 1035536" d="M13.65,63.125a6.433,6.433,0,0,1-6.433-6.433L13.114,39H10.433L4,58.3a6.414,6.414,0,0,0,10.789,4.711,6.492,6.492,0,0,1-1.139.114Z" transform="translate(0.608 23.724)" fill="#ffbeaa"/>
      <path id="Trazado_1035537" data-name="Trazado 1035537" d="M64.558,53s7.109,0,7.945,6.691a9.536,9.536,0,0,1-6.932,2.959H38.825a4.825,4.825,0,1,1,0-9.65Z" transform="translate(18.858 32.241)" fill="#ffcdbe"/>
      <path id="Trazado_1035538" data-name="Trazado 1035538" d="M65.566,58.217H38.82A4.765,4.765,0,0,1,34.291,55a4.81,4.81,0,0,0,4.529,6.433H65.566A9.536,9.536,0,0,0,72.5,58.474a7.855,7.855,0,0,0-.743-2.522,9.521,9.521,0,0,1-6.189,2.265Z" transform="translate(18.863 33.457)" fill="#ffbeaa"/>
      <g id="Grupo_1176899" data-name="Grupo 1176899" transform="translate(35.166 25.733)">
        <path id="Trazado_1035539" data-name="Trazado 1035539" d="M41.65,30.48v4.053l-4.825,4.825L32,34.533V30.48a14.337,14.337,0,0,0,9.65,0Z" transform="translate(-17.525 -7.192)" fill="#faa68e"/>
        <path id="Trazado_1035540" data-name="Trazado 1035540" d="M24.608,17.238A4.769,4.769,0,0,1,27.825,16v9.65A4.825,4.825,0,0,1,23,20.825,4.728,4.728,0,0,1,24.608,17.238Z" transform="translate(-23 -16)" fill="#faa68e"/>
        <path id="Trazado_1035541" data-name="Trazado 1035541" d="M44,16a4.825,4.825,0,0,1,0,9.65Z" transform="translate(-10.225 -16)" fill="#faa68e"/>
      </g>
      <path id="Trazado_1035542" data-name="Trazado 1035542" d="M54.95,19.042v9.65a14.475,14.475,0,0,1-28.95,0v-9.65s8.042,0,8.042-8.042C34.042,11,34.042,19.042,54.95,19.042Z" transform="translate(13.991 6.691)" fill="#ffcdbe"/>
      <path id="Trazado_1035543" data-name="Trazado 1035543" d="M34.042,11c0,8.042-8.042,8.042-8.042,8.042v3.217s8.042,0,8.042-8.042c0,0,0,8.042,20.908,8.042V19.042C34.042,19.042,34.042,11,34.042,11Z" transform="translate(13.991 6.691)" fill="#ffbeaa"/>
      <path id="Trazado_1035544" data-name="Trazado 1035544" d="M41.083,45.383A16.1,16.1,0,0,1,25,29.3V19.65a1.608,1.608,0,0,1,1.608-1.608,6.192,6.192,0,0,0,6.433-6.433,1.608,1.608,0,1,1,3.217,0c0,.013.661,6.433,19.3,6.433a1.608,1.608,0,0,1,1.608,1.608V29.3A16.1,16.1,0,0,1,41.083,45.383ZM28.217,21.121V29.3a12.867,12.867,0,1,0,25.733,0V21.242c-10.911-.222-16.131-2.708-18.629-5.111A9.362,9.362,0,0,1,28.217,21.121Z" transform="translate(13.383 6.083)"/>
      <path id="Trazado_1035545" data-name="Trazado 1035545" d="M44,27.867V24.65a3.217,3.217,0,1,0,0-6.433V15a6.433,6.433,0,1,1,0,12.867Z" transform="translate(24.941 9.125)"/>
      <path id="Trazado_1035546" data-name="Trazado 1035546" d="M28.433,27.867a6.433,6.433,0,1,1,0-12.867v3.217a3.217,3.217,0,1,0,0,6.433Z" transform="translate(11.558 9.125)"/>
      <path id="Trazado_1035547" data-name="Trazado 1035547" d="M61.6,27.341H58.383V19.3a16.083,16.083,0,1,0-32.166,0v8.042H23V19.3a19.3,19.3,0,1,1,38.6,0Z" transform="translate(12.166)"/>
      <path id="Trazado_1035551" data-name="Trazado 1035551" d="M37.433,41.258a1.608,1.608,0,0,1-1.137-.471l-4.825-4.825A1.608,1.608,0,0,1,31,34.825V30h3.217v4.159l3.217,3.217,3.217-3.217V30h3.217v4.825a1.608,1.608,0,0,1-.471,1.137L38.57,40.787A1.608,1.608,0,0,1,37.433,41.258Z" transform="translate(17.033 18.249)"/>
      <path id="Trazado_1035552" data-name="Trazado 1035552" d="M66.184,77.012H39.433a6.433,6.433,0,1,1,0-12.867H63.558V54.5h3.217V65.754a1.608,1.608,0,0,1-1.608,1.608H39.433a3.217,3.217,0,1,0,0,6.433H66.184a8.021,8.021,0,0,0,6.03-2.734,8.1,8.1,0,0,0,1.944-6.393c-2.076-15.937-8.51-22.135-9.735-23.181l-23.8-6.346.83-3.107,24.125,6.433a1.608,1.608,0,0,1,.519.244c.357.256,8.76,6.457,11.247,25.542A11.281,11.281,0,0,1,66.184,77.012Z" transform="translate(18.249 19.487)"/>
      <path id="Trazado_1035553" data-name="Trazado 1035553" d="M57.125,74.95h-19.3A4.825,4.825,0,0,1,33,70.125v-19.3A4.825,4.825,0,0,1,37.825,46h19.3a1.608,1.608,0,0,1,1.608,1.608v9.65H55.516V49.217H37.825a1.608,1.608,0,0,0-1.608,1.608v19.3a1.608,1.608,0,0,0,1.608,1.608H55.516V66.908h3.217v6.433A1.608,1.608,0,0,1,57.125,74.95Z" transform="translate(18.249 27.982)"/>
      <path id="Trazado_1035554" data-name="Trazado 1035554" d="M37,47h3.217v9.65H37Z" transform="translate(20.683 28.591)"/>
      <path id="Trazado_1035555" data-name="Trazado 1035555" d="M37,59h3.217v6.433H37Z" transform="translate(20.683 35.891)"/>
      <path id="Trazado_1035556" data-name="Trazado 1035556" d="M56.042,67.042H48V63.825h6.433V59H57.65v6.433A1.608,1.608,0,0,1,56.042,67.042Z" transform="translate(27.374 35.891)"/>
      <path id="Trazado_1035557" data-name="Trazado 1035557" d="M11.042,66.95A8.051,8.051,0,0,1,3,58.908a1.608,1.608,0,0,1,.082-.508L9.515,39.1A1.608,1.608,0,0,1,11.042,38h9.65a1.608,1.608,0,0,1,1.586,1.874L19.083,59.048a8.05,8.05,0,0,1-8.042,7.9Zm-4.825-7.8a4.826,4.826,0,1,0,9.65-.243,1.478,1.478,0,0,1,.023-.265l2.9-17.426H12.2Z" transform="translate(0 23.116)"/>
      <path id="Trazado_1035558" data-name="Trazado 1035558" d="M17.572,44.4,15.3,42.121l2.745-2.745v-.942a1.608,1.608,0,0,1-1.608,1.608,3.027,3.027,0,0,0-3.217,3.217H10a6.1,6.1,0,0,1,2.043-4.817A6.8,6.8,0,0,1,10,33.608,1.608,1.608,0,0,1,11.61,32h8.042a1.608,1.608,0,0,1,1.608,1.608v6.433a1.608,1.608,0,0,1-.471,1.137Zm-3.993-9.179a2.874,2.874,0,0,0,2.856,1.608,1.608,1.608,0,0,1,1.608,1.608V35.217Z" transform="translate(4.256 19.466)"/>
      <path id="Trazado_1035559" data-name="Trazado 1035559" d="M19.042,37.867H15.825v-9.65H14.217v9.65H11V26.608A1.608,1.608,0,0,1,12.608,25h4.825a1.608,1.608,0,0,1,1.608,1.608Z" transform="translate(4.867 15.208)"/>
      <path id="Trazado_1035560" data-name="Trazado 1035560" d="M14.65,37.042H6.608A1.608,1.608,0,0,1,5,35.433V30.608A1.608,1.608,0,0,1,6.608,29h9.65v3.217H8.217v1.608H14.65Z" transform="translate(1.217 17.641)"/>
      <path id="Trazado_1035561" data-name="Trazado 1035561" d="M8.688,43.787,5.471,40.57A1.608,1.608,0,0,1,5,39.433V33H8.217v5.767l2.745,2.745Z" transform="translate(1.217 20.074)"/>
      <path id="Trazado_1035562" data-name="Trazado 1035562" d="M59.35,60.5c-.635-5.084-5.774-5.282-6.35-5.282V52a9.357,9.357,0,0,1,9.541,8.1Z" transform="translate(30.416 31.631)"/>
      <path id="Trazado_1035563" data-name="Trazado 1035563" d="M53,50H64.258v3.217H53Z" transform="translate(30.416 30.416)"/>
      <path id="Trazado_1035564" data-name="Trazado 1035564" d="M0,0H26.524V3.217H0Z" transform="translate(23.536 57.934) rotate(-14.064)"/>
      <path id="Trazado_1035565" data-name="Trazado 1035565" d="M56.074,74.341H30.341a1.608,1.608,0,0,1-1.608-1.608V53.111l-11.622,14.2a1.608,1.608,0,0,1-1.245.592C15.738,67.907,3,67.747,3,53.433H6.217c0,9.378,6.67,10.945,8.931,11.207L29.1,47.591a1.608,1.608,0,0,1,2.853,1.016V71.124H56.074Z" transform="translate(0 28.591)"/>
      <path id="Trazado_1035566" data-name="Trazado 1035566" d="M13.15,64.257l-3.12-.782A59.163,59.163,0,0,0,11.59,51h3.217A61.367,61.367,0,0,1,13.15,64.257Z" transform="translate(4.276 31.024)"/>
      <path id="Trazado_1035567" data-name="Trazado 1035567" d="M44.691,43.65a1.608,1.608,0,0,1-1.137-.471l-3.688-3.688-3.688,3.688a1.608,1.608,0,0,1-2.274,0l-6.433-6.433A1.608,1.608,0,0,1,27,35.608V34h3.217v.942l4.825,4.825,3.688-3.688a1.608,1.608,0,0,1,2.274,0l3.688,3.688,4.825-4.825V34h3.217v1.608a1.608,1.608,0,0,1-.471,1.137l-6.433,6.434A1.608,1.608,0,0,1,44.691,43.65Z" transform="translate(14.6 20.683)"/>
      <path id="Trazado_1035568" data-name="Trazado 1035568" d="M38.863,44.255H35.647a1.608,1.608,0,0,1-1.137-.471l-3.217-3.217,2.274-2.274,2.745,2.745H38.2l2.745-2.745,2.274,2.274L40,43.784a1.608,1.608,0,0,1-1.137.471Z" transform="translate(17.211 23.294)"/>
      <path id="Trazado_1035569" data-name="Trazado 1035569" d="M35.541,66.6l-4.825-3.217a1.608,1.608,0,0,1-.675-1.7l4.825-20.908L38,41.5,33.426,61.323l3.9,2.6Z" transform="translate(16.424 24.804)"/>
      <path id="Trazado_1035570" data-name="Trazado 1035570" d="M0,0H3.217V9.9H0Z" transform="translate(54.524 66.339) rotate(-12.939)"/>
      <path id="Trazado_1035571" data-name="Trazado 1035571" d="M13,17h3.217v9.65H13Z" transform="translate(6.083 10.341)"/>
      <path id="Trazado_1035572" data-name="Trazado 1035572" d="M0,0H9.1V3.217H0Z" transform="translate(22.766 35.853) rotate(-45)"/>
      <path id="Trazado_1035573" data-name="Trazado 1035573" d="M0,0H3.217V9.1H0Z" transform="translate(9.901 31.694) rotate(-45)"/>
    </g>
  </g>
</svg>
