<svg xmlns="http://www.w3.org/2000/svg" xmlns:xlink="http://www.w3.org/1999/xlink" width="118" height="118" viewBox="0 0 118 118">
  <defs>
    <filter id="Trazado_982547" x="0" y="0" width="118" height="118" filterUnits="userSpaceOnUse">
      <feOffset dy="3" input="SourceAlpha"/>
      <feGaussianBlur stdDeviation="3" result="blur"/>
      <feFlood flood-opacity="0.161"/>
      <feComposite operator="in" in2="blur"/>
      <feComposite in="SourceGraphic"/>
    </filter>
  </defs>
  <g id="Grupo_1176832" data-name="Grupo 1176832" transform="translate(-269 -9658.328)">
    <g id="Grupo_1176356" data-name="Grupo 1176356" transform="translate(278 9664.328)">
      <g id="Grupo_1172970" data-name="Grupo 1172970" transform="translate(0)">
        <g id="Grupo_1171971" data-name="Grupo 1171971">
          <g id="Grupo_1167337" data-name="Grupo 1167337">
            <g id="Grupo_1166720" data-name="Grupo 1166720">
              <g id="Grupo_1164305" data-name="Grupo 1164305">
                <g id="Grupo_1163948" data-name="Grupo 1163948">
                  <g id="Grupo_1158168" data-name="Grupo 1158168">
                    <g id="Grupo_1152576" data-name="Grupo 1152576">
                      <g id="Grupo_1148633" data-name="Grupo 1148633">
                        <g id="Grupo_1148525" data-name="Grupo 1148525">
                          <g transform="matrix(1, 0, 0, 1, -9, -6)" filter="url(#Trazado_982547)">
                            <g id="Trazado_982547-2" data-name="Trazado 982547" transform="translate(9 6)" fill="#f2f7e5">
                              <path d="M 50 98.5 C 43.45188522338867 98.5 37.10042953491211 97.21787261962891 31.12207221984863 94.68923950195312 C 25.34691429138184 92.24655914306641 20.15995788574219 88.74932861328125 15.70532894134521 84.29468536376953 C 11.2506856918335 79.84004211425781 7.753442764282227 74.65309906005859 5.310757160186768 68.87794494628906 C 2.782128572463989 62.89958572387695 1.5 56.54813003540039 1.5 50 C 1.5 43.45188522338867 2.782128572463989 37.10042953491211 5.310757160186768 31.12207221984863 C 7.753442764282227 25.34691429138184 11.2506856918335 20.15997123718262 15.70532894134521 15.70532894134521 C 20.15997123718262 11.2506856918335 25.34691429138184 7.753442764282227 31.12207221984863 5.310757160186768 C 37.10042953491211 2.782128572463989 43.45188522338867 1.5 50 1.5 C 56.54813003540039 1.5 62.89958572387695 2.782128572463989 68.87794494628906 5.310757160186768 C 74.65309906005859 7.753442764282227 79.84004211425781 11.2506856918335 84.29468536376953 15.70532894134521 C 88.74932861328125 20.15995788574219 92.24655914306641 25.34691429138184 94.68923950195312 31.12207221984863 C 97.21787261962891 37.10042953491211 98.5 43.45188522338867 98.5 50 C 98.5 56.54813003540039 97.21787261962891 62.89958572387695 94.68923950195312 68.87794494628906 C 92.24655914306641 74.65309906005859 88.74932861328125 79.84004211425781 84.29468536376953 84.29468536376953 C 79.84004211425781 88.74932861328125 74.65309906005859 92.24655914306641 68.87794494628906 94.68923950195312 C 62.89958572387695 97.21787261962891 56.54813003540039 98.5 50 98.5 Z" stroke="none"/>
                              <path d="M 50 3 C 43.65372467041016 3 37.49886322021484 4.242263793945312 31.70639801025391 6.6922607421875 C 26.11003112792969 9.059326171875 21.08335113525391 12.44861602783203 16.76598358154297 16.76598358154297 C 12.44861602783203 21.08335113525391 9.059326171875 26.11003112792969 6.6922607421875 31.70639801025391 C 4.242263793945312 37.49886322021484 3 43.65372467041016 3 50 C 3 56.34629058837891 4.242263793945312 62.50115203857422 6.6922607421875 68.29361724853516 C 9.059326171875 73.88998413085938 12.44861602783203 78.91666412353516 16.76598358154297 83.23403167724609 C 21.08335113525391 87.55138397216797 26.11003112792969 90.940673828125 31.70639801025391 93.3077392578125 C 37.49886322021484 95.75773620605469 43.65372467041016 97 50 97 C 56.34629058837891 97 62.50115203857422 95.75773620605469 68.29361724853516 93.3077392578125 C 73.88998413085938 90.940673828125 78.91666412353516 87.55138397216797 83.23403167724609 83.23403167724609 C 87.55138397216797 78.91666412353516 90.940673828125 73.88998413085938 93.3077392578125 68.29361724853516 C 95.75773620605469 62.50115203857422 97 56.34629058837891 97 50 C 97 43.65372467041016 95.75773620605469 37.49886322021484 93.3077392578125 31.70639801025391 C 90.940673828125 26.11003112792969 87.55138397216797 21.08335113525391 83.23403167724609 16.76598358154297 C 78.91666412353516 12.44861602783203 73.88998413085938 9.059326171875 68.29361724853516 6.6922607421875 C 62.50115203857422 4.242263793945312 56.34629058837891 3 50 3 M 50 0 C 77.6142578125 0 100 22.38577270507812 100 50 C 100 77.6142578125 77.6142578125 100 50 100 C 22.38577270507812 100 0 77.6142578125 0 50 C 0 22.38577270507812 22.38577270507812 0 50 0 Z" stroke="none" fill="#86b60c"/>
                            </g>
                          </g>
                        </g>
                      </g>
                    </g>
                  </g>
                </g>
              </g>
            </g>
          </g>
        </g>
      </g>
    </g>
    <g id="cost_18624398" transform="translate(279.274 9664.505)">
      <path id="Trazado_1035370" data-name="Trazado 1035370" d="M249.231,90.744l-2.992-2.992,2.037-2.037a10.249,10.249,0,0,1-1.459-3.524h-2.881V77.961h2.882a10.25,10.25,0,0,1,1.459-3.524L246.24,72.4l2.992-2.992,2.037,2.037a10.247,10.247,0,0,1,3.524-1.459V67.1h4.23v2.881a10.248,10.248,0,0,1,3.524,1.459l2.037-2.037,2.992,2.992-2.037,2.037A10.248,10.248,0,0,1,267,77.961h2.882v4.231H267a10.251,10.251,0,0,1-1.459,3.524l2.037,2.037-2.992,2.992-2.037-2.037a10.252,10.252,0,0,1-3.524,1.459v2.882h-4.231V90.166a10.25,10.25,0,0,1-3.524-1.459l-2.037,2.037ZM252.5,75.67a6.231,6.231,0,1,0,8.812,0,6.231,6.231,0,0,0-8.812,0Z" transform="translate(-196.768 -42.778)" fill="#c6cbd3" fill-rule="evenodd"/>
      <rect id="Rectángulo_415858" data-name="Rectángulo 415858" width="36.701" height="40.439" rx="2" transform="translate(19.033 37.965)" fill="#d8ecfe"/>
      <path id="Trazado_1035371" data-name="Trazado 1035371" d="M56.973,203.727h28.7v6.7h-28.7Z" transform="translate(-33.942 -161.763)" fill="#8ac9fe"/>
      <path id="Trazado_1035372" data-name="Trazado 1035372" d="M70.986,302.043H75.73v4.745H70.986Zm20.341-8.875h4.744v13.62H91.327Zm0-8.875h4.744v4.745H91.327Zm-10.171,0H85.9v4.745H81.157Zm-10.171,0H75.73v4.745H70.986Zm0,8.875H75.73v4.745H70.986Zm10.171,0H85.9v4.745H81.157Zm0,8.875H85.9v4.745H81.157Z" transform="translate(-46.146 -231.927)" fill="#54c4cc" fill-rule="evenodd"/>
      <circle id="Elipse_12284" data-name="Elipse 12284" cx="12.255" cy="12.255" r="12.255" transform="translate(53.909 53.895)" fill="#ffb030"/>
      <path id="Trazado_1035373" data-name="Trazado 1035373" d="M72.082,46.018a1.029,1.029,0,1,1,2.058,0v1.357A17.248,17.248,0,1,0,43.008,35.3a1.031,1.031,0,0,1-2.049-.234A19.311,19.311,0,1,1,75.839,48.54l2.365-.5a1.031,1.031,0,0,1,.428,2.017l-5.308,1.131v0a1.029,1.029,0,0,1-1.242-1.007V46.018ZM70.27,63.69a1.033,1.033,0,1,1-2.066,0c0-1.273-2.3-1.953-3.572-.936a1.226,1.226,0,0,0-.509.936c0,1.015,1.117,1.231,2.234,1.447,1.956.378,3.912.756,3.912,3.472a3.653,3.653,0,0,1-3.073,3.38v1.089a1.033,1.033,0,0,1-2.066,0V71.989a3.653,3.653,0,0,1-3.073-3.38,1.033,1.033,0,0,1,2.066,0c0,1.273,2.3,1.953,3.572.936a1.225,1.225,0,0,0,.509-.936c0-1.015-1.117-1.231-2.234-1.447-1.956-.378-3.912-.756-3.912-3.472a3.653,3.653,0,0,1,3.073-3.38V59.221a1.033,1.033,0,1,1,2.066,0v1.089a3.653,3.653,0,0,1,3.073,3.38ZM66.164,52.862a13.246,13.246,0,0,0-9.4,3.893V48.125l.224.067v2.077h0A1.029,1.029,0,0,0,58.024,51.3h4.141a1.03,1.03,0,0,0,1.123-1.029V48.192a11.427,11.427,0,0,0,2.33-.963L67.085,48.7a1.033,1.033,0,0,0,1.46,0L71.537,45.7a1.033,1.033,0,0,0,0-1.46L70.07,42.777a11.428,11.428,0,0,0,.963-2.33H73.11a1.033,1.033,0,0,0,1.033-1.033V35.182a1.033,1.033,0,0,0-1.033-1.033H71.034a11.429,11.429,0,0,0-.963-2.33l1.467-1.467a1.033,1.033,0,0,0,0-1.46L68.546,25.9a1.033,1.033,0,0,0-1.46,0l-1.467,1.467a11.447,11.447,0,0,0-2.33-.963V24.326h0A1.029,1.029,0,0,0,62.255,23.3H58.115a1.029,1.029,0,0,0-1.123,1.029V26.4a11.439,11.439,0,0,0-2.33.963L53.193,25.9a1.033,1.033,0,0,0-1.46,0l-2.992,2.992a1.033,1.033,0,0,0,0,1.46l1.468,1.468a11.437,11.437,0,0,0-.963,2.33H47.168a1.033,1.033,0,0,0-1.033,1.033v1.75H21.659A3.667,3.667,0,0,0,18,40.593V75.778a3.667,3.667,0,0,0,3.659,3.659H53.108a3.667,3.667,0,0,0,3.659-3.659v-.234a13.287,13.287,0,1,0,9.4-22.682ZM54.7,72.874a13.3,13.3,0,0,1,0-13.449V40.593A1.6,1.6,0,0,0,53.107,39H21.659a1.6,1.6,0,0,0-1.594,1.594V75.778a1.6,1.6,0,0,0,1.594,1.594H53.108A1.6,1.6,0,0,0,54.7,75.778v-2.9ZM66.164,54.928A11.222,11.222,0,1,0,77.385,66.15,11.222,11.222,0,0,0,66.164,54.928ZM24.84,69.083h4.744a1.033,1.033,0,0,1,1.033,1.033v4.745a1.033,1.033,0,0,1-1.033,1.033H24.84a1.033,1.033,0,0,1-1.033-1.033V70.116A1.033,1.033,0,0,1,24.84,69.083Zm3.711,2.066v2.679H25.873V71.149Zm16.63-10.941h4.744a1.033,1.033,0,0,1,1.033,1.033V74.86a1.033,1.033,0,0,1-1.033,1.033H45.182a1.033,1.033,0,0,1-1.033-1.033V61.241A1.033,1.033,0,0,1,45.182,60.208Zm3.711,2.066V73.828H46.215V62.273ZM45.182,51.333h4.744a1.033,1.033,0,0,1,1.033,1.033V57.11a1.033,1.033,0,0,1-1.033,1.033H45.182a1.033,1.033,0,0,1-1.033-1.033V52.365A1.033,1.033,0,0,1,45.182,51.333ZM48.893,53.4v2.679H46.215V53.4ZM35.011,51.333h4.744a1.033,1.033,0,0,1,1.033,1.033V57.11a1.033,1.033,0,0,1-1.033,1.033H35.011a1.033,1.033,0,0,1-1.033-1.033V52.365A1.033,1.033,0,0,1,35.011,51.333ZM38.723,53.4v2.679H36.044V53.4ZM24.84,51.333h4.744a1.033,1.033,0,0,1,1.033,1.033V57.11a1.033,1.033,0,0,1-1.033,1.033H24.84a1.033,1.033,0,0,1-1.033-1.033V52.365A1.033,1.033,0,0,1,24.84,51.333ZM28.552,53.4v2.679H25.873V53.4Zm-3.711,6.81h4.744a1.033,1.033,0,0,1,1.033,1.033v4.745a1.033,1.033,0,0,1-1.033,1.033H24.84a1.033,1.033,0,0,1-1.033-1.033V61.241A1.033,1.033,0,0,1,24.84,60.208Zm3.711,2.066v2.679H25.873V62.273Zm6.459-2.066h4.744a1.033,1.033,0,0,1,1.033,1.033v4.745a1.033,1.033,0,0,1-1.033,1.033H35.011a1.033,1.033,0,0,1-1.033-1.033V61.241A1.033,1.033,0,0,1,35.011,60.208Zm3.712,2.066v2.679H36.044V62.273Zm-3.712,6.81h4.744a1.033,1.033,0,0,1,1.033,1.033v4.745a1.033,1.033,0,0,1-1.033,1.033H35.011a1.033,1.033,0,0,1-1.033-1.033V70.116A1.033,1.033,0,0,1,35.011,69.083Zm3.712,2.066v2.679H36.044V71.149ZM23.031,40.932A1.033,1.033,0,0,0,22,41.964v6.7A1.033,1.033,0,0,0,23.031,49.7h28.7a1.033,1.033,0,0,0,1.033-1.033v-6.7a1.033,1.033,0,0,0-1.033-1.033ZM50.7,43H24.064v4.636H50.7Zm-2.5-6.065h4.688a7.253,7.253,0,1,1,3.877,6.8v2.215a9.519,9.519,0,0,0,1.4.42,1.033,1.033,0,0,1,.891,1.023V49.24h2.166V47.388h0a1.031,1.031,0,0,1,.821-1.009,9.215,9.215,0,0,0,3.131-1.289,1.033,1.033,0,0,1,1.333.109l1.307,1.306,1.531-1.532L68.04,43.667h0a1.033,1.033,0,0,1-.134-1.294,9.13,9.13,0,0,0,1.3-3.1,1.033,1.033,0,0,1,1.023-.891h1.849V36.215H70.229v0a1.031,1.031,0,0,1-1.009-.821,9.217,9.217,0,0,0-1.289-3.131,1.033,1.033,0,0,1,.109-1.333l1.306-1.306L67.815,28.09,66.509,29.4a1.032,1.032,0,0,1-1.294.134,9.126,9.126,0,0,0-3.1-1.3,1.033,1.033,0,0,1-.891-1.023V25.355H59.056v1.853h0a1.03,1.03,0,0,1-.821,1.009A9.215,9.215,0,0,0,55.1,29.505,1.033,1.033,0,0,1,53.77,29.4L52.463,28.09l-1.532,1.531,1.306,1.306a1.033,1.033,0,0,1,.134,1.294,9.13,9.13,0,0,0-1.3,3.1,1.033,1.033,0,0,1-1.023.891H48.2v.718Zm6.732.491a3.665,3.665,0,0,1,1.834,3.169v.665a5.2,5.2,0,1,0-1.829-3.936q0,.051,0,.1Z" fill="#0b0a0a" fill-rule="evenodd"/>
    </g>
  </g>
</svg>
