<svg xmlns="http://www.w3.org/2000/svg" xmlns:xlink="http://www.w3.org/1999/xlink" width="190" height="171" viewBox="0 0 190 171">
  <defs>
    <clipPath id="clip-path">
      <rect id="Rect치ngulo_415857" data-name="Rect치ngulo 415857" width="190" height="171" transform="translate(810 1043)" fill="#fff" stroke="#707070" stroke-width="1"/>
    </clipPath>
  </defs>
  <g id="Enmascarar_grupo_1098800" data-name="Enmascarar grupo 1098800" transform="translate(-810 -1043)" clip-path="url(#clip-path)">
    <g id="Female_teacher" data-name="Female teacher" transform="translate(829.09 1043)">
      <path id="Trazado_1035255" data-name="Trazado 1035255" d="M29.27,1H146.311V8.123H29.27Z" transform="translate(22.818 0.781)" fill="#f4a261"/>
      <path id="Trazado_1035256" data-name="Trazado 1035256" d="M102.325,1h-53.7a3.561,3.561,0,0,0,0,7.123h53.7a3.561,3.561,0,0,0,0-7.123Z" transform="translate(35.145 0.781)" fill="#f4d49d"/>
      <path id="Trazado_1035257" data-name="Trazado 1035257" d="M37.17,5H140.144V89.456H37.17Z" transform="translate(28.985 3.903)" fill="#264653"/>
      <path id="Trazado_1035258" data-name="Trazado 1035258" d="M46.3,10.009a3.775,3.775,0,0,0-4.131,3.259V29.293a3.561,3.561,0,0,0,6.179,2.564L64.038,16.17a3.561,3.561,0,0,0-2.582-6.161Z" transform="translate(32.887 7.797)" fill="#265a67"/>
      <path id="Trazado_1035259" data-name="Trazado 1035259" d="M75.984,16.553,48.723,43.832A22.276,22.276,0,0,0,42.17,59.626V73.391A3.775,3.775,0,0,0,46.3,76.667H95.286a22.311,22.311,0,0,0,15.794-6.553l18.608-18.626a22.311,22.311,0,0,0,6.553-15.794V10H91.725a22.276,22.276,0,0,0-15.741,6.553Z" transform="translate(32.889 7.806)" fill="#265a67"/>
      <path id="Trazado_1035260" data-name="Trazado 1035260" d="M97.2,40.018l-9.615,9.615a2.422,2.422,0,0,0,1.781,4.149H99a2.422,2.422,0,0,0,2.35-2.422V41.727A2.422,2.422,0,0,0,97.2,40.018Z" transform="translate(67.777 30.674)" fill="#265a67"/>
      <path id="Trazado_1035261" data-name="Trazado 1035261" d="M136.507,52.43H41.83v6.8h94.677Z" transform="translate(32.623 40.929)" fill="#f4a261"/>
      <path id="Trazado_1035262" data-name="Trazado 1035262" d="M99.517,55.831a3.4,3.4,0,0,0-3.4-3.4h-34.3a3.4,3.4,0,1,0,0,6.8h34.3a3.419,3.419,0,0,0,3.4-3.4Z" transform="translate(45.574 40.929)" fill="#f4d49d"/>
      <path id="Trazado_1035263" data-name="Trazado 1035263" d="M136.507,56.25H41.83V65.6h94.677Z" transform="translate(32.623 43.911)" fill="#f4a261"/>
      <path id="Trazado_1035264" data-name="Trazado 1035264" d="M126.915,56.25H36.85V65.6h90.065Z" transform="translate(28.736 43.911)" fill="#f47543"/>
      <path id="Trazado_1035265" data-name="Trazado 1035265" d="M12.859,69.316C5.309,63.155,8.408,52.88,9.3,48.678l1.442-7H23.009V69.316Z" transform="translate(6.145 32.537)" fill="#353c60"/>
      <path id="Trazado_1035266" data-name="Trazado 1035266" d="M83.947,47.052v3.4A79.737,79.737,0,0,1,77.234,82.5L73.37,92.173,19.951,91.71A74.11,74.11,0,0,1,7.932,50.453V47.07c0-7.247,0-43.287,38-43.27,36.646-.018,38.017,35.969,38.017,43.252Z" transform="translate(6.158 2.966)" fill="#353c60"/>
      <path id="Trazado_1035267" data-name="Trazado 1035267" d="M50.538,10.589a38.034,38.034,0,0,0-28.668,0,3.027,3.027,0,0,0,1.193,5.8H49.292a3.045,3.045,0,0,0,1.246-5.8Z" transform="translate(15.617 6.077)" fill="#355fa1"/>
      <path id="Trazado_1035268" data-name="Trazado 1035268" d="M63.365,52.434a73.772,73.772,0,0,1-4.345,27.4l-38.747-.427C16.623,70.134,16,62.156,16,52.434c0-5.52,0-32.942,23.718-32.924C62.51,19.421,63.365,46.825,63.365,52.434Z" transform="translate(12.459 15.23)" fill="#352d51"/>
      <path id="Trazado_1035269" data-name="Trazado 1035269" d="M119.821,80.932,98.81,116.082a11.111,11.111,0,0,1-15.153,3.882l1.015,10.541H44.464C14.1,114.568,22.242,119,9.884,111.9A17.7,17.7,0,0,1,3.207,88.055C6.768,81.466,15.12,66.3,20.266,60.864a40.439,40.439,0,0,1,7.71-6.927,27,27,0,0,1,14.726-4.4c16.026,0,17.682-.16,20.744.392C74.753,51.8,84.191,61.363,88.019,72.207a164.23,164.23,0,0,1,5.164,20.139l12.464-21.51Z" transform="translate(0.768 38.656)" fill="#f4d493"/>
      <path id="Trazado_1035270" data-name="Trazado 1035270" d="M101.22,75.691,84.945,102.4a3.757,3.757,0,0,1-6.82-.89L70.9,77.347C66.6,63.1,52.359,54.7,38.221,54.7c-5.7,0-8.494-.214-12.732,1l-2.867.819A7.123,7.123,0,0,1,15.5,54.733a26.888,26.888,0,0,1,15.83-5.164c16.026,0,17.682-.16,20.744.392,11.307,1.87,20.744,11.432,24.573,22.276a164.229,164.229,0,0,1,5.164,20.139l12.465-21.51Z" transform="translate(12.069 38.679)" fill="#f4f7bb"/>
      <path id="Trazado_1035271" data-name="Trazado 1035271" d="M84.671,125.531H44.464c-30.36-15.937-22.222-11.5-34.58-18.608A17.7,17.7,0,0,1,3.207,83.08C6.768,76.492,15.12,61.321,20.266,55.89L29.988,67.7a11.734,11.734,0,0,0,6.41,3.989l21.8,5.164a4.843,4.843,0,0,1,3.668,5.538l-4.042,23.95a8.9,8.9,0,0,0,8.69,10.292h4.754a3.793,3.793,0,0,0,3.686-4.683l-2.564-10.684a3.437,3.437,0,0,1,3.08-4.22l5.342,17.806h2.867Z" transform="translate(0.768 43.63)" fill="#f4b675"/>
      <path id="Trazado_1035272" data-name="Trazado 1035272" d="M9.22,110.234l28.846,6.5h3.793c1.442-6.428,8-35.506,9.509-42.255L18.924,67.16c-4.149,18.376-5.609,24.911-9.7,43.074Z" transform="translate(7.167 52.428)" fill="#ff4b6e"/>
      <path id="Trazado_1035273" data-name="Trazado 1035273" d="M42.644,119.291a37.4,37.4,0,0,1-4.185,0L9.613,112.756a1.781,1.781,0,0,1-1.353-2.137L10.04,102.8l7.942-35.257a1.781,1.781,0,0,1,2.137-1.335l32.443,7.3a1.781,1.781,0,0,1,1.353,2.137L44.371,117.9a1.781,1.781,0,0,1-1.727,1.389Zm-1.425-3.561,8.814-39.174L21.045,70.074l-8.9,39.584C42.982,116.62,38.1,115.73,41.219,115.73Z" transform="translate(6.382 51.65)" fill="#302d3d"/>
      <path id="Trazado_1035274" data-name="Trazado 1035274" d="M9.22,110.234l28.846,6.5h3.793c1.442-6.428,8-35.506,9.509-42.255L18.924,67.16c-4.149,18.376-5.609,24.911-9.7,43.074Z" transform="translate(7.167 52.428)" fill="#ff4b6e"/>
      <rect id="Rect치ngulo_415856" data-name="Rect치ngulo 415856" width="29.897" height="19.017" rx="1.24" transform="translate(24.973 157.297) rotate(-77.297)" fill="#ff8c87"/>
      <path id="Trazado_1035275" data-name="Trazado 1035275" d="M10.991,87.929,9.21,95.746l28.864,6.428h3.793c1.531-6.855.659-2.956,3.668-16.364" transform="translate(7.159 66.987)" fill="#ff4b6e"/>
      <path id="Trazado_1035276" data-name="Trazado 1035276" d="M42.644,104.712a37.4,37.4,0,0,1-4.185,0L9.613,98.177A1.781,1.781,0,0,1,8.26,96.04l1.781-7.817a1.781,1.781,0,0,1,3.472.783l-1.371,6.072c30.841,6.962,25.962,6.072,29.078,6.072l3.365-14.975a1.781,1.781,0,0,1,3.472.783l-3.686,16.364a1.781,1.781,0,0,1-1.727,1.389Z" transform="translate(6.382 66.23)" fill="#302d3d"/>
      <path id="Trazado_1035277" data-name="Trazado 1035277" d="M47.142,49.932c0,11.61-4.7,16.774-9.135,22.454a4.4,4.4,0,0,1-6.944,0c-4.772-6-9.152-10.987-9.152-22.454a25.445,25.445,0,0,1,4.719-.392v1.175a4.238,4.238,0,0,0,1.87,3.561l3.793,2.582a4.2,4.2,0,0,0,4.79,0l3.7-2.564a4.238,4.238,0,0,0,1.781-3.561V49.541a24.93,24.93,0,0,1,4.576.392Z" transform="translate(17.073 38.672)" fill="#497db0"/>
      <path id="Trazado_1035278" data-name="Trazado 1035278" d="M21.663,84.425c2.35.623,4.612,1.211,4.434,1.193a4.149,4.149,0,0,0,3.864-1.923l.285-.445a4.078,4.078,0,0,1,2.938-1.923,1.157,1.157,0,0,1,1.335,1.246l-.2,2.119a1.656,1.656,0,0,0,1.514,1.781l8.494.8a2.546,2.546,0,0,1,2.315,2.778l-.178,2.083a8.9,8.9,0,0,1-3.152,5.983,7.336,7.336,0,0,1-5.876,2.422L30.6,99.9c-2.742-.249-3.971-1.781-6.179-4.024L19.33,94.094Z" transform="translate(15.059 63.475)" fill="#ffaaa0"/>
      <path id="Trazado_1035279" data-name="Trazado 1035279" d="M39.7,43.249v12.3a3.935,3.935,0,0,1-1.781,3.259L34.487,61.18a3.935,3.935,0,0,1-4.469,0L26.581,58.9A3.971,3.971,0,0,1,24.8,55.624V43.16a23.86,23.86,0,0,0,14.9.089Z" transform="translate(19.329 33.692)" fill="#ff7d82"/>
      <path id="Trazado_1035280" data-name="Trazado 1035280" d="M15.54,16.39v24.8a24.092,24.092,0,0,0,48.184,0V16.39" transform="translate(12.1 12.795)" fill="#ffaaa0"/>
      <path id="Trazado_1035281" data-name="Trazado 1035281" d="M31.37,16.39c0,9.117-6.731,12.91-15.83,13.889V16.39" transform="translate(12.1 12.795)" fill="#353c60"/>
      <path id="Trazado_1035282" data-name="Trazado 1035282" d="M35.62,16.39c0,7.123,5.342,10.15,12.464,10.915V16.39" transform="translate(27.775 12.795)" fill="#353c60"/>
      <path id="Trazado_1035283" data-name="Trazado 1035283" d="M15,35.181h4.38V26.42H15a4.38,4.38,0,1,0,0,8.761Z" transform="translate(8.259 20.624)" fill="#ffaaa0"/>
      <path id="Trazado_1035284" data-name="Trazado 1035284" d="M46.98,26.42H42.6v8.761h4.38a4.38,4.38,0,1,0,0-8.761Z" transform="translate(33.224 20.624)" fill="#ffaaa0"/>
      <path id="Trazado_1035285" data-name="Trazado 1035285" d="M6.01,91.373l22.329,12.856,4.487-18.75-17.5-9.669Z" transform="translate(4.661 59.18)" fill="#f4d493"/>
      <path id="Trazado_1035286" data-name="Trazado 1035286" d="M0,0H5.812V57.463H0Z" transform="translate(128.945 46.278) rotate(12.653)" fill="#f4a261"/>
      <path id="Trazado_1035287" data-name="Trazado 1035287" d="M64.729,12.231l-4.558,4.558a1.782,1.782,0,1,0,2.511,2.529l1.531-1.531V33.812a1.781,1.781,0,1,0,3.561,0V13.477a1.781,1.781,0,0,0-3.045-1.246Z" transform="translate(46.53 9.137)" fill="#fff"/>
      <path id="Trazado_1035288" data-name="Trazado 1035288" d="M82.019,12.231l-4.558,4.558a1.782,1.782,0,1,0,2.511,2.529L81.5,17.787V33.812a1.781,1.781,0,1,0,3.561,0V13.477a1.781,1.781,0,0,0-3.045-1.246Z" transform="translate(60.027 9.137)" fill="#fff"/>
      <path id="Trazado_1035289" data-name="Trazado 1035289" d="M81.2,20.2H76.638V15.621a1.781,1.781,0,1,0-3.561,0V20.2H68.5a1.781,1.781,0,1,0,0,3.561h4.576V28.37a1.781,1.781,0,1,0,3.561,0V23.758H81.2a1.781,1.781,0,0,0,0-3.561Z" transform="translate(52.053 10.804)" fill="#fff"/>
      <path id="Trazado_1035290" data-name="Trazado 1035290" d="M61.75,72.319c1.015-5.057,1.335-7.942,3.561-11.574l5-8.1a4.487,4.487,0,0,1,8.066.855l.659,1.923a16.987,16.987,0,0,1-6.072,19.391L69.122,77.59Z" transform="translate(48.173 39.416)" fill="#ffaaa0"/>
      <path id="Trazado_1035291" data-name="Trazado 1035291" d="M10.986,91.66l-.926,5.947H37.411Z" transform="translate(7.822 71.553)" fill="#f4d493"/>
      <g id="Grupo_1176814" data-name="Grupo 1176814" transform="translate(0.04 0)">
        <path id="Trazado_1035292" data-name="Trazado 1035292" d="M170.91,8.9a1.781,1.781,0,0,0-1.781-1.781H66.227a42.272,42.272,0,0,0-12.358-2.1V3.561H169.13a1.781,1.781,0,1,0,0-3.561H52.088a1.781,1.781,0,0,0-1.781,1.781V4.986c-26.158.766-38,18.821-38,45.032a84.117,84.117,0,0,0,2.707,24.341c-1.905,9.224-1.175,5.769-1.585,7.55-1,4.63-3.081,13.818,3.205,20.175A247,247,0,0,0,2.391,125.856a19.587,19.587,0,0,0,7.39,26.229l6.339,3.561-1.478,6.535a1.781,1.781,0,0,0,1.353,2.226l.8.178-.659,4.309a1.781,1.781,0,0,0,1.781,2.048H85.44a1.781,1.781,0,0,0,1.781-1.959l-.73-7.568a12.874,12.874,0,0,0,14.619-5.751L122.121,120.5a1.781,1.781,0,0,0-.5-2.35l-1.442-1.033a22.151,22.151,0,0,0,6.321-5.823H169.13a1.781,1.781,0,0,0,0-3.561H128.478a17.807,17.807,0,0,0,1.478-5.787H169.13a1.781,1.781,0,0,0,0-3.561h-39.3a16.881,16.881,0,0,0-.659-3.241H169.13a1.781,1.781,0,0,0,0-3.561H127.908a6.375,6.375,0,0,0-1.6-2.03l9.437-41.792a1.781,1.781,0,0,0-1.335-2.137l-5.645-1.264a1.781,1.781,0,0,0-2.137,1.335L116.263,91.578H82.84c6.855-17.148,9.046-23.006,9.046-41.56,0-15.349-5.182-31.161-18.109-39.334H169.13A1.781,1.781,0,0,0,170.91,8.9ZM16.9,82.764c.16-.677.231-.979.356-1.6a84.972,84.972,0,0,0,6.5,13.07,64.745,64.745,0,0,0-4.9,5.021c-4.523-5-2.867-12.375-1.959-16.489ZM38.021,150.09a28.72,28.72,0,0,0,2.956.766,5.858,5.858,0,0,0,5.538-2.724,3.116,3.116,0,0,1,1.193-1.318l-.107,1.175a3.454,3.454,0,0,0,3.134,3.775c1.5.142,1,0,8.494.784a.8.8,0,0,1,.712.855c-.231,2.475-.214,4.772-2.707,6.855l-1.175.962a4.576,4.576,0,0,1-3.383,1.051c-.392,0,.178,0-3.846-.356-2.724-.249-4.291-.125-5.8-1.567-3.223-3.152-1.781-2.244-6.535-3.864Zm13.123-1.781c.2-2.19.534-3.348-.712-4.523-1.905-1.781-5.253-.231-6.642,1.977l-.285.445a2.3,2.3,0,0,1-2.066,1.1l-2.582-.694.374-1.567a1.781,1.781,0,0,0-.873-1.977l-14.014-7.746,3.081-13.658,28.989,6.535-4.541,20.175Zm-32.639,13,.837-3.722,11.147,6.428Zm1.46,6.072.3-2.012,8.9,2.012Zm14.12-2.564c.659-.516.57-.694,1.567-4.861l2.867.979c3.757,3.65,3.739,3.953,9.526,4.487L47.6,167.38c-2.849,0-.3.41-13.515-2.564Zm63.961-10.987a9.313,9.313,0,0,1-16.969-2.3L76.341,134.42a1.743,1.743,0,1,0-3.365.908l4.736,17.112a12.767,12.767,0,0,0,5.093,7.123c0,.231,0,0,.748,7.764h-32.3l.356-1.638h.73a8.226,8.226,0,0,0,6-1.781l1.175-.962a10.524,10.524,0,0,0,3.775-7.123l.2-2.1A4.363,4.363,0,0,0,59.567,149l-4.113-.338L60.279,127.3a1.781,1.781,0,0,0-1.353-2.137l-32.443-7.3a1.781,1.781,0,0,0-2.137,1.335l-3.241,14.352-.267-.142a1.794,1.794,0,1,0-1.781,3.116c6.891,3.811-1.229-.659,16.311,9.01-5.84,24.324-2.564,10.88-3.561,15.1L11.561,149a16.026,16.026,0,0,1-6.036-21.368,233.074,233.074,0,0,1,14.37-24,41.667,41.667,0,0,1,3.045-3.561c4.167-4.469,8.262-7.764,14.245-9.295a31.909,31.909,0,0,0,.8,5.7c1.781,7.443,5.342,11.325,8.69,15.67a6.179,6.179,0,0,0,9.758,0c5.52-7.034,8.814-11.2,9.491-21.368,9.4,2.279,18.02,11.4,21.118,20.673a160.059,160.059,0,0,1,4.95,19.284l-1.905,3.276a1.781,1.781,0,0,0,3.081,1.781c2.956-5.093.5-.873,13.818-23.7l11.182,8ZM57.252,79.274v9.972a2.244,2.244,0,0,1-.926,1.781L52.89,93.395a2.172,2.172,0,0,1-2.457,0c-5.11-3.4-4.487-2.4-4.487-6.98,0-8.048,0-7.123.125-7.123a24.929,24.929,0,0,0,5.662.641,27.333,27.333,0,0,0,5.52-.659Zm-8.9,17.664a6.036,6.036,0,0,0,6.82,0c.588-.427,0,0,3.7-2.564a6.019,6.019,0,0,0,2.546-4.309h1.015a27.173,27.173,0,0,1-5.751,16.026l-3.009,3.828a2.724,2.724,0,0,1-4.149,0c-3.561-4.594-6.2-7.461-7.817-13.444a26.709,26.709,0,0,1-.926-6.375h1.175c.356,3.419,3.294,4.808,6.392,6.838Zm60.542,10.791H89.446a37.84,37.84,0,0,0-3.134-5.787h24.252a24.645,24.645,0,0,0-1.656,5.787ZM94.646,126.123a151.67,151.67,0,0,0-3.864-14.833h12.571Zm30.805-30.7a15.4,15.4,0,0,1-.837,12.3c-1.887,3.561-4.078,4.79-7.247,7.123l-5.342-3.864c1.781-8.707,1.175-6.624,8.1-17.967a2.689,2.689,0,0,1,4.861.534c.231.926.552,1.852.552,1.87Zm4.167-47.2,2.172.481-8.9,39.477a6.286,6.286,0,0,0-2.315.178ZM114.482,95.14l-1.994,3.241H83.659a34.9,34.9,0,0,0-2.475-2.653l.231-.57ZM88.324,50.018c0,19-2.653,24.8-9.313,41.56h-2.9A27.016,27.016,0,0,0,73.082,89.8c.641-1.5,1.122-2.529,1.941-4.7a1.781,1.781,0,0,0-3.33-1.264c-.481,1.246-1.157,2.956-1.87,4.505a29.291,29.291,0,0,0-9.01-1.781V78.206a25.677,25.677,0,0,0,16.524-20.62H80.2a6.161,6.161,0,1,0,0-12.322H77.6V29.238a1.781,1.781,0,1,0-3.561,0v8.9c-6.731-1.246-8.9-4.612-8.9-8.9a1.781,1.781,0,1,0-3.561,0c0,7.425,4.986,11.271,12.464,12.464v12.34a22.294,22.294,0,0,1-44.587-.036V44.658c9.295-1.389,15.83-6.019,15.83-15.474a1.781,1.781,0,0,0-3.561,0c0,6.606-4.024,10.488-12.269,11.841V29.185a1.781,1.781,0,1,0-3.561,0V45.21H23.26a6.161,6.161,0,0,0,0,12.322h2.849A25.8,25.8,0,0,0,42.384,78.063V86.4a29.221,29.221,0,0,0-7.8,1.407,79.309,79.309,0,0,1-3.739-10.025,1.8,1.8,0,0,0-3.561.516A67.451,67.451,0,0,0,30.845,88.32l.338.748a28.971,28.971,0,0,0-4.7,2.8c-8.974-15.3-10.613-25.98-10.613-41.845,0-24.181,10.346-40.723,34.438-41.435a42.361,42.361,0,0,1,14.067,1.638v.463h1.478l2.155.837C86.6,19.676,88.324,42.13,88.324,50.018ZM77.641,48.825h2.6a2.6,2.6,0,0,1,0,5.2H77.6Zm-51.781,5.2h-2.6a2.6,2.6,0,1,1,0-5.2h2.6Z" transform="translate(-0.04 0)" fill="#302d3d"/>
        <path id="Trazado_1035293" data-name="Trazado 1035293" d="M25.211,28.47a1.781,1.781,0,0,0-1.781,1.781v1.175a1.781,1.781,0,1,0,3.561,0V30.251A1.781,1.781,0,0,0,25.211,28.47Z" transform="translate(18.22 22.225)" fill="#302d3d"/>
        <path id="Trazado_1035294" data-name="Trazado 1035294" d="M29.9,26.661a1.781,1.781,0,0,0-1.781-1.781H22.781a1.781,1.781,0,0,0,0,3.561h5.342A1.781,1.781,0,0,0,29.9,26.661Z" transform="translate(16.323 19.422)" fill="#302d3d"/>
        <path id="Trazado_1035295" data-name="Trazado 1035295" d="M35.061,28.47a1.781,1.781,0,0,0-1.781,1.781v1.175a1.781,1.781,0,0,0,3.561,0V30.251A1.781,1.781,0,0,0,35.061,28.47Z" transform="translate(25.909 22.225)" fill="#302d3d"/>
        <path id="Trazado_1035296" data-name="Trazado 1035296" d="M33,26.661a1.781,1.781,0,0,0,1.781,1.781h5.342a1.781,1.781,0,0,0,0-3.561H34.781A1.781,1.781,0,0,0,33,26.661Z" transform="translate(25.69 19.422)" fill="#302d3d"/>
        <path id="Trazado_1035297" data-name="Trazado 1035297" d="M35.735,37.525a8,8,0,0,1-7.425.249,1.781,1.781,0,1,0-1.585,3.187,11.343,11.343,0,0,0,10.791-.356,1.779,1.779,0,1,0-1.781-3.081Z" transform="translate(19.982 29.106)" fill="#302d3d"/>
        <path id="Trazado_1035298" data-name="Trazado 1035298" d="M36.821,24.944a7.692,7.692,0,0,1-5.146-7.764,1.781,1.781,0,1,0-3.561,0,11.325,11.325,0,0,0,7.3,11.04,1.783,1.783,0,1,0,1.407-3.276Z" transform="translate(21.869 12.022)" fill="#302d3d"/>
      </g>
    </g>
  </g>
</svg>
